<svg width="411" height="366" fill="none" xmlns="http://www.w3.org/2000/svg">
  <g filter="url(#filter0_d)">
    <rect width="50" height="50" rx="2" transform="matrix(-1 0 0 1 232.164 21.612)" fill="#fff"/>
    <rect x=".75" y="-.75" width="51.5" height="51.5" rx="2.75" transform="matrix(-1 0 0 1 233.664 21.612)" stroke="#E3E4EB" stroke-width="1.5"/>
  </g>
  <rect x="198.914" y="34.362" width="20.5" height="20.5" rx="2.25" stroke="#BFBFC0" stroke-width="1.5"/>
  <path d="M198.164 40.612h22M198.164 48.612h22M212.164 48.612v-8M205.164 40.612v-7M205.164 55.612v-7" stroke="#BFBFC0" stroke-width="1.5"/>
  <path d="M183.116 91.691c2.167 0 3.443-1.353 3.74-2.552l-1.782-.45c-.187.66-.924 1.286-1.98 1.286-1.342 0-2.178-1.089-2.178-2.299 0-1.243.836-2.277 2.178-2.277 1.056 0 1.793.66 1.98 1.31l1.782-.44c-.297-1.2-1.573-2.586-3.773-2.586-2.31 0-4.037 1.727-4.037 4.004 0 2.277 1.727 4.004 4.07 4.004Zm8.685 0c2.354 0 4.081-1.727 4.081-4.004 0-2.277-1.727-4.004-4.081-4.004s-4.081 1.727-4.081 4.004c0 2.277 1.727 4.004 4.081 4.004Zm0-1.683c-1.353 0-2.233-1-2.233-2.32 0-1.31.88-2.322 2.233-2.322 1.353 0 2.233 1.012 2.233 2.321 0 1.32-.88 2.321-2.233 2.321Zm10.27-6.17v4.41l-3.465-4.41h-1.485v7.7h1.826v-4.412l3.465 4.411h1.485v-7.7h-1.826Zm9.607 0h-6.732v1.65h2.453v6.05h1.826v-6.05h2.453v-1.65Zm5.803 7.7h2.101l-1.859-2.762a2.49 2.49 0 0 0 1.573-2.343c0-1.276-1.012-2.596-2.728-2.596h-3.85v7.7h1.804v-2.53h1.32l1.639 2.53Zm-2.959-6.073h1.991c.561 0 1.012.44 1.012.968 0 .54-.44.98-1.089.98h-1.914v-1.948Zm9.838 6.226c2.354 0 4.081-1.727 4.081-4.004 0-2.277-1.727-4.004-4.081-4.004s-4.081 1.727-4.081 4.004c0 2.277 1.727 4.004 4.081 4.004Zm0-1.683c-1.353 0-2.233-1-2.233-2.32 0-1.31.88-2.322 2.233-2.322 1.353 0 2.233 1.012 2.233 2.321 0 1.32-.88 2.321-2.233 2.321Zm7.146-.143v-6.028h-1.826v7.7h5.445v-1.672h-3.619Zm-38.976 6.972h-3.707v7.7h1.804v-2.156h1.826c1.815 0 2.838-1.43 2.838-2.772 0-1.33-1.023-2.772-2.761-2.772Zm-.121 3.916h-1.782v-2.266h1.859c.594 0 1.034.55 1.034 1.133s-.44 1.133-1.111 1.133Zm5.754 2.112v-6.028h-1.826v7.7h5.445v-1.672h-3.619Zm10.383 1.672h1.881l-2.849-7.7h-2.398l-2.849 7.7h1.881l.539-1.474h3.256l.539 1.474Zm-3.212-3.069 1.045-2.882 1.045 2.882h-2.09Zm10.927-4.63v4.41l-3.465-4.41h-1.485v7.699h1.826v-4.411l3.465 4.411h1.485v-7.7h-1.826Zm9.167 1.65v-1.65h-5.797v7.699h5.786v-1.65h-4.004v-1.463h3.454v-1.595h-3.454v-1.342h4.015Z" fill="#727274"/>
  <g filter="url(#filter1_d)">
    <rect width="50" height="50" rx="2" transform="matrix(-1 0 0 1 66.552 93.522)" fill="#fff"/>
    <rect x=".75" y="-.75" width="51.5" height="51.5" rx="2.75" transform="matrix(-1 0 0 1 68.052 93.522)" stroke="#E3E4EB" stroke-width="1.5"/>
  </g>
  <path d="M28.005 157.658v4.466c0 .99-.517 1.716-1.573 1.716s-1.573-.726-1.573-1.716v-4.466H23.01v4.499c0 1.969 1.199 3.355 3.42 3.355 2.212 0 3.422-1.386 3.422-3.355v-4.499h-1.848Zm6.443 7.854c1.903 0 3.157-1.067 3.157-2.442 0-1.298-.957-1.804-2.112-2.167l-1.936-.616c-.33-.099-.517-.286-.517-.55 0-.352.396-.638 1.023-.638.737 0 1.397.385 1.694.924l1.683-.495c-.407-1.078-1.705-2.024-3.4-2.024-1.66 0-2.86 1.034-2.848 2.299-.011 1.012.748 1.716 1.76 2.035l1.98.616c.583.187.825.418.825.737 0 .385-.462.726-1.2.726-1.011 0-1.693-.561-1.99-1.276l-1.738.539c.44 1.188 1.672 2.332 3.619 2.332Zm10.163-6.204v-1.65h-5.797v7.7h5.785v-1.65h-4.003v-1.463h3.454v-1.595h-3.454v-1.342h4.015Zm6.082 6.05h2.101l-1.859-2.761a2.49 2.49 0 0 0 1.573-2.343c0-1.276-1.012-2.596-2.728-2.596h-3.85v7.7h1.804v-2.53h1.32l1.639 2.53Zm-2.959-6.072h1.991c.561 0 1.012.44 1.012.968 0 .539-.44.979-1.089.979h-1.914v-1.947Zm9.18 6.226c1.903 0 3.157-1.067 3.157-2.442 0-1.298-.957-1.804-2.112-2.167l-1.936-.616c-.33-.099-.517-.286-.517-.55 0-.352.396-.638 1.023-.638.737 0 1.397.385 1.694.924l1.683-.495c-.407-1.078-1.705-2.024-3.399-2.024-1.66 0-2.86 1.034-2.849 2.299-.01 1.012.748 1.716 1.76 2.035l1.98.616c.583.187.825.418.825.737 0 .385-.462.726-1.199.726-1.012 0-1.694-.561-1.99-1.276l-1.739.539c.44 1.188 1.672 2.332 3.62 2.332Z" fill="#000"/>
  <path d="M46.85 128.478v-2.179a4.359 4.359 0 0 0-4.358-4.359h-8.716a4.359 4.359 0 0 0-4.358 4.359v2.179" stroke="#BFBFC0" stroke-width="1.5" stroke-linecap="round" stroke-linejoin="round"/>
  <path clip-rule="evenodd" d="M38.134 117.582a4.358 4.358 0 1 0 0-8.716 4.358 4.358 0 0 0 0 8.716Z" stroke="#BFBFC0" stroke-width="1.5" stroke-linecap="round" stroke-linejoin="round"/>
  <path d="M53.388 128.478v-2.179a4.358 4.358 0 0 0-3.269-4.217M45.761 109.007a4.359 4.359 0 0 1 0 8.444" stroke="#BFBFC0" stroke-width="1.5" stroke-linecap="round" stroke-linejoin="round"/>
  <path d="M247.328 47.578c0-.45.366-.817.818-.817h59.38a.817.817 0 0 1 0 1.634h-59.38a.817.817 0 0 1-.818-.817Z" fill="#B5B6BA"/>
  <path stroke="#DBDBDC" stroke-linecap="round" stroke-dasharray="1 8" d="M152.037.5h106.687v315.881H152.037z"/>
  <path fill="#fff" d="M149.269 42.403h6.537v9.806h-6.537z"/>
  <path d="M77.358 111.573c0-.428.347-.775.775-.775h35.18v1.55h-35.18a.775.775 0 0 1-.775-.775ZM112.224 46.739h51.209v1.55h-51.209z" fill="#B5B6BA"/>
  <path fill="#B5B6BA" d="M112.224 47.255h1.634v65.093h-1.634zM169.169 47.333a.5.5 0 0 1 0 .877l-8.265 4.525a.5.5 0 0 1-.74-.438v-9.05a.5.5 0 0 1 .74-.439l8.265 4.525Z"/>
  <path d="M174.002 201.205a.817.817 0 0 0-.817-.817h-61.288v1.634h61.288a.817.817 0 0 0 .817-.817ZM113.531 124.119h-29.79v1.635h29.79v-1.635Z" fill="#EC585D"/>
  <path fill="#EC585D" d="M113.532 125.43h-1.596v76.048h1.596zM76.907 124.526a.5.5 0 0 0 0 .836l8.163 5.347a.5.5 0 0 0 .774-.418v-10.694a.5.5 0 0 0-.774-.418l-8.163 5.347Z"/>
  <path d="M206.198 120.851c.451 0 .817.366.817.817v33.231a.817.817 0 1 1-1.634 0v-33.231c0-.451.366-.817.817-.817Z" fill="#B5B6BA"/>
  <path d="M206.572 163.683a.5.5 0 0 1-.866 0l-4.796-8.306a.5.5 0 0 1 .433-.75h9.591a.5.5 0 0 1 .433.75l-4.795 8.306Z" fill="#B5B6BA"/>
  <g filter="url(#filter2_d)">
    <rect width="50" height="50" rx="2" transform="matrix(-1 0 0 1 370.537 177.418)" fill="#fff"/>
    <rect x=".75" y="-.75" width="51.5" height="51.5" rx="2.75" transform="matrix(-1 0 0 1 372.037 177.418)" stroke="#E3E4EB" stroke-width="1.5"/>
  </g>
  <path clip-rule="evenodd" d="M337.537 192.418a2 2 0 0 1 2-2h16a2 2 0 0 1 2 2v4a2 2 0 0 1-2 2h-16a2 2 0 0 1-2-2v-4ZM337.537 204.418a2 2 0 0 1 2-2h16a2 2 0 0 1 2 2v4a2 2 0 0 1-2 2h-16a2 2 0 0 1-2-2v-4Z" stroke="#BFBFC0" stroke-width="1.5" stroke-linecap="round" stroke-linejoin="round"/>
  <circle cx="341.537" cy="194.418" r="1" fill="#BFBFC0"/>
  <circle cx="341.537" cy="206.418" r="1" fill="#BFBFC0"/>
  <path d="M333.084 249.36h-6.732v1.65h2.453v6.05h1.826v-6.05h2.453v-1.65Zm5.769 7.7h1.881l-2.849-7.7h-2.398l-2.849 7.7h1.881l.539-1.474h3.256l.539 1.474Zm-3.212-3.069 1.045-2.882 1.045 2.882h-2.09Zm10.739 3.069h2.101l-1.859-2.761a2.49 2.49 0 0 0 1.573-2.343c0-1.276-1.012-2.596-2.728-2.596h-3.85v7.7h1.804v-2.53h1.32l1.639 2.53Zm-2.959-6.072h1.991c.561 0 1.012.44 1.012.968 0 .539-.44.979-1.089.979h-1.914v-1.947Zm13.82 1.694h-3.938v1.573l2.024-.011c-.143.638-.748 1.276-1.859 1.276-1.617 0-2.442-1.122-2.442-2.321 0-1.243.902-2.277 2.233-2.277 1.078 0 1.672.462 2.035 1.155l1.694-.484c-.473-1.276-1.782-2.387-3.751-2.387-2.299 0-4.059 1.727-4.059 4.004 0 2.266 1.749 4.004 4.147 4.004 2.376 0 3.916-1.54 3.916-3.619v-.913Zm7.038-1.672v-1.65h-5.797v7.7h5.786v-1.65h-4.004v-1.463h3.454v-1.595h-3.454v-1.342h4.015Zm7.556-1.65h-6.732v1.65h2.453v6.05h1.826v-6.05h2.453v-1.65Zm-41.289 23.854c1.903 0 3.157-1.067 3.157-2.442 0-1.298-.957-1.804-2.112-2.167l-1.936-.616c-.33-.099-.517-.286-.517-.55 0-.352.396-.638 1.023-.638.737 0 1.397.385 1.694.924l1.683-.495c-.407-1.078-1.705-2.024-3.399-2.024-1.661 0-2.86 1.034-2.849 2.299-.011 1.012.748 1.716 1.76 2.035l1.98.616c.583.187.825.418.825.737 0 .385-.462.726-1.199.726-1.012 0-1.694-.561-1.991-1.276l-1.738.539c.44 1.188 1.672 2.332 3.619 2.332Zm8.541-7.854-1.749 3.146-1.749-3.146h-2.057l2.882 4.928v2.772h1.848v-2.772l2.871-4.928h-2.046Zm5.509 7.854c1.903 0 3.157-1.067 3.157-2.442 0-1.298-.957-1.804-2.112-2.167l-1.936-.616c-.33-.099-.517-.286-.517-.55 0-.352.396-.638 1.023-.638.737 0 1.397.385 1.694.924l1.683-.495c-.407-1.078-1.705-2.024-3.399-2.024-1.661 0-2.86 1.034-2.849 2.299-.011 1.012.748 1.716 1.76 2.035l1.98.616c.583.187.825.418.825.737 0 .385-.462.726-1.199.726-1.012 0-1.694-.561-1.991-1.276l-1.738.539c.44 1.188 1.672 2.332 3.619 2.332Zm10.162-7.854h-6.732v1.65h2.453v6.05h1.826v-6.05h2.453v-1.65Zm6.838 1.65v-1.65h-5.797v7.7h5.786v-1.65h-4.004v-1.463h3.454v-1.595h-3.454v-1.342h4.015Zm7.755-1.65-2.343 3.421-2.354-3.421h-1.738v7.7h1.826v-4.51l2.255 3.091 2.266-3.091v4.51h1.826v-7.7h-1.738Z" fill="#000"/>
  <g filter="url(#filter3_d)">
    <rect width="50" height="50" rx="2" transform="matrix(-1 0 0 1 231.075 177.418)" fill="#fff"/>
    <rect x=".75" y="-.75" width="51.5" height="51.5" rx="2.75" transform="matrix(-1 0 0 1 232.575 177.418)" stroke="#E3E4EB" stroke-width="1.5"/>
  </g>
  <path clip-rule="evenodd" d="M208.075 203.418a3 3 0 1 0 0-6 3 3 0 0 0 0 6Z" stroke="#BFBFC0" stroke-width="1.5" stroke-linecap="round" stroke-linejoin="round"/>
  <path clip-rule="evenodd" d="M215.475 203.418a1.648 1.648 0 0 0 .33 1.82l.06.06a2.001 2.001 0 0 1-2.83 2.83l-.06-.06a1.648 1.648 0 0 0-1.82-.33 1.648 1.648 0 0 0-1 1.51v.17a2 2 0 0 1-4 0v-.09a1.65 1.65 0 0 0-1.08-1.51 1.648 1.648 0 0 0-1.82.33l-.06.06a2.001 2.001 0 0 1-2.83-2.83l.06-.06a1.652 1.652 0 0 0 .33-1.82 1.649 1.649 0 0 0-1.51-1h-.17a2 2 0 0 1 0-4h.09a1.65 1.65 0 0 0 1.51-1.08 1.652 1.652 0 0 0-.33-1.82l-.06-.06a1.998 1.998 0 0 1 0-2.83 1.998 1.998 0 0 1 2.83 0l.06.06a1.65 1.65 0 0 0 1.82.33h.08a1.652 1.652 0 0 0 1-1.51v-.17a2 2 0 1 1 4 0v.09a1.649 1.649 0 0 0 1 1.51 1.65 1.65 0 0 0 1.82-.33l.06-.06a1.998 1.998 0 0 1 2.83 0 2.001 2.001 0 0 1 0 2.83l-.06.06a1.648 1.648 0 0 0-.33 1.82v.08a1.65 1.65 0 0 0 1.51 1h.17a2 2 0 0 1 0 4h-.09a1.648 1.648 0 0 0-1.51 1Z" stroke="#BFBFC0" stroke-width="1.5" stroke-linecap="round" stroke-linejoin="round"/>
  <path d="m190.119 242.822-1.386 5.082-1.419-5.082h-1.639l-1.419 5.082-1.386-5.082h-1.925l2.299 7.7h1.936l1.32-4.576 1.309 4.576h1.936l2.299-7.7h-1.925Zm6.307 7.854c2.354 0 4.081-1.727 4.081-4.004 0-2.277-1.727-4.004-4.081-4.004s-4.081 1.727-4.081 4.004c0 2.277 1.727 4.004 4.081 4.004Zm0-1.683c-1.353 0-2.233-1.001-2.233-2.321 0-1.309.88-2.321 2.233-2.321 1.353 0 2.233 1.012 2.233 2.321 0 1.32-.88 2.321-2.233 2.321Zm10.083 1.529h2.101l-1.859-2.761a2.49 2.49 0 0 0 1.573-2.343c0-1.276-1.012-2.596-2.728-2.596h-3.85v7.7h1.804v-2.53h1.32l1.639 2.53Zm-2.959-6.072h1.991c.561 0 1.012.44 1.012.968 0 .539-.44.979-1.089.979h-1.914v-1.947Zm11.1 6.072h2.211l-3.168-4.378 2.948-3.322h-2.31l-2.794 3.344v-3.344h-1.826v7.7h1.826v-1.947l.957-1.078 2.156 3.025Zm8.941-6.05v-1.65h-5.797v7.7h5.786v-1.65h-4.004v-1.463h3.454v-1.595h-3.454v-1.342h4.015Zm6.083 6.05h2.101l-1.859-2.761a2.49 2.49 0 0 0 1.573-2.343c0-1.276-1.012-2.596-2.728-2.596h-3.85v7.7h1.804v-2.53h1.32l1.639 2.53Zm-2.959-6.072h1.991c.561 0 1.012.44 1.012.968 0 .539-.44.979-1.089.979h-1.914v-1.947Z" fill="#727274"/>
  <path d="M180.052 356.541c.572-.33.924-.869.924-1.584 0-1.243-1.045-2.09-2.618-2.09h-3.762v7.7h3.96c1.672 0 2.695-.814 2.695-2.2 0-.847-.473-1.474-1.199-1.826Zm-1.694-2.112c.484-.011.836.308.836.748s-.352.792-.836.792h-1.98v-1.54h1.98Zm.198 4.565h-2.178v-1.595h2.178c.561 0 .88.319.88.792 0 .451-.319.803-.88.803Zm7.692 1.727c2.354 0 4.081-1.727 4.081-4.004 0-2.277-1.727-4.004-4.081-4.004s-4.081 1.727-4.081 4.004c0 2.277 1.727 4.004 4.081 4.004Zm0-1.683c-1.353 0-2.233-1.001-2.233-2.321 0-1.309.88-2.321 2.233-2.321 1.353 0 2.233 1.012 2.233 2.321 0 1.32-.88 2.321-2.233 2.321Zm10.259-6.171v4.466c0 .99-.517 1.716-1.573 1.716s-1.573-.726-1.573-1.716v-4.466h-1.848v4.499c0 1.969 1.199 3.355 3.421 3.355 2.211 0 3.421-1.386 3.421-3.355v-4.499h-1.848Zm8.288 0v4.411l-3.465-4.411h-1.485v7.7h1.826v-4.411l3.465 4.411h1.485v-7.7h-1.826Zm6.922 0h-3.553v7.7h3.553c2.2 0 3.641-1.617 3.641-3.85 0-2.288-1.474-3.85-3.641-3.85Zm-.044 6.061h-1.705v-4.422h1.705c1.034 0 1.837.825 1.837 2.178s-.803 2.244-1.837 2.244Zm10.097 1.639h1.881l-2.849-7.7h-2.398l-2.849 7.7h1.881l.539-1.474h3.256l.539 1.474Zm-3.212-3.069 1.045-2.882 1.045 2.882h-2.09Zm10.74 3.069h2.101l-1.859-2.761a2.49 2.49 0 0 0 1.573-2.343c0-1.276-1.012-2.596-2.728-2.596h-3.85v7.7h1.804v-2.53h1.32l1.639 2.53Zm-2.959-6.072h1.991c.561 0 1.012.44 1.012.968 0 .539-.44.979-1.089.979h-1.914v-1.947Zm10.616-1.628-1.749 3.146-1.749-3.146H231.4l2.882 4.928v2.772h1.848v-2.772l2.871-4.928h-2.046Z" fill="#000"/>
  <path d="M237.522 202.295c0-.451.366-.817.817-.817h59.381a.817.817 0 0 1 0 1.634h-59.381a.817.817 0 0 1-.817-.817Z" fill="#EC585D"/>
  <path d="M306.615 201.882a.5.5 0 0 1 0 .837l-8.165 5.345a.5.5 0 0 1-.774-.418v-10.691a.5.5 0 0 1 .774-.418l8.165 5.345Z" fill="#EC585D"/>
  <g filter="url(#filter4_d)">
    <rect x="180.866" y="289.731" width="52" height="52" rx="2" fill="#EC585D"/>
  </g>
  <path d="M200.673 326.713v-1.852h3.851v-1.144h-1.866v-1.866h8.812l-4.094-7.091 4.094-7.092h-9.033v9.835h-4.864v-14.697h16.734l2.793 4.837-4.109 7.117 4.193 7.262-2.709 4.691h-13.802Z" fill="#fff"/>
  <path d="M201.423 321.85h-1.866v1.866h1.866v-1.866ZM199.438 324.849h-1.866v1.866h1.866v-1.866Z" fill="#fff"/>
  <path d="M303.622 102.241c1.65 0 2.827-.88 2.827-2.266 0-1.144-.66-1.969-2.838-2.244-1.001-.132-1.683-.495-1.683-1.166 0-.55.528-1.1 1.463-1.1.946 0 1.661.484 1.727 1.375h1.166c-.055-1.518-1.144-2.442-2.893-2.442-1.551 0-2.695.99-2.695 2.2 0 1.067.77 1.936 2.981 2.2 1.144.143 1.54.528 1.54 1.166 0 .638-.561 1.243-1.573 1.243-1.078 0-1.749-.528-1.925-1.419h-1.232c.121 1.65 1.606 2.453 3.135 2.453Zm6.387.044c1.298 0 2.189-.781 2.354-1.87h-1.001c-.231.737-.902.946-1.342.946-.935 0-1.529-.616-1.529-1.595v-.01h3.96c.099-1.794-.814-3.158-2.464-3.158-1.562 0-2.596 1.166-2.596 2.86 0 1.76 1.045 2.827 2.618 2.827Zm-1.485-3.465c.055-.759.616-1.298 1.43-1.298.825 0 1.32.54 1.375 1.298h-2.805Zm7.423 3.421c1.265 0 2.266-.825 2.42-1.98h-1.1c-.11.55-.572 1.034-1.298 1.034-.847 0-1.496-.737-1.496-1.936 0-1.177.649-1.892 1.485-1.892.704 0 1.177.484 1.309 1.034h1.1c-.143-1.144-1.122-1.947-2.376-1.947-1.551 0-2.64 1.177-2.64 2.86 0 1.672 1.078 2.827 2.596 2.827Zm3.705-.077h1.023v-2.882c0-1.342.847-1.628 1.661-1.606l.143-.01v-1.09h-.198c-1.078-.022-1.485.55-1.606.781v-.693h-1.023v5.5Zm5.916.121c1.298 0 2.189-.781 2.354-1.87h-1.001c-.231.737-.902.946-1.342.946-.935 0-1.529-.616-1.529-1.595v-.01h3.96c.099-1.794-.814-3.158-2.464-3.158-1.562 0-2.596 1.166-2.596 2.86 0 1.76 1.045 2.827 2.618 2.827Zm-1.485-3.465c.055-.759.616-1.298 1.43-1.298.825 0 1.32.54 1.375 1.298h-2.805Zm6.708 3.344h.957v-.946h-.715c-.506 0-.671-.187-.671-.737v-2.915h1.375v-.902h-1.375v-1.716h-1.045v1.716h-.847v.902h.847v3.146c0 .869.605 1.452 1.474 1.452Zm3.906.121c1.089 0 2.123-.66 2.123-1.749 0-.869-.528-1.44-2.189-1.66-.715-.1-1.045-.364-1.045-.727 0-.44.484-.66.968-.66.44 0 1.056.165 1.155.946h.99c-.088-1.342-1.122-1.87-2.167-1.87-1.221 0-2.013.737-2.013 1.573 0 .627.297 1.364 2.112 1.628.858.132 1.089.407 1.089.77 0 .462-.374.847-1.045.847-.649 0-1.188-.341-1.298-.979h-1.023c.066 1.254 1.122 1.881 2.343 1.881Zm6.453-.121h1.1v-5.753l2.211 5.753h1.001l2.178-5.73v5.73h1.056v-7.7h-1.331l-2.387 6.237-2.453-6.237h-1.375v7.7Zm10.783.11a2.16 2.16 0 0 0 1.694-.803v.693h1.1v-3.74c0-1.089-.77-1.892-2.145-1.892-1.331 0-2.2.825-2.31 1.925l1.111-.01c.066-.485.451-.958 1.243-.958.594 0 1.001.32 1.001.737 0 .594-.847.65-1.551.715-.627.055-1.144.21-1.507.495-.341.275-.495.704-.495 1.177 0 1.056.88 1.661 1.859 1.661Zm.165-.924c-.517-.033-.891-.341-.891-.803s.374-.737 1.078-.792c.616-.055 1.111-.143 1.353-.308l-.011.583c-.022.946-.88 1.342-1.529 1.32Zm4.17.814h1.056v-2.838c0-1.155.671-1.859 1.441-1.859.671 0 1.166.451 1.166 1.43v3.267h1.133v-3.377c0-1.749-1.21-2.266-2.068-2.266-.88 0-1.452.517-1.672.858v-.715h-1.056v5.5Zm7.874.11a2.16 2.16 0 0 0 1.694-.803v.693h1.1v-3.74c0-1.089-.77-1.892-2.145-1.892-1.331 0-2.2.825-2.31 1.925l1.111-.01c.066-.485.451-.958 1.243-.958.594 0 1.001.32 1.001.737 0 .594-.847.65-1.551.715-.627.055-1.144.21-1.507.495-.341.275-.495.704-.495 1.177 0 1.056.88 1.661 1.859 1.661Zm.165-.924c-.517-.033-.891-.341-.891-.803s.374-.737 1.078-.792c.616-.055 1.111-.143 1.353-.308l-.011.583c-.022.946-.88 1.342-1.529 1.32Zm6.426 3.102c1.606 0 2.761-.88 2.761-2.783v-5.005h-1.023v.957c-.352-.66-1.133-1.078-1.914-1.078-1.441 0-2.464 1.2-2.464 2.838 0 1.65.913 2.838 2.431 2.838.825 0 1.606-.44 1.947-1.1v.55c0 1.32-.748 1.87-1.705 1.87-.275 0-1.243-.088-1.43-1.001l-1.056-.011c.055 1.034.968 1.925 2.453 1.925Zm.055-3.201c-.924 0-1.562-.759-1.562-1.804 0-1.122.638-1.914 1.562-1.914.946 0 1.606.76 1.606 1.815 0 1.111-.66 1.903-1.606 1.903Zm6.538 1.034c1.298 0 2.189-.781 2.354-1.87h-1.001c-.231.737-.902.946-1.342.946-.935 0-1.529-.616-1.529-1.595v-.01h3.96c.099-1.794-.814-3.158-2.464-3.158-1.562 0-2.596 1.166-2.596 2.86 0 1.76 1.045 2.827 2.618 2.827Zm-1.485-3.465c.055-.759.616-1.298 1.43-1.298.825 0 1.32.54 1.375 1.298h-2.805Zm5.212 3.344h1.056v-2.838c0-1.155.583-1.859 1.353-1.859.671 0 1.166.451 1.166 1.43v3.267h1.133v-2.838c0-1.155.583-1.859 1.353-1.859.671 0 1.166.451 1.166 1.43v3.267h1.133v-3.377c0-1.749-1.232-2.266-2.09-2.266-.869 0-1.496.451-1.859 1.067a1.956 1.956 0 0 0-1.771-1.067 1.83 1.83 0 0 0-1.584.858v-.715h-1.056v5.5Zm12.188.121c1.298 0 2.189-.781 2.354-1.87h-1.001c-.231.737-.902.946-1.342.946-.935 0-1.529-.616-1.529-1.595v-.01h3.96c.099-1.794-.814-3.158-2.464-3.158-1.562 0-2.596 1.166-2.596 2.86 0 1.76 1.045 2.827 2.618 2.827Zm-1.485-3.465c.055-.759.616-1.298 1.43-1.298.825 0 1.32.54 1.375 1.298h-2.805Zm5.212 3.344h1.056v-2.838c0-1.155.671-1.859 1.441-1.859.671 0 1.166.451 1.166 1.43v3.267h1.133v-3.377c0-1.749-1.21-2.266-2.068-2.266-.88 0-1.452.517-1.672.858v-.715h-1.056v5.5Zm7.896 0h.957v-.946h-.715c-.506 0-.671-.187-.671-.737v-2.915h1.375v-.902h-1.375v-1.716h-1.045v1.716h-.847v.902h.847v3.146c0 .869.605 1.452 1.474 1.452Z" fill="#727274"/>
  <path d="m325.713 20.727 23.327 46.827 23.501-46.827h-46.828Zm26.08 9.418h2.717v2.694h-2.717v-2.694Zm-5.404 10.866h-2.688v-2.738h2.709l-.021 2.738Zm0-4.071h-2.688V34.2h2.709l-.021 2.739Zm0-4.072h-2.688V30.13h2.709l-.021 2.738Zm4.071 12.222h-2.688v-2.746h2.71l-.022 2.746Zm0-4.079h-2.688v-2.738h2.71l-.022 2.738Zm0-4.071h-2.688V34.2h2.71l-.022 2.739Zm0-4.072h-2.688V30.13h2.71l-.022 2.738Zm1.333 1.333h2.717v2.71h-2.717V34.2Zm0 6.781v-2.71h2.709v2.71h-2.709ZM337.219 78.12l-1.991 5.358-1.98-5.357h-2.024l3.003 7.7h2.002l3.003-7.7h-2.013Zm7.616 7.7h1.881l-2.849-7.7h-2.398l-2.849 7.7h1.881l.539-1.473h3.256l.539 1.474Zm-3.212-3.068 1.045-2.882 1.045 2.882h-2.09Zm10.636-4.631v4.466c0 .99-.517 1.716-1.573 1.716s-1.573-.726-1.573-1.716V78.12h-1.848v4.499c0 1.969 1.199 3.355 3.421 3.355 2.211 0 3.421-1.386 3.421-3.355v-4.5h-1.848Zm5.164 6.028V78.12h-1.826v7.7h5.445v-1.672h-3.619Zm9.969-6.028h-6.732v1.65h2.453v6.05h1.826v-6.05h2.453v-1.65Z" fill="#000"/>
  <defs>
    <filter id="filter0_d" x="172.664" y="14.112" width="69" height="69" filterUnits="userSpaceOnUse" color-interpolation-filters="sRGB">
      <feFlood flood-opacity="0" result="BackgroundImageFix"/>
      <feColorMatrix in="SourceAlpha" values="0 0 0 0 0 0 0 0 0 0 0 0 0 0 0 0 0 0 127 0" result="hardAlpha"/>
      <feOffset dy="2"/>
      <feGaussianBlur stdDeviation="4"/>
      <feComposite in2="hardAlpha" operator="out"/>
      <feColorMatrix values="0 0 0 0 0 0 0 0 0 0 0 0 0 0 0 0 0 0 0.05 0"/>
      <feBlend in2="BackgroundImageFix" result="effect1_dropShadow"/>
      <feBlend in="SourceGraphic" in2="effect1_dropShadow" result="shape"/>
    </filter>
    <filter id="filter1_d" x="7.052" y="86.022" width="69" height="69" filterUnits="userSpaceOnUse" color-interpolation-filters="sRGB">
      <feFlood flood-opacity="0" result="BackgroundImageFix"/>
      <feColorMatrix in="SourceAlpha" values="0 0 0 0 0 0 0 0 0 0 0 0 0 0 0 0 0 0 127 0" result="hardAlpha"/>
      <feOffset dy="2"/>
      <feGaussianBlur stdDeviation="4"/>
      <feComposite in2="hardAlpha" operator="out"/>
      <feColorMatrix values="0 0 0 0 0 0 0 0 0 0 0 0 0 0 0 0 0 0 0.05 0"/>
      <feBlend in2="BackgroundImageFix" result="effect1_dropShadow"/>
      <feBlend in="SourceGraphic" in2="effect1_dropShadow" result="shape"/>
    </filter>
    <filter id="filter2_d" x="311.037" y="169.918" width="69" height="69" filterUnits="userSpaceOnUse" color-interpolation-filters="sRGB">
      <feFlood flood-opacity="0" result="BackgroundImageFix"/>
      <feColorMatrix in="SourceAlpha" values="0 0 0 0 0 0 0 0 0 0 0 0 0 0 0 0 0 0 127 0" result="hardAlpha"/>
      <feOffset dy="2"/>
      <feGaussianBlur stdDeviation="4"/>
      <feComposite in2="hardAlpha" operator="out"/>
      <feColorMatrix values="0 0 0 0 0 0 0 0 0 0 0 0 0 0 0 0 0 0 0.05 0"/>
      <feBlend in2="BackgroundImageFix" result="effect1_dropShadow"/>
      <feBlend in="SourceGraphic" in2="effect1_dropShadow" result="shape"/>
    </filter>
    <filter id="filter3_d" x="171.575" y="169.918" width="69" height="69" filterUnits="userSpaceOnUse" color-interpolation-filters="sRGB">
      <feFlood flood-opacity="0" result="BackgroundImageFix"/>
      <feColorMatrix in="SourceAlpha" values="0 0 0 0 0 0 0 0 0 0 0 0 0 0 0 0 0 0 127 0" result="hardAlpha"/>
      <feOffset dy="2"/>
      <feGaussianBlur stdDeviation="4"/>
      <feComposite in2="hardAlpha" operator="out"/>
      <feColorMatrix values="0 0 0 0 0 0 0 0 0 0 0 0 0 0 0 0 0 0 0.05 0"/>
      <feBlend in2="BackgroundImageFix" result="effect1_dropShadow"/>
      <feBlend in="SourceGraphic" in2="effect1_dropShadow" result="shape"/>
    </filter>
    <filter id="filter4_d" x="172.866" y="283.731" width="68" height="68" filterUnits="userSpaceOnUse" color-interpolation-filters="sRGB">
      <feFlood flood-opacity="0" result="BackgroundImageFix"/>
      <feColorMatrix in="SourceAlpha" values="0 0 0 0 0 0 0 0 0 0 0 0 0 0 0 0 0 0 127 0" result="hardAlpha"/>
      <feOffset dy="2"/>
      <feGaussianBlur stdDeviation="4"/>
      <feComposite in2="hardAlpha" operator="out"/>
      <feColorMatrix values="0 0 0 0 0 0 0 0 0 0 0 0 0 0 0 0 0 0 0.05 0"/>
      <feBlend in2="BackgroundImageFix" result="effect1_dropShadow"/>
      <feBlend in="SourceGraphic" in2="effect1_dropShadow" result="shape"/>
    </filter>
  </defs>
</svg>