<svg width="443" height="384" viewBox="0 0 443 384" fill="none" xmlns="http://www.w3.org/2000/svg">
  <g clip-path="url(#a)" fill="#EC585D" fill-opacity=".5">
    <path d="m265.88 127.79 55.333 31.945-55.331 31.946h3.124l55.094-31.809.238-.137-55.333-31.945L442.666 27.527v-1.806L266.118 127.653l-.238.137Zm-36.885 0 55.334 31.945-55.332 31.946h3.125l55.093-31.809.238-.137-55.333-31.945L442.666 6.229V4.423l-213.433 123.23-.238.137Zm18.443 0 55.333 31.945-55.338 31.946h3.131l55.094-31.809.238-.137-55.333-31.945L442.666 16.88v-1.81l-194.99 112.583-.238.137Zm36.89 0 55.333 31.945-55.331 31.946h3.125l55.094-31.809.238-.137-55.334-31.945 155.213-89.611v-1.812l-158.1 91.286-.238.137Zm36.885 0 55.334 31.945-55.332 31.946h3.125l55.094-31.809.237-.137-55.333-31.945 110.429-63.755 7.899-4.559v-1.81l-121.215 69.987-.238.137Zm-18.442 0 55.333 31.945-55.332 31.946h3.125l55.094-31.809.238-.137-55.333-31.945 136.77-78.965v-1.806l-139.657 80.634-.238.137ZM435.007 191.681l7.659-4.422v-1.805l-10.789 6.227h3.13Zm-95.349 0h3.126l99.882-57.663v-1.806l-102.767 59.33-.241.139Zm58.459 0 44.549-25.719v-1.806l-47.675 27.525h3.126Zm-18.443 0 62.992-36.366v-1.805l-66.123 38.171h3.131Zm36.891 0 26.101-15.073v-1.806l-29.232 16.879h3.131Zm-58.464 0h3.13l81.435-47.017v-1.806l-84.325 48.684-.24.139Z"/>
  </g>
  <g clip-path="url(#b)" fill="#EC585D" fill-opacity=".5">
    <path d="M305.896 191.682h-3.126L221.333 238.7v1.805l84.326-48.686.237-.137Zm-76.904 0-7.659 4.422v1.805l10.786-6.227h-3.127Zm95.349 0h-3.126l-99.882 57.667v1.805l102.77-59.335.238-.137Zm-58.46 0-44.548 25.72v1.805l47.675-27.525h-3.127Zm18.445 0-62.993 36.369v1.805l66.119-38.174h-3.126Zm-36.889 0-26.104 15.071v1.805l29.23-16.876h-3.126ZM321.216 383.363h3.126l54.158-31.271.137-.08-.781-1.354-56.64 32.705Zm48.203-36.674-.782-1.354-65.868 38.028h3.126l63.386-36.594.138-.08Zm-36.891-21.298-.781-1.353-102.515 59.187-.239.138h3.126l100.271-57.892.138-.08Zm18.443 10.652-.782-1.354-84.067 48.536-.238.138h3.125l81.824-47.24.138-.08Zm9.223 5.322-.781-1.353-75.087 43.351h3.126l72.605-41.918.137-.08Zm-18.442-10.651-.781-1.354-93.297 53.865-.239.138h3.127l91.052-52.57.138-.079ZM232.118 255.575l110.429-63.756.237-.137h-3.125l-110.428 63.756-.238.137 157.95 91.194.39.225 55.333-31.947v-1.805l-55.333 31.947-155.215-89.614Zm18.445 0 110.428-63.756.238-.137h-3.126l-110.428 63.756-.238.137 139.506 80.545.39.225 55.333-31.947v-1.805l-55.333 31.947-136.77-78.965Zm18.444 0 110.428-63.756.238-.137h-3.126L266.12 255.438l-.238.137 121.061 69.895.39.226 55.333-31.948v-1.804l-55.333 31.947-118.326-68.316Zm55.333 0 110.429-63.756.238-.137h-3.126l-110.428 63.756-.238.137 65.728 37.948.39.226 55.333-31.947v-1.805l-55.333 31.947-62.993-36.369Zm-18.444 0 110.428-63.756.238-.137h-3.126l-110.427 63.756-.239.137 84.173 48.597.39.226 55.333-31.947v-1.805l-55.333 31.947-81.437-47.018Zm-18.444 0 110.428-63.756.238-.137h-3.126l-110.428 63.756-.238.137 102.617 59.246.39.226 55.333-31.947v-1.805l-55.333 31.947-99.881-57.667Z"/>
  </g>
  <g clip-path="url(#c)">
    <path d="m166.001 240.504-55.334-31.95-81.438 47.021 110.429 63.756.238.138-110.672 63.894h-3.126l110.673-63.894-110.429-63.756-.238-.138 84.174-48.599.389-.222L166 238.698l55.333-31.944v1.805l-54.944 31.716-.388.229ZM166 229.851l-55.333-31.943-99.88 57.667 110.428 63.756.238.138-110.678 63.894h-3.12l110.673-63.894L7.899 255.713l-.238-.138 102.617-59.251.389-.221L166 228.051l55.333-31.949v1.805l-54.944 31.722-.389.222Zm0 21.298-55.333-31.944-62.995 36.37L158.1 319.331l.238.138-110.672 63.894H44.54l110.674-63.894-110.43-63.756-.237-.138 65.731-37.953.389-.222L166 249.344l55.333-31.944v1.805l-54.944 31.721-.389.223Zm.001 31.951-55.334-31.951-7.662 4.426 110.429 63.756.238.138-110.673 63.894h-3.125l110.673-63.894-110.429-63.756-.238-.138 10.787-6.231L166 281.293l55.333-31.943v1.805l-54.942 31.715-.39.23Zm0-21.298-55.334-31.95-44.547 25.723 110.428 63.756.238.138-110.677 63.894h-3.12l110.672-63.894-110.428-63.756-.238-.138 47.283-27.301.389-.222L166 259.995l55.333-31.944v1.806l-54.942 31.715-.39.23ZM166 272.447l-55.333-31.944-26.105 15.072 110.429 63.756.238.138-110.672 63.894h-3.126l110.673-63.894-110.429-63.756-.237-.138 29.229-16.877L166 270.642l55.333-31.944v1.805l-54.944 31.721-.389.223Z" fill="#EC585D" fill-opacity=".5"/>
  </g>
  <defs>
    <clipPath id="a">
      <path fill="#fff" transform="translate(221.333)" d="M0 0h221.333v191.681H0z"/>
    </clipPath>
    <clipPath id="b">
      <path fill="#fff" transform="translate(221.333 191.682)" d="M0 0h221.333v191.681H0z"/>
    </clipPath>
    <clipPath id="c">
      <path fill="#fff" transform="translate(0 191.682)" d="M0 0h221.333v191.681H0z"/>
    </clipPath>
  </defs>
</svg>