<svg width="904" height="549" viewBox="0 0 904 549"  fill="none" xmlns="http://www.w3.org/2000/svg"><path d="M477.851 492.232l-159.002-91.765m105.949 122.406L318.849 461.67l105.949 61.203zm-105.949-81.656l123.581 71.39-123.581-71.39zm0-20.375l141.292 81.578-141.292-81.578zM301.216 512.607l-70.293 40.829M283.506 502.42l-88.161 51.016M318.849 400.467L1 583.998M318.848 420.842L18.632 594.185M318.849 441.216L36.264 604.372M318.849 461.67L53.975 614.638M318.849 339.264L905.019.805M424.798 318.89l515.564-297.63-515.564 297.63zM922.73 11.071L354.191 339.264 922.73 11.071zM442.509 329.077l70.607-40.75M460.141 339.264l70.685-40.75M495.483 339.264l52.975-30.563M742.726 380.092l-70.607 40.75M707.461 380.092l-53.053 30.563M778.068 380.092l-88.318 50.937M813.411 380.092l-106.028 61.203M848.675 380.092l-123.582 71.391M742.725 461.67l141.292-81.578M993.337 51.821l-127.03 73.35m91.766-93.725l-127.03 73.35 127.03-73.35zm-109.398 83.537l127.03-73.35-127.03 73.35zM495.406 604.373l123.66-71.391m-211.899 20.454l123.66-71.391-123.66 71.391zm17.632 10.187l123.66-71.391-123.66 71.391zm17.71 10.187l123.66-71.39-123.66 71.39zm17.632 10.188l123.66-71.391-123.66 71.391zm17.632 10.187l123.661-71.312-123.661 71.312zM566.169 278.139l176.556 101.953M530.826 278.139L707.46 380.092M601.433 278.139l176.635 101.953M636.775 278.139L813.41 380.092M672.118 278.139l176.557 101.953M707.382 278.139l176.635 101.953M424.799 339.264l-17.633-10.188-17.632 10.188 17.632 10.187 17.633-10.187zM442.509 329.076l-17.711-10.187M424.798 359.717l17.711-10.266M336.559 492.232l-17.711-10.187-17.632 10.187 17.632 10.188 17.711-10.188zM336.48 512.607l17.711-10.187M407.166 533.061l-52.975-30.641M389.534 543.248l-53.054-30.641M283.506 502.42l17.711 10.187M990.045 278.139L813.41 176.186m176.635 142.703l-159.003-91.765 159.003 91.765zm0-20.375l-141.292-81.578 141.292 81.578zm0-81.578L813.41 114.983l176.635 101.953zm0 20.375L813.41 135.358l176.635 101.953zm0 20.375L813.41 155.733l176.635 101.953zM813.41 176.108L636.775 278.139M778.068 216.936l-105.95 61.203M795.7 227.124l-88.318 51.015M601.433 278.139L813.41 155.733M813.411 135.358L566.169 278.139M530.826 278.139L813.41 114.983M795.7 227.124l-17.633-10.188M831.042 227.124l17.633-10.188M831.043 206.748l-17.632-10.187-17.711 10.187 17.711 10.188 17.632-10.188zM795.778 553.435L442.509 349.451M831.042 553.435L460.141 339.264M866.385 553.435L495.483 339.264M760.436 553.435L424.798 359.717M725.093 553.435L354.191 339.264M689.75 553.435L318.849 339.264" stroke="#F1565C" stroke-width="1.5" stroke-linecap="round" stroke-linejoin="round"/></svg>