<svg width="404" height="285" viewBox="0 0 404 285" fill="none" xmlns="http://www.w3.org/2000/svg"><path d="M119.255 266.536c.066.066.197.131.197.196.131.262.065.524-.197.654l-.262.131L147.546 284h1.965l-30.256-17.464c.066 0 .066 0 0 0z" fill="url(#paint0_linear)"/><path d="M118.862 266.537c.066 0 .066 0 .132-.066-.066.066-.066.066-.132.066z" fill="url(#paint1_linear)"/><path d="M119.255 232.524a.898.898 0 01.262.197c.131.261.065.523-.196.654l-.262.131L206.617 284h1.965l-89.327-51.476c.066 0 0 0 0 0z" fill="url(#paint2_linear)"/><path d="M118.862 232.525c.066 0 .066-.066.132-.066-.066 0-.066.066-.132.066z" fill="url(#paint3_linear)"/><path d="M119.255 215.453c.066.066.197.131.262.196.131.262.065.524-.196.654l-.262.131 117.093 67.501h1.965l-118.862-68.482c.066.066 0 .066 0 0z" fill="url(#paint4_linear)"/><path d="M119.255 249.53c.066.066.197.131.262.196.131.262.065.524-.196.655l-.262.13L177.147 284h1.965l-59.857-34.47c.066 0 0 0 0 0z" fill="url(#paint5_linear)"/><path d="M118.862 215.519c.066 0 .066 0 .132-.066-.066 0-.066 0-.132.066z" fill="url(#paint6_linear)"/><path d="M118.862 249.531c.066 0 .066-.066.132-.066-.066.066-.066.066-.132.066z" fill="url(#paint7_linear)"/><path d="M119.189 266.536c.066 0 .066 0 .132.066-.066-.066-.132-.066-.132-.066z" fill="url(#paint8_linear)"/><path d="M118.796 267.386c-.262-.13-.327-.457-.196-.654l.196-.196h-.065L88.475 284h1.965l28.553-16.483-.197-.131z" fill="url(#paint9_linear)"/><path d="M118.666 266.732c-.131.262-.066.524.196.654l.262.131.262-.131c.262-.13.327-.457.196-.654l-.196-.196c-.066 0-.066 0-.131-.065h-.131c-.065 0-.065 0-.131.065a.706.706 0 00-.327.196z" fill="url(#paint10_linear)"/><path d="M118.666 266.732c-.131.262-.066.524.196.654l.262.131.262-.131c.262-.13.327-.457.196-.654l-.196-.196c-.066 0-.066 0-.131-.065h-.131c-.065 0-.065 0-.131.065a.706.706 0 00-.327.196z" fill="url(#paint11_linear)"/><path d="M118.797 250.381c-.262-.131-.328-.458-.197-.655l.197-.196h-.066L58.94 284h1.965l58.088-33.489-.196-.13z" fill="url(#paint12_linear)"/><path d="M119.189 249.465h.065c0 .065-.065.065-.065 0z" fill="url(#paint13_linear)"/><path d="M118.796 233.375c-.262-.131-.327-.458-.196-.654.065-.066.065-.131.131-.131L29.535 284H31.5l87.558-50.494-.262-.131z" fill="url(#paint14_linear)"/><path d="M118.797 216.368c-.262-.13-.328-.457-.197-.654l.197-.196h-.066L0 284h1.965l117.094-67.501-.262-.131z" fill="url(#paint15_linear)"/><path d="M118.666 249.726c-.131.262-.066.524.196.655l.262.13.262-.13c.262-.131.327-.458.196-.655-.065-.13-.131-.13-.262-.196h-.261c-.066 0-.066 0-.131.066-.131 0-.262.065-.262.13z" fill="url(#paint16_linear)"/><path d="M118.666 249.726c-.131.262-.066.524.196.655l.262.13.262-.13c.262-.131.327-.458.196-.655-.065-.13-.131-.13-.262-.196h-.261c-.066 0-.066 0-.131.066-.131 0-.262.065-.262.13z" fill="url(#paint17_linear)"/><path d="M118.797 233.375l.262.131.262-.131c.262-.131.327-.458.196-.654-.065-.131-.131-.197-.262-.197h-.196-.066c-.065 0-.065 0-.131.066 0 0-.065 0-.065.065l-.131.131c-.131.131-.066.458.131.589z" fill="url(#paint18_linear)"/><path d="M118.797 233.375l.262.131.262-.131c.262-.131.327-.458.196-.654-.065-.131-.131-.197-.262-.197h-.196-.066c-.065 0-.065 0-.131.066 0 0-.065 0-.065.065l-.131.131c-.131.131-.066.458.131.589z" fill="url(#paint19_linear)"/><path d="M118.666 215.649c-.131.262-.066.524.196.654l.262.131.262-.131c.262-.13.327-.457.196-.654a.915.915 0 00-.262-.196h-.261c-.066 0-.066 0-.131.066-.131 0-.262.065-.262.13z" fill="url(#paint20_linear)"/><path d="M118.666 215.649c-.131.262-.066.524.196.654l.262.131.262-.131c.262-.13.327-.457.196-.654a.915.915 0 00-.262-.196h-.261c-.066 0-.066 0-.131.066-.131 0-.262.065-.262.13z" fill="url(#paint21_linear)"/><path d="M325.347 114.136l-.064-.065s.064 0 .064.065zM325.938 114.202c-.066.065-.131.065-.262.065s-.197-.065-.328-.13l.066.065 78.521 45.262v-1.112l-77.212-44.542-.785.392zM325.414 113.416l.064-.064-.064.064zM296.402 114.202c-.066.065-.131.065-.262.065-.066 0-.131 0-.262-.065l108.056 62.333v-1.111L297.188 113.81l-.786.392zM295.812 113.483c0-.066.066-.066.132-.066-.066 0-.066 0-.132.066zM295.747 113.548v.065-.065c.065 0 0 0 0 0z" fill="var(--boundary, #ec585d)"/><path d="M295.944 114.203c-.066-.066-.132-.066-.132-.132 0 .066.066.132.132.132zM295.748 114.007c0-.066 0-.066-.066-.132.066.066.066.066.066.132zM354.883 113.483c0-.066.066-.066.132-.066-.066 0-.132 0-.132.066zM355.473 114.202c-.066.065-.131.065-.262.065-.066 0-.131 0-.262-.065l48.985 28.256v-1.112l-47.806-27.536-.655.392zM354.949 114.203c-.065-.066-.131-.066-.131-.132.066.066.066.132.131.132zM354.753 114.007c0-.066 0-.066-.066-.132.066.066.066.066.066.132zM385.008 114.202c-.065.065-.131.065-.262.065s-.196-.065-.327-.13l.065.065L404 125.452v-1.112l-18.271-10.53-.721.392zM384.484 113.352c-.065.065-.131.065-.196.195v.065c.065-.065.131-.195.196-.26zM384.353 114.136l-.065-.065c.065 0 .065 0 .065.065z" fill="var(--boundary, #ec585d)"/><path d="M222.793 156.586l-.197.196 59.071-34.012c.262-.131.328-.458.197-.654-.131-.262-.459-.327-.655-.196L222.4 155.801l.262.131c.196.131.262.458.131.654z" fill="url(#paint22_linear)"/><path d="M222.335 156.848c-.066 0-.132 0-.197-.066.065.066.131.066.197.066z" fill="url(#paint23_linear)"/><path d="M207.207 147.559l.064-.065c0 .065-.064.065-.064.065z" fill="url(#paint24_linear)"/><path d="M207.337 147.429c.131-.131.328-.131.524 0l.721.392L404 35.189v-1.177L207.337 147.429z" fill="url(#paint25_linear)"/><path d="M148.201 164.63c0-.065.065-.065.065-.065-.065 0-.065 0-.065.065z" fill="url(#paint26_linear)"/><path d="M148.136 165.089c0 .064.064.064 0 0z" fill="url(#paint27_linear)"/><path d="M148.136 164.959v-.132c-.066.066 0 .132 0 .132z" fill="url(#paint28_linear)"/><path d="M118.6 164.763c0-.066 0-.066.066-.132-.066.066-.066.132-.066.132z" fill="url(#paint29_linear)"/><path d="M148.136 164.763c0-.066 0-.066.066-.132-.066.066-.066.132-.066.132z" fill="url(#paint30_linear)"/><path d="M118.665 165.089c0 .064 0 .064 0 0-.065 0-.065 0 0 0z" fill="url(#paint31_linear)"/><path d="M118.796 164.5c.131-.131.328-.131.524 0l.721.393L404 1.112V0L118.796 164.5c0-.065 0-.065 0 0z" fill="url(#paint32_linear)"/><path d="M148.332 164.435c.131-.066.327-.066.524 0l.72.392L404 18.183v-1.177L148.332 164.435z" fill="url(#paint33_linear)"/><path d="M118.666 164.63c0-.065.064-.065.064-.065s-.064 0-.064.065z" fill="url(#paint34_linear)"/><path d="M222.203 172.937s.065 0 .065-.065c0 .065-.065.065-.065.065zM222.596 172.938c.066.065.197.13.262.196.131.261.066.523-.196.654l-.262.131L404 278.636v-1.112L222.596 172.938z" fill="var(--boundary, #ec585d)"/><path d="M236.676 164.763c0-.066 0-.066.066-.132-.066.066-.066.132-.066.132z" fill="url(#paint35_linear)"/><path d="M236.741 165.089c0 .064 0 .064 0 0-.064 0-.064 0 0 0z" fill="url(#paint36_linear)"/><path d="M237.396 164.435l.721.392 58.285-33.619c.262-.131.327-.458.196-.654-.131-.262-.458-.327-.655-.197l-59.07 34.012c.131 0 .327 0 .523.066z" fill="url(#paint37_linear)"/><path d="M236.742 164.63c0-.065.064-.065.064-.065s-.064 0-.064.065z" fill="url(#paint38_linear)"/><path d="M237.397 165.285c-.066.065-.131.065-.262.065s-.328-.065-.393-.196c.065.066.065.131.196.196L404 261.631v-1.112l-165.883-95.626-.72.392z" fill="var(--boundary, #ec585d)"/><path d="M237.397 165.285l.72-.392-.72-.393c-.197-.065-.393-.065-.524 0 0 0-.066 0-.066.066l-.065.065v.065c0 .066 0 .066-.066.131v.262s0 .065.066.065c.065.131.262.197.393.197.065 0 .196 0 .262-.066z" fill="var(--boundary, #ec585d)"/><path d="M266.932 164.435l.72.392 43.55-25.116c.262-.131.328-.458.197-.654-.131-.262-.458-.327-.655-.197l-44.27 25.509c.065 0 .262 0 .458.066z" fill="url(#paint39_linear)"/><path d="M266.212 164.763c0-.066 0-.066.066-.132-.066.066-.066.132-.066.132z" fill="url(#paint40_linear)"/><path d="M266.277 164.632c0-.066.066-.066.066-.132-.066.066-.066.066-.066.132z" fill="url(#paint41_linear)"/><path d="M266.212 165.089c.064.064.064.064 0 0z" fill="url(#paint42_linear)"/><path d="M266.932 165.285c-.065.065-.131.065-.262.065s-.327-.065-.393-.196c.066.066.066.131.131.196L404 244.625v-1.112l-136.347-78.62-.721.392z" fill="var(--boundary, #ec585d)"/><path d="M266.932 165.285l.721-.392-.721-.393c-.196-.13-.393-.065-.524 0l-.065.066s-.066.065-.066.131v.065c0 .065-.065.065-.065.131v.261s0 .066.065.066c.066.131.262.196.393.196.066-.065.131-.065.262-.131z" fill="var(--boundary, #ec585d)"/><path d="M207.272 181.571l.065-.065s-.065 0-.065.065z" fill="url(#paint43_linear)"/><path d="M207.207 182.096c0-.066 0-.066-.066-.132 0 .066 0 .066.066.132z" fill="url(#paint44_linear)"/><path d="M207.861 182.291c-.065.065-.131.065-.262.065-.196 0-.327-.065-.392-.261.065.065.065.13.196.196L383.764 284h1.965L208.582 181.898l-.721.393z" fill="url(#paint45_linear)"/><path d="M148.856 165.285c-.065.065-.131.065-.262.065s-.327-.065-.393-.196c.066.066.066.131.131.131L354.229 284h1.964L149.576 164.893l-.72.392z" fill="url(#paint46_linear)"/><path d="M148.201 164.631c-.065 0-.065 0 0 0-.065.131-.065.131-.065.196v.262s0 .065.065.065c.066.131.262.197.393.197.066 0 .197 0 .262-.066l.72-.392-.72-.393c-.196-.065-.393-.065-.524 0l-.065.066c-.066 0-.066 0-.066.065z" fill="url(#paint47_linear)"/><path d="M148.201 164.631c-.065 0-.065 0 0 0-.065.131-.065.131-.065.196v.262s0 .065.065.065c.066.131.262.197.393.197.066 0 .197 0 .262-.066l.72-.392-.72-.393c-.196-.065-.393-.065-.524 0l-.065.066c-.066 0-.066 0-.066.065z" fill="url(#paint48_linear)"/><path d="M119.32 165.285c-.065.065-.131.065-.262.065s-.327-.065-.392-.196c.065.066.065.131.131.131L324.693 284h1.965L120.041 164.893l-.721.392z" fill="url(#paint49_linear)"/><path d="M118.797 164.5s-.066 0 0 0l-.131.131v.066c0 .065 0 .065-.066.13v.262s0 .066.066.066c.065.13.262.196.393.196.065 0 .196 0 .261-.066l.721-.392-.721-.393c-.196-.13-.392-.13-.523 0z" fill="url(#paint50_linear)"/><path d="M118.797 164.5s-.066 0 0 0l-.131.131v.066c0 .065 0 .065-.066.13v.262s0 .066.066.066c.065.13.262.196.393.196.065 0 .196 0 .261-.066l.721-.392-.721-.393c-.196-.13-.392-.13-.523 0z" fill="url(#paint51_linear)"/><path d="M384.418 114.201l-.064-.065c.064 0 .064 0 .064.065zM384.484 113.352a.557.557 0 01.459 0l.72.458 18.272-10.531v-1.112l-19.451 11.185c.066 0 .066 0 0 0z" fill="var(--boundary, #ec585d)"/><path d="M385.008 114.202l.721-.392-.721-.458a.554.554 0 00-.458 0c-.131.065-.196.131-.196.261v.458c0 .066.065.066.065.066l.065.065a.505.505 0 00.328.131c0-.066.131-.066.196-.131z" fill="var(--boundary, #ec585d)"/><path d="M296.598 283.804c-.131-.262-.458-.327-.654-.197l-.721.393h1.441c0-.066 0-.131-.066-.196z" fill="url(#paint52_linear)"/><path d="M354.818 113.547c0-.065.064-.065 0 0 .064-.065 0-.065 0 0zM354.949 113.417c.131-.066.327-.131.524 0l.72.458L404 86.338v-1.112l-49.051 28.191c0-.066 0 0 0 0z" fill="var(--boundary, #ec585d)"/><path d="M355.473 114.202l.72-.458-.72-.458c-.131-.065-.328-.065-.524 0-.066 0-.066.066-.131.066l-.065.065c0 .066-.066.066-.066.131v.262c0 .065 0 .065.066.13 0 0 0 .066.065.066.065.065.065.131.131.131.065.065.131.065.262.065.131.065.196.065.262 0zM325.479 113.351a.562.562 0 01.458 0l.721.458L404 69.201V68.09l-78.521 45.262zM325.413 114.201l-.065-.065s.065 0 .065.065zM325.283 113.549c0-.066.066-.066.066-.132 0 .066 0 .066-.066.132z" fill="var(--boundary, #ec585d)"/><path d="M325.938 114.202l.72-.392-.72-.458a.557.557 0 00-.459 0s-.065 0-.065.065c-.066 0-.066.066-.066.131 0 0 0 .065-.065.065v.393l.065.065.066.066a.5.5 0 00.327.13c.066 0 .131 0 .197-.065zM295.943 113.416c.131-.065.328-.13.524 0l.721.458L404 52.26v-1.112l-108.057 62.268c0-.065 0 0 0 0z" fill="var(--boundary, #ec585d)"/><path d="M296.402 114.202l.72-.458-.72-.458c-.131-.065-.327-.065-.524 0-.065 0-.065.066-.131.066l-.065.065c0 .066-.066.066-.066.131v.262c0 .065 0 .065.066.13 0 0 0 .066.065.066.066.065.066.131.131.131.066.065.131.065.262.065.131.065.197.065.262 0zM177.867 165.285l14.735 8.503c.066.066.131.066.262.066s.197 0 .262-.066l14.735-8.503c.131-.065.262-.261.262-.392s-.065-.327-.262-.393l-14.735-8.503c-.131-.065-.327-.065-.524 0l-14.735 8.503c-.131.066-.262.262-.262.393s.066.327.262.392zm14.997-8.372l13.753 7.914-13.753 7.915-13.752-7.915 13.752-7.914zM207.599 148.345c-.065 0-.196 0-.262-.066l14.735 8.503-.196-.196c-.131-.262-.066-.523.196-.654l.262-.131-13.752-7.914-.721.392c-.065.066-.131.066-.262.066z" fill="var(--boundary, #ec585d)"/><path d="M207.404 148.281c-.066-.067-.132-.067-.132-.133 0 0 0 .066.132.133zM207.272 147.493l.065-.064c0 .064-.065.064-.065.064zM222.597 156.782c-.066.066-.132.066-.197.066.065 0 .131 0 .197-.066z" fill="var(--boundary, #ec585d)"/><path d="M221.941 156.586l.197.196c.065.065.131.065.196.065h.131c.066 0 .131 0 .197-.065l.196-.196c.131-.262.066-.524-.196-.654l-.262-.131-.262.131c-.262.13-.328.457-.197.654zM207.337 147.429l-.065.065-.066.066s0 .065-.065.065v.262s0 .065.065.065l.197.196c.065.066.131.066.262.066.065 0 .196 0 .262-.066l.72-.392-.72-.392a.823.823 0 00-.59.065zM207.207 181.636l.064-.065s-.064 0-.064.065zM207.861 181.441l.721.392 13.752-7.914-.262-.131c-.262-.131-.327-.458-.196-.654a.88.88 0 01.262-.196h-.066l-14.735 8.503c.131-.066.328-.066.524 0zM222.465 172.872c.065 0 .065 0 .065.065l-.065-.065z" fill="var(--boundary, #ec585d)"/><path d="M221.941 173.134c-.131.261-.065.523.197.654l.262.131.262-.131c.262-.131.327-.458.196-.654a.898.898 0 00-.262-.197s-.065 0-.065-.065h-.131c-.066 0-.066 0-.066.065-.262.066-.327.131-.393.197zM207.861 182.291l.72-.392-.72-.393c-.196-.065-.393-.065-.524 0l-.065.065-.066.066s0 .065-.065.065v.262c0 .065 0 .065.065.131v.065c.066.131.262.262.393.262.131-.066.197-.066.262-.131z" fill="var(--boundary, #ec585d)"/><defs><linearGradient id="paint0_linear" x1="104.314" y1="223.866" x2="171.106" y2="339.696" gradientUnits="userSpaceOnUse"><stop offset=".452" stop-color="var(--boundary, #ec585d)"/><stop offset="1" stop-color="#F1565C" stop-opacity="0"/></linearGradient><linearGradient id="paint1_linear" x1="96.627" y1="227.86" x2="164.114" y2="344.616" gradientUnits="userSpaceOnUse"><stop offset=".452" stop-color="var(--boundary, #ec585d)"/><stop offset="1" stop-color="#F1565C" stop-opacity="0"/></linearGradient><linearGradient id="paint2_linear" x1="133.829" y1="206.846" x2="200.621" y2="322.677" gradientUnits="userSpaceOnUse"><stop offset=".452" stop-color="var(--boundary, #ec585d)"/><stop offset="1" stop-color="#F1565C" stop-opacity="0"/></linearGradient><linearGradient id="paint3_linear" x1="111.479" y1="219.579" x2="179.037" y2="336.376" gradientUnits="userSpaceOnUse"><stop offset=".452" stop-color="var(--boundary, #ec585d)"/><stop offset="1" stop-color="#F1565C" stop-opacity="0"/></linearGradient><linearGradient id="paint4_linear" x1="148.586" y1="198.337" x2="215.378" y2="314.168" gradientUnits="userSpaceOnUse"><stop offset=".452" stop-color="var(--boundary, #ec585d)"/><stop offset="1" stop-color="#F1565C" stop-opacity="0"/></linearGradient><linearGradient id="paint5_linear" x1="119.069" y1="215.357" x2="185.861" y2="331.188" gradientUnits="userSpaceOnUse"><stop offset=".452" stop-color="var(--boundary, #ec585d)"/><stop offset="1" stop-color="#F1565C" stop-opacity="0"/></linearGradient><linearGradient id="paint6_linear" x1="118.912" y1="215.448" x2="186.493" y2="332.258" gradientUnits="userSpaceOnUse"><stop offset=".452" stop-color="var(--boundary, #ec585d)"/><stop offset="1" stop-color="#F1565C" stop-opacity="0"/></linearGradient><linearGradient id="paint7_linear" x1="104.052" y1="223.707" x2="171.61" y2="340.503" gradientUnits="userSpaceOnUse"><stop offset=".452" stop-color="var(--boundary, #ec585d)"/><stop offset="1" stop-color="#F1565C" stop-opacity="0"/></linearGradient><linearGradient id="paint8_linear" x1="51.868" y1="383.418" x2="119.43" y2="266.628" gradientUnits="userSpaceOnUse"><stop stop-color="#F1565C" stop-opacity=".2"/><stop offset=".54" stop-color="var(--boundary, #ec585d)"/></linearGradient><linearGradient id="paint9_linear" x1="44.795" y1="377.901" x2="111.572" y2="262.097" gradientUnits="userSpaceOnUse"><stop stop-color="#F1565C" stop-opacity=".2"/><stop offset=".54" stop-color="var(--boundary, #ec585d)"/></linearGradient><linearGradient id="paint10_linear" x1="96.687" y1="228.264" x2="163.478" y2="344.093" gradientUnits="userSpaceOnUse"><stop offset=".452" stop-color="var(--boundary, #ec585d)"/><stop offset="1" stop-color="#F1565C" stop-opacity="0"/></linearGradient><linearGradient id="paint11_linear" x1="52.42" y1="382.295" x2="119.195" y2="266.492" gradientUnits="userSpaceOnUse"><stop stop-color="#F1565C" stop-opacity=".2"/><stop offset=".54" stop-color="var(--boundary, #ec585d)"/></linearGradient><linearGradient id="paint12_linear" x1="7.88" y1="407.715" x2="118.866" y2="215.242" gradientUnits="userSpaceOnUse"><stop offset=".375" stop-color="#F1565C" stop-opacity=".2"/><stop offset=".808" stop-color="var(--boundary, #ec585d)"/></linearGradient><linearGradient id="paint13_linear" x1="24.019" y1="414.395" x2="93.55" y2="293.973" gradientUnits="userSpaceOnUse"><stop offset=".375" stop-color="#F1565C" stop-opacity=".2"/><stop offset=".808" stop-color="var(--boundary, #ec585d)"/></linearGradient><linearGradient id="paint14_linear" x1="-6.879" y1="399.205" x2="104.107" y2="206.732" gradientUnits="userSpaceOnUse"><stop offset=".375" stop-color="#F1565C" stop-opacity=".2"/><stop offset=".808" stop-color="var(--boundary, #ec585d)"/></linearGradient><linearGradient id="paint15_linear" x1="-21.644" y1="390.69" x2="89.343" y2="198.218" gradientUnits="userSpaceOnUse"><stop offset=".375" stop-color="#F1565C" stop-opacity=".2"/><stop offset=".808" stop-color="var(--boundary, #ec585d)"/></linearGradient><linearGradient id="paint16_linear" x1="104.063" y1="224.01" x2="170.857" y2="339.842" gradientUnits="userSpaceOnUse"><stop offset=".452" stop-color="var(--boundary, #ec585d)"/><stop offset="1" stop-color="#F1565C" stop-opacity="0"/></linearGradient><linearGradient id="paint17_linear" x1="22.882" y1="416.37" x2="133.873" y2="223.896" gradientUnits="userSpaceOnUse"><stop offset=".375" stop-color="#F1565C" stop-opacity=".2"/><stop offset=".808" stop-color="var(--boundary, #ec585d)"/></linearGradient><linearGradient id="paint18_linear" x1="111.442" y1="219.756" x2="178.235" y2="335.587" gradientUnits="userSpaceOnUse"><stop offset=".452" stop-color="var(--boundary, #ec585d)"/><stop offset="1" stop-color="#F1565C" stop-opacity="0"/></linearGradient><linearGradient id="paint19_linear" x1="15.502" y1="412.113" x2="126.49" y2="219.638" gradientUnits="userSpaceOnUse"><stop offset=".375" stop-color="#F1565C" stop-opacity=".2"/><stop offset=".808" stop-color="var(--boundary, #ec585d)"/></linearGradient><linearGradient id="paint20_linear" x1="118.822" y1="215.5" x2="185.617" y2="331.332" gradientUnits="userSpaceOnUse"><stop offset=".452" stop-color="var(--boundary, #ec585d)"/><stop offset="1" stop-color="#F1565C" stop-opacity="0"/></linearGradient><linearGradient id="paint21_linear" x1="8.122" y1="407.859" x2="119.113" y2="215.385" gradientUnits="userSpaceOnUse"><stop offset=".375" stop-color="#F1565C" stop-opacity=".2"/><stop offset=".808" stop-color="var(--boundary, #ec585d)"/></linearGradient><linearGradient id="paint22_linear" x1="266.996" y1="113.431" x2="237.039" y2="165.382" gradientUnits="userSpaceOnUse"><stop stop-color="#F1565C" stop-opacity=".2"/><stop offset=".729" stop-color="var(--boundary, #ec585d)"/></linearGradient><linearGradient id="paint23_linear" x1="252.286" y1="104.778" x2="222.238" y2="156.848" gradientUnits="userSpaceOnUse"><stop stop-color="#F1565C" stop-opacity=".2"/><stop offset=".729" stop-color="var(--boundary, #ec585d)"/></linearGradient><linearGradient id="paint24_linear" x1="456.606" y1="-284.465" x2="177.718" y2="198.469" gradientUnits="userSpaceOnUse"><stop stop-color="#F1565C" stop-opacity=".2"/><stop offset=".447" stop-color="#F15258" stop-opacity=".3"/><stop offset="1" stop-color="var(--boundary, #ec585d)"/></linearGradient><linearGradient id="paint25_linear" x1="509.22" y1="-260.8" x2="227.412" y2="227.912" gradientUnits="userSpaceOnUse"><stop stop-color="#F1565C" stop-opacity=".2"/><stop offset=".447" stop-color="#F15258" stop-opacity=".3"/><stop offset="1" stop-color="var(--boundary, #ec585d)"/></linearGradient><linearGradient id="paint26_linear" x1="419.373" y1="-305.424" x2="140.353" y2="177.51" gradientUnits="userSpaceOnUse"><stop stop-color="#F1565C" stop-opacity=".2"/><stop offset=".447" stop-color="#F15258" stop-opacity=".3"/><stop offset="1" stop-color="var(--boundary, #ec585d)"/></linearGradient><linearGradient id="paint27_linear" x1="418.964" y1="-303.685" x2="221.333" y2="38.818" gradientUnits="userSpaceOnUse"><stop stop-color="#F1565C" stop-opacity=".2"/><stop offset=".447" stop-color="#F15258" stop-opacity=".3"/><stop offset="1" stop-color="var(--boundary, #ec585d)"/></linearGradient><linearGradient id="paint28_linear" x1="424.611" y1="-315.196" x2="139.515" y2="177.379" gradientUnits="userSpaceOnUse"><stop stop-color="#F1565C" stop-opacity=".2"/><stop offset=".447" stop-color="#F15258" stop-opacity=".3"/><stop offset="1" stop-color="var(--boundary, #ec585d)"/></linearGradient><linearGradient id="paint29_linear" x1="402.732" y1="-328.122" x2="117.776" y2="164.696" gradientUnits="userSpaceOnUse"><stop stop-color="#F1565C" stop-opacity=".2"/><stop offset=".447" stop-color="#F15258" stop-opacity=".3"/><stop offset="1" stop-color="var(--boundary, #ec585d)"/></linearGradient><linearGradient id="paint30_linear" x1="424.882" y1="-315.232" x2="139.958" y2="177.643" gradientUnits="userSpaceOnUse"><stop stop-color="#F1565C" stop-opacity=".2"/><stop offset=".447" stop-color="#F15258" stop-opacity=".3"/><stop offset="1" stop-color="var(--boundary, #ec585d)"/></linearGradient><linearGradient id="paint31_linear" x1="396.732" y1="-316.267" x2="199.107" y2="26.245" gradientUnits="userSpaceOnUse"><stop stop-color="#F1565C" stop-opacity=".2"/><stop offset=".447" stop-color="#F15258" stop-opacity=".3"/><stop offset="1" stop-color="var(--boundary, #ec585d)"/></linearGradient><linearGradient id="paint32_linear" x1="472.324" y1="-282.075" x2="190.516" y2="206.637" gradientUnits="userSpaceOnUse"><stop stop-color="#F1565C" stop-opacity=".2"/><stop offset=".447" stop-color="#F15258" stop-opacity=".3"/><stop offset="1" stop-color="var(--boundary, #ec585d)"/></linearGradient><linearGradient id="paint33_linear" x1="487.083" y1="-273.565" x2="205.274" y2="215.147" gradientUnits="userSpaceOnUse"><stop stop-color="#F1565C" stop-opacity=".2"/><stop offset=".447" stop-color="#F15258" stop-opacity=".3"/><stop offset="1" stop-color="var(--boundary, #ec585d)"/></linearGradient><linearGradient id="paint34_linear" x1="397.174" y1="-318.05" x2="118.171" y2="164.912" gradientUnits="userSpaceOnUse"><stop stop-color="#F1565C" stop-opacity=".2"/><stop offset=".447" stop-color="#F15258" stop-opacity=".3"/><stop offset="1" stop-color="var(--boundary, #ec585d)"/></linearGradient><linearGradient id="paint35_linear" x1="266.713" y1="112.643" x2="236.424" y2="165.026" gradientUnits="userSpaceOnUse"><stop stop-color="#F1565C" stop-opacity=".2"/><stop offset=".729" stop-color="var(--boundary, #ec585d)"/></linearGradient><linearGradient id="paint36_linear" x1="266.24" y1="113.993" x2="236.704" y2="165.182" gradientUnits="userSpaceOnUse"><stop stop-color="#F1565C" stop-opacity=".2"/><stop offset=".729" stop-color="var(--boundary, #ec585d)"/></linearGradient><linearGradient id="paint37_linear" x1="281.692" y1="121.905" x2="251.738" y2="173.852" gradientUnits="userSpaceOnUse"><stop stop-color="#F1565C" stop-opacity=".2"/><stop offset=".729" stop-color="var(--boundary, #ec585d)"/></linearGradient><linearGradient id="paint38_linear" x1="266.12" y1="113.703" x2="236.462" y2="165.036" gradientUnits="userSpaceOnUse"><stop stop-color="#F1565C" stop-opacity=".2"/><stop offset=".729" stop-color="var(--boundary, #ec585d)"/></linearGradient><linearGradient id="paint39_linear" x1="300.137" y1="132.549" x2="277.553" y2="171.715" gradientUnits="userSpaceOnUse"><stop stop-color="#F1565C" stop-opacity=".2"/><stop offset=".729" stop-color="var(--boundary, #ec585d)"/></linearGradient><linearGradient id="paint40_linear" x1="288.799" y1="125.541" x2="265.962" y2="165.036" gradientUnits="userSpaceOnUse"><stop stop-color="#F1565C" stop-opacity=".2"/><stop offset=".729" stop-color="var(--boundary, #ec585d)"/></linearGradient><linearGradient id="paint41_linear" x1="288.785" y1="125.536" x2="265.939" y2="165.024" gradientUnits="userSpaceOnUse"><stop stop-color="#F1565C" stop-opacity=".2"/><stop offset=".729" stop-color="var(--boundary, #ec585d)"/></linearGradient><linearGradient id="paint42_linear" x1="288.494" y1="126.583" x2="266.228" y2="165.184" gradientUnits="userSpaceOnUse"><stop stop-color="#F1565C" stop-opacity=".2"/><stop offset=".729" stop-color="var(--boundary, #ec585d)"/></linearGradient><linearGradient id="paint43_linear" x1="207.126" y1="181.52" x2="485.025" y2="181.52" gradientUnits="userSpaceOnUse"><stop offset=".558" stop-color="var(--boundary, #ec585d)"/><stop offset="1" stop-color="#F1565C" stop-opacity=".2"/></linearGradient><linearGradient id="paint44_linear" x1="207.124" y1="182.036" x2="490.531" y2="182.036" gradientUnits="userSpaceOnUse"><stop offset=".558" stop-color="var(--boundary, #ec585d)"/><stop offset="1" stop-color="#F1565C" stop-opacity=".2"/></linearGradient><linearGradient id="paint45_linear" x1="207.205" y1="232.959" x2="488.636" y2="232.959" gradientUnits="userSpaceOnUse"><stop offset=".558" stop-color="var(--boundary, #ec585d)"/><stop offset="1" stop-color="#F1565C" stop-opacity=".2"/></linearGradient><linearGradient id="paint46_linear" x1="148.179" y1="224.449" x2="459.117" y2="224.449" gradientUnits="userSpaceOnUse"><stop offset=".558" stop-color="var(--boundary, #ec585d)"/><stop offset="1" stop-color="#F1565C" stop-opacity=".2"/></linearGradient><linearGradient id="paint47_linear" x1="423.452" y1="-310.248" x2="141.651" y2="178.459" gradientUnits="userSpaceOnUse"><stop stop-color="#F1565C" stop-opacity=".2"/><stop offset=".447" stop-color="#F15258" stop-opacity=".3"/><stop offset="1" stop-color="var(--boundary, #ec585d)"/></linearGradient><linearGradient id="paint48_linear" x1="148.096" y1="164.873" x2="459.033" y2="164.873" gradientUnits="userSpaceOnUse"><stop offset=".558" stop-color="var(--boundary, #ec585d)"/><stop offset="1" stop-color="#F1565C" stop-opacity=".2"/></linearGradient><linearGradient id="paint49_linear" x1="118.662" y1="224.449" x2="429.594" y2="224.449" gradientUnits="userSpaceOnUse"><stop offset=".558" stop-color="var(--boundary, #ec585d)"/><stop offset="1" stop-color="#F1565C" stop-opacity=".2"/></linearGradient><linearGradient id="paint50_linear" x1="401.318" y1="-323.021" x2="119.511" y2="165.693" gradientUnits="userSpaceOnUse"><stop stop-color="#F1565C" stop-opacity=".2"/><stop offset=".447" stop-color="#F15258" stop-opacity=".3"/><stop offset="1" stop-color="var(--boundary, #ec585d)"/></linearGradient><linearGradient id="paint51_linear" x1="118.58" y1="164.873" x2="429.514" y2="164.873" gradientUnits="userSpaceOnUse"><stop offset=".558" stop-color="var(--boundary, #ec585d)"/><stop offset="1" stop-color="#F1565C" stop-opacity=".2"/></linearGradient><linearGradient id="paint52_linear" x1="244.095" y1="373.713" x2="296.153" y2="283.439" gradientUnits="userSpaceOnUse"><stop offset=".271" stop-color="var(--boundary, #ec585d)"/><stop offset="1" stop-color="#F1565C" stop-opacity=".2"/></linearGradient></defs></svg>