<svg id="Layer_1" data-name="Layer 1" xmlns="http://www.w3.org/2000/svg" viewBox="0 0 118 118"><defs><style>.cls-1{fill:var(--boundary-secondary, #ffecec);}.cls-2,.cls-3,.cls-4{fill:none;stroke:#000;stroke-width:2.5px;}.cls-3,.cls-4{stroke-linejoin:round;}.cls-4{stroke-linecap:round;}</style></defs><rect class="cls-1" width="118" height="118" rx="3"/><path class="cls-2" d="M39.1,71.73a7.61,7.61,0,0,1,7.61-7.61h0a7.62,7.62,0,0,1,7.62,7.61v3H39.1Z"/><path class="cls-3" d="M36.46,43.22A3.76,3.76,0,0,0,32.7,47V71a3.76,3.76,0,0,0,3.76,3.76H81.54A3.76,3.76,0,0,0,85.3,71V47a3.76,3.76,0,0,0-3.76-3.76Z"/><line class="cls-4" x1="60.93" y1="53.61" x2="78.13" y2="53.61"/><line class="cls-4" x1="60.93" y1="60.78" x2="67.65" y2="60.78"/><circle class="cls-2" cx="46.71" cy="57.25" r="6.87"/></svg>