<svg id="Layer_1" data-name="Layer 1" xmlns="http://www.w3.org/2000/svg" viewBox="0 0 118 118"><defs><style>.cls-1{fill:var(--boundary-secondary, #ffecec);}.cls-2{fill:#000;}</style></defs><rect class="cls-1" width="118" height="118" rx="3"/><path class="cls-2" d="M59,58.25a1.24,1.24,0,0,1-.56-.13L38.61,48.2a1.24,1.24,0,0,1-.7-1.12,1.26,1.26,0,0,1,.7-1.12l19.83-9.91a1.23,1.23,0,0,1,1.12,0L79.39,46a1.26,1.26,0,0,1,.7,1.12,1.24,1.24,0,0,1-.7,1.12L59.56,58.12A1.24,1.24,0,0,1,59,58.25ZM42,47.08,59,55.6l17-8.52L59,38.56Z"/><path class="cls-2" d="M39.17,72.17a1.2,1.2,0,0,1-.88-.38A1.05,1.05,0,0,1,38,71.4a1.15,1.15,0,0,1-.1-.48,1,1,0,0,1,0-.25,1.19,1.19,0,0,1,.07-.23,1.39,1.39,0,0,1,.11-.21.77.77,0,0,1,.16-.19,1.24,1.24,0,0,1,1.13-.34.88.88,0,0,1,.23.07.65.65,0,0,1,.22.11,1.35,1.35,0,0,1,.19.16.74.74,0,0,1,.15.19,1.43,1.43,0,0,1,.12.21c0,.08.05.16.07.23a2,2,0,0,1,0,.25,1.32,1.32,0,0,1-.09.48,1.36,1.36,0,0,1-.27.39A1.23,1.23,0,0,1,39.17,72.17Z"/><path class="cls-2" d="M53.49,79.48a1.26,1.26,0,0,1-.56-1.69h0a1.24,1.24,0,0,1,1.68-.55h0a1.25,1.25,0,0,1,.56,1.68h0a1.26,1.26,0,0,1-1.12.69h0A1.24,1.24,0,0,1,53.49,79.48Zm-5-2.48A1.25,1.25,0,0,1,48,75.32h0a1.26,1.26,0,0,1,1.68-.57h0a1.26,1.26,0,0,1,.56,1.69h0a1.24,1.24,0,0,1-1.12.68h0A1.38,1.38,0,0,1,48.53,77Zm-5-2.48A1.26,1.26,0,0,1,43,72.83h0a1.24,1.24,0,0,1,1.68-.55h0A1.24,1.24,0,0,1,45.25,74h0a1.25,1.25,0,0,1-1.12.69h0A1.24,1.24,0,0,1,43.57,74.52Z"/><path class="cls-2" d="M59,82.08a1.2,1.2,0,0,1-.89-.37,1.21,1.21,0,0,1-.36-.88,1.64,1.64,0,0,1,0-.23,2.17,2.17,0,0,1,.07-.24.88.88,0,0,1,.12-.21.74.74,0,0,1,.15-.19l.19-.17a.88.88,0,0,1,.22-.1.63.63,0,0,1,.23-.08,1.35,1.35,0,0,1,.49,0,.63.63,0,0,1,.23.08.88.88,0,0,1,.22.1l.19.17a.77.77,0,0,1,.16.19,1.39,1.39,0,0,1,.11.21,1.09,1.09,0,0,1,.07.24.85.85,0,0,1,0,.23A1.26,1.26,0,0,1,59,82.08Z"/><path class="cls-2" d="M62.85,78.92a1.24,1.24,0,0,1,.56-1.68h0a1.23,1.23,0,0,1,1.67.55h0a1.26,1.26,0,0,1-.55,1.69h0a1.24,1.24,0,0,1-.56.13h0A1.25,1.25,0,0,1,62.85,78.92Zm5-2.48a1.27,1.27,0,0,1,.55-1.69h0a1.26,1.26,0,0,1,1.68.57h0A1.25,1.25,0,0,1,69.48,77h0a1.38,1.38,0,0,1-.56.12h0A1.21,1.21,0,0,1,67.81,76.44Zm5-2.48a1.26,1.26,0,0,1,.56-1.68h0a1.25,1.25,0,0,1,1.68.55h0a1.26,1.26,0,0,1-.56,1.69h0a1.23,1.23,0,0,1-.55.13h0A1.26,1.26,0,0,1,72.76,74Z"/><path class="cls-2" d="M78.84,72.17a1.2,1.2,0,0,1-.88-.38,1.18,1.18,0,0,1-.37-.87A1.24,1.24,0,0,1,78,70a1.27,1.27,0,0,1,1.13-.34.88.88,0,0,1,.23.07.65.65,0,0,1,.22.11,1,1,0,0,1,.19.16,1.23,1.23,0,0,1,.36.88,1.26,1.26,0,0,1-1.25,1.25Z"/><path class="cls-2" d="M39.17,60.25a1.22,1.22,0,0,1-.88-.37.93.93,0,0,1-.16-.18,2.26,2.26,0,0,1-.11-.22.88.88,0,0,1-.07-.23,1,1,0,0,1,0-.24,1,1,0,0,1,0-.25.88.88,0,0,1,.07-.23,1.51,1.51,0,0,1,.11-.22,1.46,1.46,0,0,1,.16-.19,1.3,1.3,0,0,1,1.77,0,1.39,1.39,0,0,1,.15.19,1.21,1.21,0,0,1,.19.45,1.51,1.51,0,0,1,0,.49,1.55,1.55,0,0,1-.07.23,2.39,2.39,0,0,1-.12.22,1.37,1.37,0,0,1-.34.34l-.22.12-.23.07A1.06,1.06,0,0,1,39.17,60.25Z"/><path class="cls-2" d="M53.49,67.56a1.25,1.25,0,0,1-.56-1.68h0a1.27,1.27,0,0,1,1.68-.56h0A1.26,1.26,0,0,1,55.17,67h0a1.26,1.26,0,0,1-1.12.69h0A1.24,1.24,0,0,1,53.49,67.56Zm-5-2.48A1.25,1.25,0,0,1,48,63.4h0a1.28,1.28,0,0,1,1.68-.57h0a1.27,1.27,0,0,1,.56,1.69h0a1.25,1.25,0,0,1-1.12.69h0A1.24,1.24,0,0,1,48.53,65.08Zm-5-2.48A1.25,1.25,0,0,1,43,60.92h0a1.25,1.25,0,0,1,1.68-.55h0A1.24,1.24,0,0,1,45.25,62h0a1.25,1.25,0,0,1-1.12.69h0A1.24,1.24,0,0,1,43.57,62.6Z"/><path class="cls-2" d="M59,70.17a1.21,1.21,0,0,1-.89-.38,1.19,1.19,0,0,1-.27-.39,1.32,1.32,0,0,1-.09-.48,2,2,0,0,1,0-.25c0-.07,0-.15.07-.23a.88.88,0,0,1,.12-.21.9.9,0,0,1,.15-.19,1.26,1.26,0,0,1,1.13-.34.88.88,0,0,1,.23.07.65.65,0,0,1,.22.11,1,1,0,0,1,.19.16,1.46,1.46,0,0,1,.16.19,1.39,1.39,0,0,1,.11.21,1.19,1.19,0,0,1,.07.23,1,1,0,0,1,0,.25,1.15,1.15,0,0,1-.1.48,1.05,1.05,0,0,1-.27.39A1.19,1.19,0,0,1,59,70.17Z"/><path class="cls-2" d="M62.85,67a1.25,1.25,0,0,1,.56-1.68h0a1.24,1.24,0,0,1,1.67.56h0a1.25,1.25,0,0,1-.55,1.68h0a1.24,1.24,0,0,1-.56.13h0A1.25,1.25,0,0,1,62.85,67Zm5-2.48a1.24,1.24,0,0,1,.55-1.67h0A1.25,1.25,0,0,1,70,63.4h0a1.25,1.25,0,0,1-.56,1.68h0a1.24,1.24,0,0,1-.56.13h0A1.22,1.22,0,0,1,67.81,64.52Zm5-2.48a1.25,1.25,0,0,1,.56-1.67h0a1.25,1.25,0,0,1,1.68.55h0a1.25,1.25,0,0,1-.56,1.68h0a1.24,1.24,0,0,1-.56.13h0A1.26,1.26,0,0,1,72.76,62Z"/><path class="cls-2" d="M78.84,60.25a1,1,0,0,1-.24,0l-.24-.07L78.15,60a.7.7,0,0,1-.19-.16,1.26,1.26,0,0,1-.37-.88,1.3,1.3,0,0,1,.37-.88.9.9,0,0,1,.19-.15l.21-.12.24-.07a1.35,1.35,0,0,1,.49,0l.23.07a.94.94,0,0,1,.22.12.9.9,0,0,1,.19.15,1.28,1.28,0,0,1,.36.88,1.25,1.25,0,0,1-1.25,1.25Z"/></svg>