<svg width="26" height="32" viewBox="0 0 26 32" fill="none" xmlns="http://www.w3.org/2000/svg">
<g clip-path="url(#clip0)">
<path d="M21.7144 16.9682C21.7593 21.8016 25.9535 23.41 26 23.4306C25.9645 23.544 25.3298 25.7227 23.7903 27.9732C22.4594 29.9189 21.0781 31.8574 18.9022 31.8976C16.7641 31.937 16.0766 30.6294 13.6322 30.6294C11.1885 30.6294 10.4247 31.8574 8.40075 31.937C6.30043 32.0165 4.70106 29.833 3.35912 27.8945C0.617022 23.9291 -1.47851 16.6894 1.33526 11.8025C2.73308 9.37558 5.23109 7.83878 7.94245 7.79938C10.0049 7.76002 11.9516 9.18727 13.2124 9.18727C14.4724 9.18727 16.8381 7.47088 19.3251 7.72296C20.3662 7.7663 23.2886 8.14361 25.1652 10.8911C25.014 10.9849 21.6781 12.9273 21.7144 16.9682V16.9682ZM17.6962 5.09955C18.8112 3.74947 19.5617 1.87003 19.357 0C17.7497 0.0646146 15.8061 1.07132 14.6532 2.42066C13.62 3.61556 12.7152 5.52808 12.9593 7.3611C14.7509 7.49974 16.581 6.45049 17.6962 5.09955" fill="black"/>
</g>
<defs>
<clipPath id="clip0">
<rect width="26" height="31.9391" fill="white"/>
</clipPath>
</defs>
</svg>
