<svg width="53" height="32" viewBox="0 0 53 32" fill="none" xmlns="http://www.w3.org/2000/svg">
<path fill-rule="evenodd" clip-rule="evenodd" d="M41.1188 15.9611C41.9844 16.1688 42.8846 16.2727 43.7848 16.2727C44.6677 16.2727 45.4813 16.1515 46.2603 15.9091C47.0047 15.6841 47.6452 15.3725 48.1819 14.9397C48.7185 14.5242 49.134 14.0049 49.4456 13.4163C49.7399 12.8277 49.8957 12.1526 49.8957 11.4082C49.8957 10.508 49.636 9.69436 49.0994 8.9846C48.5627 8.27483 47.6625 7.72087 46.4161 7.3227L43.9579 6.54369C43.0404 6.2494 42.3999 5.92048 42.0536 5.59157C41.7074 5.26265 41.5343 4.84718 41.5343 4.36246C41.5343 3.6527 41.8113 3.15067 42.3479 2.82175C42.8846 2.49284 43.6636 2.33703 44.6503 2.33703C45.8795 2.33703 46.9874 2.56208 47.9741 3.01218C48.2684 3.15067 48.4935 3.21991 48.632 3.21991C48.8916 3.21991 49.0301 3.02949 49.0301 2.66595V1.85232C49.0301 1.60996 48.9782 1.41953 48.8743 1.28104C48.7705 1.12524 48.5973 0.986747 48.355 0.848257C48.1819 0.744388 47.9395 0.64052 47.6279 0.536652C47.3163 0.432784 46.9874 0.346227 46.6412 0.25967L46.6411 0.259664C46.2776 0.190421 45.9141 0.121178 45.5159 0.0692454C45.1351 0.0173114 44.7369 0 44.3561 0C43.5944 0 42.8673 0.0865568 42.1748 0.294293C41.4824 0.502029 40.8938 0.796322 40.3744 1.19448C39.8551 1.57533 39.4396 2.06005 39.128 2.61402C38.8164 3.16798 38.6606 3.8085 38.6606 4.53558C38.6606 5.43577 38.9549 6.28402 39.5262 7.04572C40.0975 7.82473 41.0323 8.41332 42.296 8.81148L44.8061 9.59049C45.6544 9.86747 46.243 10.1618 46.5546 10.4907C46.8662 10.8196 47.022 11.2178 47.022 11.7025C47.022 12.4122 46.7104 12.9662 46.1218 13.3471C45.5332 13.7279 44.685 13.9183 43.5944 13.9183C42.9019 13.9183 42.2268 13.8491 41.5343 13.7106C40.8592 13.5721 40.2186 13.3644 39.6301 13.1047C39.5687 13.0802 39.5096 13.0556 39.4541 13.0326C39.3531 12.9907 39.2643 12.9539 39.1973 12.9316C39.0934 12.897 38.9895 12.8797 38.8857 12.8797C38.626 12.8797 38.4875 13.0528 38.4875 13.4163V14.2992C38.4875 14.455 38.5221 14.6281 38.5914 14.7839C38.6606 14.9397 38.851 15.1128 39.128 15.2686C39.5781 15.5283 40.2533 15.7533 41.1188 15.9611ZM14.8579 12.846C14.7367 12.4651 14.6675 11.9458 14.6675 11.3052H14.6329V5.69636C14.6329 3.79211 14.1481 2.37258 13.196 1.43777C12.2266 0.502954 10.7205 0.035547 8.66044 0.035547C7.70831 0.035547 6.80812 0.139415 5.95987 0.364463C5.11161 0.572199 4.38453 0.83187 3.77864 1.14347C3.53628 1.26465 3.38047 1.38583 3.29392 1.50701C3.20736 1.62819 3.17274 1.83593 3.17274 2.11291V2.96117C3.17274 3.32471 3.29392 3.49782 3.53628 3.49782C3.60552 3.49782 3.69208 3.48051 3.81326 3.44589C3.93444 3.41126 4.14217 3.34202 4.41916 3.22084C5.02505 2.97848 5.64826 2.78805 6.28878 2.63225C6.9293 2.47645 7.55251 2.4072 8.15841 2.4072C9.49138 2.4072 10.4262 2.66687 10.9802 3.20353C11.5168 3.74018 11.7938 4.65768 11.7938 5.97334V7.23707C11.1013 7.08127 10.4435 6.94278 9.80299 6.85622C9.16247 6.76967 8.55657 6.71773 7.96798 6.71773C6.18491 6.71773 4.78269 7.16783 3.7267 8.06802C2.67071 8.96821 2.15137 10.1627 2.15137 11.6342C2.15137 13.0191 2.58415 14.127 3.43241 14.9579C4.28066 15.7889 5.44053 16.2044 6.89468 16.2044C8.93742 16.2044 10.6339 15.408 11.9842 13.8154C12.1746 14.2136 12.3478 14.5425 12.5209 14.8368C12.694 15.1137 12.9017 15.3907 13.1441 15.6504C13.3172 15.8062 13.4903 15.8928 13.6634 15.8928C13.8019 15.8928 13.9577 15.8408 14.1135 15.737L15.2041 15.0099C15.4292 14.8368 15.533 14.6636 15.533 14.4905C15.533 14.3694 15.4984 14.2309 15.4119 14.0924C15.1695 13.6423 14.9964 13.2268 14.8579 12.846ZM9.42206 13.624C8.79885 13.8317 8.21026 13.9356 7.63899 13.9356C6.84267 13.9356 6.23677 13.7279 5.8213 13.2951C5.38851 12.8796 5.18078 12.2737 5.18078 11.4601C5.18078 10.5945 5.45776 9.93666 6.02903 9.46926C6.60031 9.00185 7.44857 8.7768 8.60843 8.7768C9.14508 8.7768 9.68173 8.81143 10.2357 8.88067C10.7897 8.94992 11.3263 9.05379 11.8283 9.17496V9.90204C11.8283 10.4906 11.7591 10.9927 11.6552 11.4081C11.5514 11.8236 11.3436 12.1871 11.0666 12.5161C10.5992 13.0354 10.0453 13.4162 9.42206 13.624ZM21.5398 15.8052C21.2282 15.8052 21.0205 15.7532 20.882 15.6321C20.7435 15.5282 20.6223 15.2858 20.5184 14.9569L16.4503 1.57524C16.3464 1.22901 16.2945 1.00397 16.2945 0.882787C16.2945 0.605805 16.433 0.450003 16.7099 0.450003H18.4065C18.7354 0.450003 18.9604 0.501937 19.0816 0.623116C19.2201 0.726984 19.324 0.969343 19.4278 1.29826L22.3361 12.7584L25.0367 1.29826C25.1233 0.952032 25.2271 0.726984 25.3656 0.623116C25.5041 0.519248 25.7465 0.450003 26.0581 0.450003H27.443C27.7719 0.450003 27.997 0.501937 28.1354 0.623116C28.2739 0.726984 28.3951 0.969343 28.4644 1.29826L31.1996 12.8969L34.1944 1.29826C34.2983 0.952032 34.4195 0.726984 34.5406 0.623116C34.6791 0.519248 34.9042 0.450003 35.2158 0.450003H36.8257C37.1027 0.450003 37.2585 0.588493 37.2585 0.882787C37.2585 0.956715 37.2459 1.03064 37.2314 1.11536L37.2239 1.15977C37.2066 1.26364 37.172 1.40213 37.1027 1.59255L32.9307 14.9742C32.8268 15.3205 32.7056 15.5455 32.5672 15.6494C32.4287 15.7532 32.2036 15.8225 31.9093 15.8225H30.4205C30.0916 15.8225 29.8666 15.7706 29.7281 15.6494C29.5896 15.5282 29.4684 15.3031 29.3992 14.9569L26.7159 3.7911L24.05 14.9396C23.9634 15.2858 23.8595 15.5109 23.721 15.6321C23.5826 15.7532 23.3402 15.8052 23.0286 15.8052H21.5398Z" fill="#252F3E"/>
<path fill-rule="evenodd" clip-rule="evenodd" d="M42.7644 21.7602C44.6167 21.5352 48.7022 21.0505 49.4293 21.9853C50.1563 22.9028 48.6156 26.7632 47.9232 28.477C47.7154 28.9964 48.1655 29.2041 48.6329 28.8059C51.6797 26.2439 52.4761 20.8947 51.8529 20.1156C51.2296 19.3539 45.8804 18.6961 42.6259 20.9812C42.1239 21.3448 42.2104 21.8295 42.7644 21.7602ZM25.9726 31.1255C33.0876 31.1255 41.3624 28.8923 47.0578 24.6857C47.9926 23.9932 47.179 22.9372 46.2269 23.37C39.839 26.0706 32.8971 27.3862 26.5785 27.3862C17.213 27.3862 8.15919 24.8068 0.819177 20.5482C0.178656 20.1674 -0.306062 20.8252 0.23059 21.3099C7.01664 27.4382 16.0012 31.1255 25.9726 31.1255Z" fill="#FF9900"/>
</svg>
