<svg width="48" height="30" viewBox="0 0 48 30" fill="none" xmlns="http://www.w3.org/2000/svg"><path d="M13.432 11.09c0 .581.063 1.053.173 1.4.125.346.283.724.503 1.133.078.126.11.252.11.362 0 .157-.095.315-.299.472l-.99.66a.753.753 0 01-.41.142c-.156 0-.314-.078-.47-.22a4.881 4.881 0 01-.567-.74 12.238 12.238 0 01-.487-.928c-1.227 1.448-2.768 2.172-4.623 2.172-1.32 0-2.374-.378-3.145-1.133-.77-.756-1.163-1.763-1.163-3.022 0-1.337.472-2.423 1.43-3.242.96-.818 2.233-1.227 3.853-1.227.534 0 1.085.047 1.667.126.581.079 1.179.204 1.808.346V6.242c0-1.196-.252-2.03-.74-2.518-.502-.487-1.351-.723-2.562-.723-.55 0-1.116.063-1.698.204a12.52 12.52 0 00-1.698.535c-.252.11-.44.173-.55.205a.963.963 0 01-.252.047c-.22 0-.33-.157-.33-.488v-.77c0-.253.031-.442.11-.552.078-.11.22-.22.44-.33.55-.283 1.21-.52 1.981-.708a9.525 9.525 0 012.453-.3c1.87 0 3.239.426 4.12 1.275.864.85 1.304 2.14 1.304 3.872v5.098h.032zM7.048 13.48c.519 0 1.054-.094 1.62-.283a3.503 3.503 0 001.493-1.007c.252-.3.44-.63.535-1.007.094-.378.157-.834.157-1.37v-.66c-.456-.11-.943-.205-1.446-.268-.504-.063-.99-.094-1.478-.094-1.054 0-1.824.204-2.343.63-.519.424-.77 1.022-.77 1.809 0 .74.188 1.29.581 1.668.378.393.928.582 1.651.582zm12.626 1.7c-.283 0-.472-.047-.598-.158-.125-.094-.236-.314-.33-.613L15.051 2.245c-.094-.314-.141-.519-.141-.63 0-.251.125-.393.377-.393h1.54c.3 0 .504.048.614.158.126.094.22.314.315.613l2.641 10.418L22.85 1.993c.078-.314.173-.519.298-.613.126-.095.346-.158.63-.158h1.257c.299 0 .503.048.63.158.125.094.235.314.298.613l2.484 10.544 2.72-10.544c.095-.314.205-.519.315-.613.126-.095.33-.158.613-.158h1.462c.252 0 .393.126.393.394 0 .078-.016.157-.031.252-.016.094-.047.22-.11.393l-3.79 12.164c-.094.315-.204.52-.33.614-.125.095-.33.157-.597.157H27.74c-.3 0-.503-.047-.63-.157-.125-.11-.235-.315-.298-.63L24.375 4.26l-2.421 10.135c-.079.315-.173.52-.3.63-.125.11-.345.157-.628.157h-1.352zm20.204.425c-.818 0-1.635-.095-2.422-.284-.786-.188-1.399-.393-1.808-.63-.251-.14-.424-.298-.487-.44a1.111 1.111 0 01-.094-.44v-.803c0-.33.125-.488.361-.488.095 0 .189.016.283.047.095.032.236.095.393.158a8.55 8.55 0 001.73.55 9.434 9.434 0 001.87.19c.991 0 1.762-.174 2.296-.52.535-.346.818-.85.818-1.495 0-.44-.142-.802-.424-1.101-.283-.3-.818-.567-1.588-.819l-2.28-.708c-1.148-.362-1.997-.897-2.516-1.605-.519-.692-.786-1.463-.786-2.282 0-.66.141-1.243.424-1.747.283-.503.66-.944 1.132-1.29a4.988 4.988 0 011.636-.818 6.847 6.847 0 011.98-.268c.347 0 .708.016 1.054.063.362.047.692.11 1.022.173.315.079.613.158.896.252.283.094.503.189.66.283.22.126.378.252.472.394.095.126.142.299.142.519v.74c0 .33-.126.503-.362.503-.126 0-.33-.063-.597-.189-.896-.409-1.903-.613-3.019-.613-.896 0-1.604.141-2.091.44-.488.3-.74.756-.74 1.4 0 .441.158.82.473 1.118.314.3.896.598 1.729.866l2.233.708c1.132.362 1.95.865 2.437 1.51.487.646.723 1.385.723 2.204 0 .676-.142 1.29-.409 1.825a4.23 4.23 0 01-1.148 1.385c-.487.393-1.069.676-1.745.881a7.47 7.47 0 01-2.248.33z" fill="var(--gray-4, #bfbfc0)"/><path fill-rule="evenodd" clip-rule="evenodd" d="M42.85 23.254c-5.173 3.824-12.688 5.854-19.15 5.854-9.057 0-17.217-3.352-23.38-8.923-.488-.44-.048-1.039.534-.692 6.666 3.87 14.89 6.216 23.396 6.216 5.739 0 12.044-1.197 17.845-3.651.865-.394 1.604.566.755 1.196z" fill="var(--gray-4, #bfbfc0)"/><path fill-rule="evenodd" clip-rule="evenodd" d="M45.004 20.799c-.66-.85-4.371-.41-6.053-.205-.504.063-.582-.378-.126-.708 2.956-2.077 7.814-1.48 8.38-.787.566.708-.157 5.57-2.924 7.9-.425.362-.834.173-.645-.3.629-1.557 2.028-5.066 1.368-5.9z" fill="var(--gray-4, #bfbfc0)"/></svg>