<svg width="103" height="30" viewBox="0 0 103 30" fill="none" xmlns="http://www.w3.org/2000/svg"><path d="M42.352 17.448l4.395 11.667h-2.232l-1.032-2.91h-4.598l-.993 2.898H35.68l4.394-11.667 2.278.012zm-1.204 2.166l-1.724 4.91h3.498l-1.717-4.91h-.057zM47.731 20.753h6.68v.79l-4.386 6.01h4.41v1.562h-7.012v-.935l4.318-5.868h-4.01v-1.559zM62.813 20.753v8.362H60.83v-1.1h-.035a2.664 2.664 0 01-1.047.884c-.456.221-.958.332-1.466.324a2.855 2.855 0 01-2.216-.828c-.513-.549-.77-1.404-.77-2.566v-5.076h2.013v4.849a2.529 2.529 0 00.42 1.589 1.508 1.508 0 001.265.531 1.67 1.67 0 001.34-.589c.351-.433.532-.981.507-1.539v-4.84h1.97zM68.742 20.615a2.078 2.078 0 01.739.112v1.992a1.7 1.7 0 00-.45-.215 2.194 2.194 0 00-.72-.1 1.54 1.54 0 00-1.223.608 2.932 2.932 0 00-.5 1.881v4.233H64.62v-8.373h1.97v1.316h.031c.16-.43.444-.802.816-1.07a2.19 2.19 0 011.304-.384zM76.569 27.006v1.62a4.234 4.234 0 01-1.278.5 7.18 7.18 0 01-1.685.193 3.875 3.875 0 01-2.97-1.132c-.709-.754-1.063-1.803-1.063-3.147a4.59 4.59 0 011.135-3.202 3.695 3.695 0 012.875-1.258 3.461 3.461 0 012.693 1.062c.642.708.962 1.685.962 2.932v.954h-5.722c.089.84.358 1.428.808 1.759a2.882 2.882 0 001.755.5 4.14 4.14 0 001.35-.215 4.32 4.32 0 001.14-.566zm-1.262-2.92a2.194 2.194 0 00-.45-1.49 1.62 1.62 0 00-1.274-.512 1.84 1.84 0 00-1.27.508 2.602 2.602 0 00-.747 1.494h3.74zM49.002 1.41v11.666h-2.028V3.93h-.03l-3.622 9.146H41.98L38.27 3.93h-.023v9.146h-1.874V1.41h2.905l3.352 8.635h.058l3.536-8.646 2.778.011zm1.693.884a1.062 1.062 0 01.354-.815 1.25 1.25 0 011.705 0 1.1 1.1 0 01.342.808 1.07 1.07 0 01-.35.808c-.232.214-.538.33-.854.323a1.181 1.181 0 01-1.108-.689 1.069 1.069 0 01-.089-.435zm2.17 2.417v8.365H50.9V4.711h1.966zm5.972 6.926c.333-.009.662-.078.97-.204.348-.133.676-.315.974-.538v1.843a3.964 3.964 0 01-1.07.408c-.43.096-.87.142-1.312.138a3.981 3.981 0 01-4.168-4.156 4.772 4.772 0 011.19-3.317c.787-.872 1.902-1.308 3.343-1.308.378.002.754.05 1.12.142.312.072.613.184.897.331v1.886a4.137 4.137 0 00-.931-.516 2.724 2.724 0 00-.97-.18 2.47 2.47 0 00-1.882.769 2.851 2.851 0 00-.715 2.043 2.724 2.724 0 00.688 1.978 2.49 2.49 0 001.878.689l-.011-.008zm7.55-7.072c.142-.002.284.01.424.034.109.015.216.042.319.081v1.993a1.727 1.727 0 00-.454-.215 2.193 2.193 0 00-.72-.1 1.54 1.54 0 00-1.223.608 2.928 2.928 0 00-.497 1.885v4.233h-1.97V4.711h1.97v1.32h.031c.16-.43.444-.802.816-1.07a2.2 2.2 0 011.304-.389v-.007zm.847 4.444a4.526 4.526 0 011.173-3.286c.77-.808 1.854-1.212 3.252-1.212a4.01 4.01 0 013.078 1.154 4.402 4.402 0 011.105 3.152 4.449 4.449 0 01-1.174 3.24 4.234 4.234 0 01-3.186 1.204 4.18 4.18 0 01-3.078-1.154 4.233 4.233 0 01-1.17-3.09v-.008zm2.05-.065c-.049.716.162 1.426.593 2a2.126 2.126 0 001.701.693 1.981 1.981 0 001.635-.692c.417-.601.615-1.326.562-2.055a3.078 3.078 0 00-.58-2.036 2.012 2.012 0 00-1.648-.658 2.067 2.067 0 00-1.681.72 3.15 3.15 0 00-.581 2.035v-.007zm9.47-2.044a.834.834 0 00.27.662c.362.261.762.466 1.185.608a4.052 4.052 0 011.659 1.062c.32.406.487.911.473 1.428a2.308 2.308 0 01-.904 1.897 3.849 3.849 0 01-2.455.716 5.87 5.87 0 01-1.155-.127 5.138 5.138 0 01-1.07-.324v-1.924a4.82 4.82 0 001.155.593c.359.139.739.215 1.123.223.34.021.678-.044.986-.188a.667.667 0 00.315-.628.875.875 0 00-.327-.688 5.076 5.076 0 00-1.25-.647 3.848 3.848 0 01-1.54-1.023 2.243 2.243 0 01-.454-1.447 2.285 2.285 0 01.9-1.859c.666-.51 1.49-.77 2.329-.731.33.004.66.038.985.1.312.051.617.135.912.25v1.874a4.196 4.196 0 00-.912-.45c-.33-.12-.68-.183-1.031-.185a1.516 1.516 0 00-.878.22.696.696 0 00-.315.596V6.9zm4.433 2.109a4.525 4.525 0 011.174-3.286c.77-.808 1.862-1.212 3.252-1.212a4.01 4.01 0 013.078 1.154 4.402 4.402 0 011.104 3.152 4.449 4.449 0 01-1.173 3.24 4.234 4.234 0 01-3.186 1.204 4.18 4.18 0 01-3.079-1.154 4.233 4.233 0 01-1.17-3.09v-.008zm2.052-.065c-.05.716.16 1.426.592 2a2.12 2.12 0 001.7.693 1.982 1.982 0 001.636-.692c.417-.601.615-1.326.562-2.055a3.078 3.078 0 00-.581-2.036 2.012 2.012 0 00-1.632-.658 2.063 2.063 0 00-1.681.72 3.151 3.151 0 00-.596 2.035v-.007zm13.083-2.629h-2.933v6.761h-1.993V6.323H92V4.711h1.397V3.556a2.904 2.904 0 01.854-2.166 3.018 3.018 0 012.201-.843c.213-.001.425.01.635.035.166.021.33.059.49.112v1.7a2.013 2.013 0 00-.343-.138 1.782 1.782 0 00-.562-.081 1.185 1.185 0 00-.95.385 1.7 1.7 0 00-.335 1.154v1.008h2.932V2.833l1.978-.604V4.71h1.993v1.612h-1.993v3.913c-.038.385.061.771.28 1.09a1.13 1.13 0 00.882.319c.141-.004.28-.033.411-.085.148-.046.289-.11.42-.192v1.627a2.274 2.274 0 01-.624.193 4.12 4.12 0 01-.858.092 2.444 2.444 0 01-1.866-.665 2.824 2.824 0 01-.623-1.998l.004-4.302zM13.524 1.41H.356v13.167h13.168V1.41zM28.062 1.41H14.894v13.167h13.168V1.41zM13.524 15.947H.356v13.168h13.168V15.947zM28.062 15.947H14.894v13.168h13.168V15.947z" fill="var(--gray-4, #bfbfc0)"/></svg>