<svg width="93" height="27" viewBox="0 0 93 27" fill="none" xmlns="http://www.w3.org/2000/svg">
<path d="M38.1594 15.3578L42.1522 25.9588H40.1243L39.1873 23.3155H35.0092L34.1071 25.9483H32.0967L36.0895 15.3473L38.1594 15.3578ZM37.065 17.3262L35.4986 21.7876H38.6768L37.1175 17.3262H37.065Z" fill="#737373"/>
<path d="M43.0468 18.3612H49.1165V19.078L45.1306 24.5393H49.1375V25.9588H42.7671V25.1092L46.69 19.7772H43.0468V18.3612Z" fill="#737373"/>
<path d="M56.7498 18.3612V25.9588H54.9492V24.9588H54.9177C54.6763 25.3053 54.3484 25.5825 53.9667 25.763C53.5516 25.9634 53.0954 26.0639 52.6346 26.0567C52.2647 26.0826 51.8935 26.0289 51.5461 25.8992C51.1987 25.7696 50.8831 25.5669 50.6207 25.305C50.1545 24.8062 49.9214 24.0288 49.9214 22.9729V18.3612H51.75V22.7666C51.7126 23.277 51.8468 23.7852 52.1311 24.2106C52.271 24.3763 52.4482 24.5064 52.6482 24.5903C52.8481 24.6742 53.0652 24.7094 53.2814 24.6931C53.5115 24.7021 53.7406 24.6586 53.9514 24.566C54.1623 24.4733 54.3492 24.3338 54.4981 24.1582C54.8179 23.7642 54.9821 23.2666 54.9596 22.7596V18.3612H56.7498Z" fill="#737373"/>
<path d="M62.1372 18.2353C62.266 18.2332 62.3947 18.2425 62.5218 18.2633C62.6191 18.2802 62.715 18.3048 62.8085 18.3367V20.1478C62.6825 20.0628 62.5447 19.9968 62.3994 19.952C62.188 19.8856 61.9671 19.8549 61.7456 19.8611C61.5302 19.8614 61.3179 19.9114 61.125 20.0072C60.9322 20.103 60.764 20.2421 60.6337 20.4136C60.2919 20.9151 60.1316 21.5182 60.1792 22.1233V25.9693H58.3926V18.3612H60.1827V19.557H60.2107C60.3558 19.1666 60.6138 18.8282 60.9519 18.585C61.2999 18.3456 61.715 18.2231 62.1372 18.2353Z" fill="#737373"/>
<path d="M69.2491 24.0428V25.5148C68.8895 25.7284 68.4974 25.8819 68.0883 25.9693C67.5865 26.0879 67.0725 26.1466 66.5569 26.1441C66.0599 26.1733 65.5623 26.0968 65.097 25.9197C64.6318 25.7425 64.2094 25.4686 63.8577 25.1162C63.2144 24.4309 62.8927 23.4775 62.8927 22.2561C62.8519 21.1903 63.221 20.1493 63.9241 19.3472C64.2489 18.9766 64.6512 18.682 65.1026 18.4844C65.554 18.2868 66.0433 18.191 66.5359 18.2039C66.9893 18.1786 67.4429 18.2517 67.8653 18.4183C68.2878 18.5849 68.6692 18.8409 68.9834 19.1689C69.5661 19.8122 69.8575 20.7003 69.8575 21.8331V22.7002H64.6584C64.7388 23.4624 64.9835 23.9973 65.3926 24.298C65.8608 24.6182 66.4203 24.7777 66.9869 24.7525C67.404 24.7558 67.8188 24.6896 68.2142 24.5568C68.5826 24.4375 68.9314 24.2643 69.2491 24.0428ZM68.1023 21.389C68.1358 20.9032 67.9903 20.4218 67.6932 20.0359C67.5461 19.8784 67.3662 19.7552 67.1662 19.6748C66.9663 19.5945 66.7511 19.559 66.5359 19.5709C66.1063 19.5708 65.6931 19.736 65.3821 20.0325C65.0131 20.3979 64.7747 20.8746 64.7038 21.389H68.1023Z" fill="#737373"/>
<path d="M44.2011 0.784928V11.3859H42.3586V3.07505H42.3306L39.0405 11.3859H37.8203L34.4498 3.07505H34.4288V11.3859H32.7261V0.784928H35.3658L38.4112 8.63077H38.4636L41.6768 0.774439L44.2011 0.784928ZM45.7395 1.58909C45.7364 1.44963 45.7635 1.31115 45.8191 1.18319C45.8746 1.05523 45.9572 0.940822 46.0612 0.847862C46.2715 0.651987 46.5483 0.543082 46.8357 0.543082C47.1231 0.543082 47.3998 0.651987 47.6101 0.847862C47.7096 0.942355 47.7885 1.0563 47.842 1.18262C47.8956 1.30893 47.9225 1.44491 47.9213 1.5821C47.9234 1.72006 47.8961 1.85688 47.8413 1.98348C47.7864 2.11008 47.7052 2.22354 47.6031 2.31634C47.3924 2.51138 47.114 2.61671 46.8269 2.61003C46.6849 2.61411 46.5434 2.58994 46.4108 2.53893C46.2781 2.48791 46.1569 2.41106 46.0542 2.31284C45.9541 2.22091 45.8743 2.109 45.8201 1.98434C45.7659 1.85967 45.7385 1.72503 45.7395 1.58909ZM47.7115 3.78481V11.3859H45.9248V3.78481H47.7115ZM53.1378 10.0783C53.4403 10.0702 53.7388 10.0074 54.0189 9.89296C54.3351 9.77174 54.6329 9.60699 54.9035 9.40347V11.0782C54.5992 11.2482 54.2717 11.373 53.9315 11.4488C53.5402 11.5361 53.1402 11.5783 52.7393 11.5747C52.2366 11.5985 51.7344 11.5173 51.2649 11.3361C50.7954 11.1549 50.3689 10.8778 50.0126 10.5224C49.6562 10.1671 49.3779 9.74128 49.1954 9.27228C49.0129 8.80329 48.9303 8.30138 48.9527 7.79864C48.9151 6.69297 49.3016 5.61475 50.0331 4.78477C50.7487 3.99226 51.7614 3.59601 53.0714 3.59601C53.4145 3.59812 53.7561 3.64155 54.0889 3.72537C54.372 3.79075 54.6458 3.89179 54.9035 4.02606V5.73928C54.6428 5.54732 54.3584 5.38984 54.0574 5.27076C53.7761 5.16283 53.4776 5.10714 53.1763 5.10643C52.858 5.09503 52.541 5.15148 52.2462 5.27205C51.9514 5.39261 51.6856 5.57453 51.4666 5.80571C51.0142 6.315 50.7805 6.98199 50.8163 7.66228C50.7969 7.98831 50.8422 8.31495 50.9496 8.62339C51.057 8.93182 51.2244 9.21595 51.4421 9.45941C51.6678 9.67603 51.9359 9.84349 52.2296 9.95121C52.5233 10.0589 52.8361 10.1046 53.1483 10.0853L53.1378 10.0783ZM59.9977 3.65195C60.1266 3.6506 60.2554 3.66113 60.3823 3.68341C60.4815 3.69702 60.5788 3.72165 60.6725 3.75684V5.56795C60.5453 5.48293 60.4063 5.41697 60.2599 5.37216C60.0486 5.30572 59.8276 5.275 59.6061 5.28125C59.3908 5.28152 59.1784 5.33151 58.9855 5.42733C58.7927 5.52315 58.6246 5.66221 58.4943 5.83368C58.1526 6.33646 57.9935 6.94107 58.0432 7.5469V11.3929H56.2531V3.78481H58.0432V4.98406H58.0712C58.2163 4.59367 58.4744 4.25531 58.8124 4.01207C59.1603 3.77209 59.5752 3.64846 59.9977 3.65894V3.65195ZM60.7669 7.69025C60.7382 7.14674 60.8177 6.60294 61.0007 6.09038C61.1838 5.57782 61.4668 5.1067 61.8333 4.70435C62.5326 3.97012 63.5174 3.603 64.7877 3.603C65.3016 3.57024 65.8166 3.64678 66.2987 3.82758C66.7809 4.00838 67.2192 4.28933 67.5848 4.65191C68.2824 5.43757 68.6429 6.46618 68.5883 7.51543C68.6153 8.0524 68.5348 8.58935 68.3517 9.09486C68.1686 9.60036 67.8865 10.0643 67.5219 10.4594C67.1415 10.8323 66.6877 11.1222 66.1893 11.3106C65.691 11.499 65.1589 11.5818 64.6269 11.5537C64.114 11.5771 63.6016 11.4962 63.1209 11.3159C62.6401 11.1356 62.2009 10.8597 61.8298 10.5048C61.4734 10.132 61.1957 9.69134 61.0131 9.20902C60.8305 8.7267 60.7468 8.21258 60.7669 7.69724V7.69025ZM62.6305 7.63081C62.5854 8.28188 62.7766 8.92736 63.1689 9.44892C63.363 9.66276 63.6026 9.83031 63.8701 9.93924C64.1375 10.0482 64.426 10.0957 64.7143 10.0783C64.9939 10.0962 65.2738 10.0486 65.5317 9.93937C65.7897 9.83012 66.0186 9.66218 66.2003 9.44892C66.5785 8.90308 66.7587 8.24424 66.7107 7.58186C66.7589 6.92231 66.5719 6.26701 66.1828 5.73228C65.9956 5.52495 65.7634 5.36325 65.504 5.25961C65.2446 5.15597 64.9649 5.11314 64.6863 5.13441C64.3986 5.11881 64.1111 5.16968 63.8461 5.28306C63.5811 5.39644 63.3458 5.56929 63.1584 5.78823C62.7744 6.32544 62.5879 6.97885 62.6305 7.6378V7.63081ZM71.235 5.77424C71.2288 5.88634 71.2475 5.99844 71.2898 6.10243C71.3321 6.20643 71.397 6.29973 71.4798 6.37561C71.8089 6.61294 72.1719 6.79919 72.5566 6.92804C73.1307 7.12088 73.6483 7.45234 74.0636 7.89304C74.3543 8.2618 74.5064 8.72081 74.4936 9.19019C74.5028 9.52202 74.4331 9.85129 74.2903 10.1509C74.1475 10.4506 73.9356 10.7121 73.672 10.9139C73.0243 11.3786 72.2373 11.6081 71.4413 11.5642C71.0887 11.5606 70.7374 11.5219 70.3924 11.4488C70.0587 11.3866 69.7327 11.2881 69.4204 11.1551V9.40696C69.7442 9.63292 70.097 9.81405 70.4693 9.9454C70.7953 10.0717 71.1408 10.1403 71.4903 10.1482C71.7983 10.1674 72.1062 10.1085 72.3853 9.97687C72.4815 9.91803 72.5593 9.83349 72.6099 9.73279C72.6606 9.63209 72.6821 9.51924 72.672 9.40696C72.6728 9.28701 72.6464 9.16843 72.595 9.06006C72.5435 8.9517 72.4683 8.85635 72.3748 8.78111C72.0252 8.53348 71.6427 8.33578 71.2385 8.19372C70.7037 8.00195 70.2237 7.68273 69.84 7.26369C69.554 6.88665 69.4082 6.42187 69.4274 5.94906C69.4217 5.62311 69.4927 5.3004 69.6349 5.00702C69.777 4.71364 69.9862 4.45784 70.2455 4.26031C70.8502 3.79628 71.5995 3.56098 72.3609 3.59601C72.6613 3.59991 72.9608 3.63032 73.2559 3.68691C73.5393 3.73334 73.8171 3.80952 74.0846 3.91417V5.6169C73.8259 5.44747 73.5477 5.3101 73.2559 5.20783C72.9555 5.09876 72.6385 5.04199 72.3189 5.04C72.0391 5.02379 71.761 5.09332 71.5217 5.2393C71.4319 5.29794 71.3585 5.37843 71.3084 5.47323C71.2582 5.56802 71.233 5.67401 71.235 5.78123V5.77424ZM75.2628 7.69025C75.2341 7.14674 75.3136 6.60294 75.4966 6.09038C75.6797 5.57782 75.9627 5.1067 76.3292 4.70435C77.0285 3.97012 78.0215 3.603 79.2836 3.603C79.7975 3.57024 80.3125 3.64678 80.7946 3.82758C81.2768 4.00838 81.7151 4.28933 82.0807 4.65191C82.7783 5.43757 83.1388 6.46618 83.0842 7.51543C83.1112 8.0524 83.0308 8.58935 82.8477 9.09486C82.6646 9.60036 82.3824 10.0643 82.0178 10.4594C81.6374 10.8323 81.1836 11.1222 80.6853 11.3106C80.1869 11.499 79.6548 11.5818 79.1228 11.5537C78.6099 11.5771 78.0976 11.4962 77.6168 11.3159C77.136 11.1356 76.6968 10.8597 76.3257 10.5048C75.9694 10.132 75.6916 9.69134 75.509 9.20902C75.3264 8.7267 75.2427 8.21258 75.2628 7.69724V7.69025ZM77.1264 7.63081C77.0814 8.28188 77.2725 8.92736 77.6648 9.44892C77.8586 9.66316 78.0982 9.83099 78.3657 9.93995C78.6333 10.0489 78.9219 10.0962 79.2102 10.0783C79.4898 10.0962 79.7697 10.0486 80.0277 9.93937C80.2856 9.83012 80.5145 9.66218 80.6962 9.44892C81.0745 8.90308 81.2546 8.24424 81.2066 7.58186C81.2548 6.92231 81.0678 6.26701 80.6787 5.73228C80.493 5.52689 80.2631 5.36635 80.0063 5.26278C79.7495 5.15921 79.4725 5.11531 79.1962 5.13441C78.9084 5.11854 78.6208 5.16929 78.3558 5.28268C78.0908 5.39608 77.8556 5.56908 77.6683 5.78823C77.2794 6.32361 77.0879 6.97718 77.1264 7.6378V7.63081ZM89.014 5.24279H86.3498V11.3859H84.5387V5.24979H83.2695V3.78481H84.5387V2.7359C84.5253 2.372 84.5873 2.00926 84.7209 1.6705C84.8545 1.33174 85.0567 1.02427 85.3149 0.767446C85.5798 0.512134 85.8934 0.312763 86.237 0.181213C86.5806 0.0496635 86.9471 -0.0113726 87.3148 0.00174221C87.5076 0.000388504 87.7002 0.0108975 87.8917 0.0332095C88.0426 0.0527408 88.1913 0.0866943 88.3357 0.134604V1.68C88.2361 1.62859 88.1319 1.58646 88.0246 1.55413C87.8594 1.50253 87.6871 1.47774 87.5141 1.4807C87.3531 1.4706 87.192 1.49678 87.0425 1.55729C86.893 1.61781 86.7591 1.71112 86.6505 1.83034C86.4248 2.1313 86.3167 2.50425 86.3463 2.87925V3.7953H89.0105V2.07858L90.8077 1.52965V3.78481H92.6188V5.24979H90.8077V8.80559C90.7734 9.15519 90.8638 9.50565 91.0629 9.79506C91.1675 9.89841 91.2932 9.97786 91.4314 10.028C91.5696 10.0781 91.7171 10.0976 91.8636 10.0853C91.9918 10.0814 92.1183 10.0554 92.2377 10.0083C92.3715 9.96629 92.4996 9.90756 92.6188 9.83352V11.3125C92.4394 11.3978 92.2486 11.4567 92.0524 11.4873C91.7961 11.5425 91.5348 11.5706 91.2727 11.5712C90.9635 11.5944 90.6528 11.5526 90.3607 11.4484C90.0687 11.3442 89.8017 11.18 89.5769 10.9663C89.1628 10.4563 88.9601 9.8068 89.0105 9.15173L89.014 5.24279Z" fill="#737373"/>
<path d="M11.9646 0.785034H0V12.7496H11.9646V0.785034Z" fill="#F25022"/>
<path d="M25.174 0.785034H13.2095V12.7496H25.174V0.785034Z" fill="#7FBA00"/>
<path d="M11.9646 13.9944H0V25.9589H11.9646V13.9944Z" fill="#00A4EF"/>
<path d="M25.174 13.9944H13.2095V25.9589H25.174V13.9944Z" fill="#FFB900"/>
</svg>
