<svg width="144" height="144" viewBox="0 0 144 144" fill="none" xmlns="http://www.w3.org/2000/svg">
<path d="M72.5298 128.7C63.6148 128.707 54.8328 126.538 46.946 122.382C39.0592 118.226 32.306 112.208 27.2724 104.85C22.2389 97.4917 19.0771 89.0164 18.0616 80.1595C17.0462 71.3026 18.2076 62.3317 21.4452 54.0255C24.6828 45.7192 29.8987 38.3286 36.6401 32.4952C43.3815 26.6618 51.4448 22.5618 60.13 20.5511C68.8153 18.5404 77.86 18.6799 86.4791 20.9572C95.0982 23.2346 103.031 27.5812 109.59 33.6196L96.5898 47.2196C91.4215 42.5513 85.0101 39.4822 78.1326 38.3846C71.2551 37.2869 64.2069 38.2077 57.8422 41.0354C51.4776 43.8631 46.0698 48.4762 42.2743 54.3157C38.4789 60.1551 36.4587 66.9701 36.4587 73.9346C36.4587 80.8992 38.4789 87.7142 42.2743 93.5536C46.0698 99.393 51.4776 104.006 57.8422 106.834C64.2069 109.662 71.2551 110.582 78.1326 109.485C85.0101 108.387 91.4215 105.318 96.5898 100.65L109.59 114.25C99.4912 123.552 86.26 128.711 72.5298 128.7Z" fill="var(--gray-4, #bfbfc0)"/>
<path d="M116.611 101.299C115.723 101.299 114.855 101.036 114.117 100.543C113.378 100.049 112.803 99.348 112.463 98.5276C112.123 97.7071 112.034 96.8044 112.207 95.9334C112.381 95.0624 112.808 94.2624 113.436 93.6344C114.064 93.0065 114.864 92.5789 115.735 92.4056C116.606 92.2324 117.509 92.3213 118.329 92.6611C119.15 93.001 119.851 93.5765 120.344 94.3148C120.838 95.0532 121.101 95.9213 121.101 96.8093C121.098 97.9993 120.625 99.1399 119.783 99.9813C118.942 100.823 117.801 101.297 116.611 101.299Z" fill="var(--gray-4, #bfbfc0)"/>
<path d="M72.1798 85.7897C69.8296 85.7996 67.5293 85.1116 65.5705 83.8129C63.6117 82.5142 62.0826 80.6633 61.1768 78.4946C60.271 76.326 60.0294 73.9372 60.4825 71.6311C60.9357 69.325 62.0632 67.2053 63.7222 65.5406C65.3813 63.876 67.4972 62.7413 69.8017 62.2803C72.1063 61.8194 74.4958 62.053 76.6675 62.9514C78.8392 63.8499 80.6953 65.3728 82.0007 67.3272C83.306 69.2816 84.0017 71.5795 83.9998 73.9297C83.9945 77.0666 82.7488 80.0742 80.5344 82.2961C78.32 84.518 75.3167 85.7739 72.1798 85.7897Z" fill="var(--gray-4, #bfbfc0)"/>
<path d="M121.76 85.9995C120.871 85.9995 120.003 85.7362 119.265 85.2428C118.527 84.7495 117.951 84.0482 117.611 83.2278C117.271 82.4073 117.183 81.5045 117.356 80.6336C117.529 79.7626 117.957 78.9626 118.585 78.3346C119.213 77.7067 120.013 77.2791 120.884 77.1058C121.755 76.9326 122.657 77.0215 123.478 77.3613C124.298 77.7011 124.999 78.2766 125.493 79.015C125.986 79.7534 126.25 80.6215 126.25 81.5095C126.247 82.6995 125.773 83.8401 124.932 84.6815C124.09 85.523 122.95 85.9969 121.76 85.9995Z" fill="var(--gray-4, #bfbfc0)"/>
<path d="M108.41 85.44C107.519 85.4399 106.649 85.1753 105.91 84.6796C105.171 84.184 104.595 83.4798 104.257 82.6565C103.919 81.8331 103.833 80.9278 104.01 80.0554C104.187 79.1831 104.62 78.3832 105.253 77.7573C105.886 77.1314 106.69 76.7078 107.565 76.5402C108.439 76.3727 109.343 76.4687 110.163 76.8163C110.982 77.1638 111.68 77.747 112.167 78.492C112.655 79.2369 112.91 80.1099 112.9 81C112.886 82.1821 112.408 83.3113 111.567 84.1426C110.726 84.9739 109.592 85.44 108.41 85.44Z" fill="var(--gray-4, #bfbfc0)"/>
<path d="M121.76 70.8697C120.871 70.8697 120.003 70.6063 119.265 70.1129C118.527 69.6196 117.951 68.9183 117.611 68.0979C117.271 67.2775 117.183 66.3747 117.356 65.5037C117.529 64.6327 117.957 63.8327 118.585 63.2047C119.213 62.5768 120.013 62.1492 120.884 61.9759C121.755 61.8027 122.657 61.8916 123.478 62.2314C124.298 62.5713 124.999 63.1468 125.493 63.8851C125.986 64.6235 126.25 65.4916 126.25 66.3796C126.247 67.5697 125.773 68.7102 124.932 69.5516C124.09 70.3931 122.95 70.867 121.76 70.8697Z" fill="var(--gray-4, #bfbfc0)"/>
<path d="M108.41 71.3794C107.522 71.3794 106.654 71.1161 105.915 70.6227C105.177 70.1293 104.602 69.4281 104.262 68.6077C103.922 67.7872 103.833 66.8844 104.006 66.0135C104.179 65.1425 104.607 64.3424 105.235 63.7145C105.863 63.0866 106.663 62.6589 107.534 62.4857C108.405 62.3124 109.308 62.4014 110.128 62.7412C110.949 63.081 111.65 63.6565 112.143 64.3949C112.637 65.1333 112.9 66.0014 112.9 66.8894C112.9 68.0802 112.427 69.2223 111.585 70.0643C110.743 70.9064 109.601 71.3794 108.41 71.3794Z" fill="var(--gray-4, #bfbfc0)"/>
<path d="M116.871 55.77C115.983 55.772 115.114 55.5104 114.374 55.0182C113.634 54.526 113.057 53.8255 112.716 53.0052C112.374 52.185 112.284 51.2819 112.456 50.4102C112.628 49.5386 113.055 48.7376 113.683 48.1087C114.31 47.4797 115.11 47.0511 115.981 46.877C116.853 46.703 117.756 46.7913 118.577 47.1309C119.398 47.4704 120.1 48.0459 120.594 48.7845C121.088 49.5231 121.351 50.3916 121.351 51.28C121.351 52.4691 120.879 53.6097 120.04 54.4514C119.2 55.2932 118.06 55.7674 116.871 55.77Z" fill="var(--gray-4, #bfbfc0)"/>
</svg>