<svg width="55" height="55" viewBox="0 0 55 55" fill="none" xmlns="http://www.w3.org/2000/svg">
<path d="M27.7022 49.1565C24.2972 49.1593 20.943 48.331 17.9306 46.7435C14.9183 45.1561 12.3389 42.8574 10.4164 40.0471C8.49386 37.2368 7.28625 33.9997 6.89839 30.6169C6.51053 27.234 6.95415 23.8076 8.19073 20.6351C9.42731 17.4626 11.4195 14.6398 13.9943 12.4117C16.5692 10.1837 19.6489 8.61773 22.9662 7.84977C26.2835 7.0818 29.738 7.13505 33.0301 8.00489C36.3221 8.87473 39.3521 10.5349 41.8571 12.8412V12.8412L36.8918 18.0357C34.9178 16.2526 32.469 15.0804 29.8422 14.6612C27.2153 14.2419 24.5233 14.5936 22.0924 15.6736C19.6614 16.7536 17.596 18.5156 16.1463 20.746C14.6966 22.9763 13.925 25.5792 13.925 28.2393C13.925 30.8994 14.6966 33.5023 16.1463 35.7327C17.596 37.963 19.6614 39.725 22.0924 40.805C24.5233 41.885 27.2153 42.2367 29.8422 41.8175C32.469 41.3982 34.9178 40.226 36.8918 38.443L41.8571 43.6374C38 47.1905 32.9464 49.161 27.7022 49.1565V49.1565Z" fill="#E03875"/>
<path d="M44.5377 38.6915C44.1985 38.6915 43.8669 38.5909 43.5849 38.4024C43.3029 38.214 43.0831 37.9462 42.9533 37.6328C42.8235 37.3194 42.7895 36.9746 42.8557 36.642C42.9219 36.3093 43.0852 36.0037 43.325 35.7639C43.5649 35.5241 43.8705 35.3607 44.2031 35.2945C44.5358 35.2284 44.8806 35.2623 45.194 35.3921C45.5073 35.5219 45.7752 35.7417 45.9636 36.0238C46.152 36.3058 46.2526 36.6373 46.2526 36.9765C46.2516 37.431 46.0706 37.8667 45.7492 38.1881C45.4278 38.5094 44.9922 38.6905 44.5377 38.6915V38.6915Z" fill="#E03875"/>
<path d="M27.5684 32.7673C26.6708 32.7711 25.7922 32.5083 25.044 32.0122C24.2959 31.5162 23.7118 30.8093 23.3659 29.9809C23.0199 29.1526 22.9276 28.2403 23.1007 27.3595C23.2738 26.4787 23.7044 25.6691 24.3381 25.0333C24.9718 24.3975 25.7799 23.9641 26.6601 23.788C27.5403 23.612 28.453 23.7012 29.2825 24.0443C30.1119 24.3875 30.8209 24.9692 31.3194 25.7156C31.818 26.4621 32.0837 27.3398 32.083 28.2374C32.081 29.4355 31.6052 30.5843 30.7594 31.4329C29.9136 32.2815 28.7665 32.7612 27.5684 32.7673V32.7673Z" fill="#E03875"/>
<path d="M46.5055 32.8475C46.1663 32.8475 45.8347 32.7469 45.5527 32.5584C45.2707 32.37 45.0509 32.1022 44.9211 31.7888C44.7913 31.4754 44.7573 31.1306 44.8235 30.798C44.8897 30.4653 45.053 30.1597 45.2928 29.9199C45.5327 29.6801 45.8382 29.5167 46.1709 29.4506C46.5036 29.3844 46.8484 29.4183 47.1617 29.5481C47.4751 29.6779 47.7429 29.8977 47.9314 30.1798C48.1198 30.4618 48.2204 30.7934 48.2204 31.1325C48.2194 31.5871 48.0384 32.0227 47.717 32.3441C47.3956 32.6654 46.96 32.8465 46.5055 32.8475Z" fill="#E03875"/>
<path d="M41.4062 32.6334C41.0662 32.6333 40.7339 32.5322 40.4515 32.343C40.1691 32.1537 39.9493 31.8847 39.8201 31.5702C39.6909 31.2557 39.6581 30.9099 39.7258 30.5768C39.7935 30.2436 39.9588 29.9381 40.2005 29.699C40.4423 29.46 40.7496 29.2981 41.0835 29.2341C41.4174 29.1702 41.7628 29.2068 42.0759 29.3396C42.3889 29.4723 42.6554 29.6951 42.8415 29.9796C43.0276 30.2641 43.125 30.5975 43.1212 30.9375C43.1161 31.389 42.9332 31.8203 42.6122 32.1378C42.2911 32.4553 41.8578 32.6334 41.4062 32.6334V32.6334Z" fill="#E03875"/>
<path d="M46.5055 27.0687C46.1663 27.0687 45.8347 26.9681 45.5527 26.7796C45.2707 26.5912 45.0509 26.3234 44.9211 26.01C44.7913 25.6966 44.7573 25.3518 44.8235 25.0192C44.8897 24.6865 45.053 24.3809 45.2928 24.1411C45.5327 23.9013 45.8382 23.7379 46.1709 23.6717C46.5036 23.6056 46.8484 23.6395 47.1617 23.7693C47.4751 23.8991 47.7429 24.1189 47.9314 24.401C48.1198 24.683 48.2204 25.0145 48.2204 25.3537C48.2194 25.8082 48.0384 26.2439 47.717 26.5653C47.3956 26.8866 46.96 27.0676 46.5055 27.0687Z" fill="#E03875"/>
<path d="M41.4063 27.2636C41.0672 27.2636 40.7356 27.163 40.4536 26.9746C40.1716 26.7861 39.9517 26.5183 39.8219 26.2049C39.6921 25.8916 39.6582 25.5468 39.7244 25.2141C39.7905 24.8814 39.9539 24.5759 40.1937 24.336C40.4335 24.0962 40.7391 23.9329 41.0718 23.8667C41.4044 23.8005 41.7493 23.8345 42.0626 23.9643C42.376 24.0941 42.6438 24.3139 42.8323 24.5959C43.0207 24.8779 43.1213 25.2095 43.1213 25.5487C43.1213 26.0035 42.9406 26.4397 42.619 26.7613C42.2974 27.0829 41.8612 27.2636 41.4063 27.2636V27.2636Z" fill="#E03875"/>
<path d="M44.6372 21.3011C44.2979 21.3018 43.9659 21.2019 43.6834 21.0139C43.4009 20.8259 43.1805 20.5584 43.0501 20.2451C42.9197 19.9318 42.8852 19.5868 42.9509 19.2539C43.0167 18.921 43.1797 18.6151 43.4194 18.3749C43.6591 18.1346 43.9646 17.9709 44.2974 17.9044C44.6302 17.838 44.9752 17.8717 45.2888 18.0014C45.6024 18.1311 45.8704 18.3509 46.059 18.633C46.2476 18.9151 46.3483 19.2468 46.3483 19.5861C46.3483 20.0403 46.1682 20.4759 45.8474 20.7974C45.5266 21.1189 45.0914 21.3001 44.6372 21.3011Z" fill="#E03875"/>
</svg>
