<svg width="40" height="38" fill="none" xmlns="http://www.w3.org/2000/svg">
  <circle cx="7.128" cy="5.553" r="4.831" fill="#BDBEC2"/>
  <circle cx="20.096" cy="5.553" r="4.831" fill="#BDBEC2"/>
  <circle cx="33.064" cy="5.553" r="4.831" fill="#BDBEC2"/>
  <path d="M19.397 22.402h.814v-2.409h2.19v-.836h-2.19V16.76h-.814v2.398h-2.189v.836h2.19v2.41ZM4.353 35.776c1.914 0 3.113-1.243 3.366-2.75H6.487c-.165.836-.946 1.672-2.145 1.672-1.408 0-2.332-1.199-2.332-2.783 0-1.617.924-2.893 2.376-2.893 1.144 0 1.925.781 2.1 1.65H7.72c-.231-1.529-1.441-2.728-3.3-2.728-2.123 0-3.62 1.672-3.63 3.96-.011 2.255 1.562 3.872 3.564 3.872Zm6.703.088c.88 0 1.452-.517 1.672-.858v.715h1.056v-5.5h-1.056v2.838c0 1.155-.649 1.86-1.44 1.86-.672 0-1.167-.474-1.167-1.43V30.22H8.988v3.377c0 1.75 1.21 2.266 2.068 2.266Zm6.29-.022c1.09 0 2.123-.66 2.123-1.749 0-.869-.528-1.44-2.189-1.66-.715-.1-1.045-.364-1.045-.727 0-.44.484-.66.968-.66.44 0 1.056.165 1.155.946h.99c-.088-1.342-1.122-1.87-2.167-1.87-1.22 0-2.013.737-2.013 1.573 0 .627.297 1.364 2.112 1.628.858.132 1.09.407 1.09.77 0 .462-.375.847-1.046.847-.649 0-1.188-.34-1.298-.979h-1.023c.066 1.254 1.122 1.881 2.343 1.881Zm4.834-.12h.957v-.947h-.715c-.506 0-.672-.187-.672-.737v-2.915h1.375v-.902H21.75v-1.716h-1.044v1.716h-.848v.902h.848v3.146c0 .87.605 1.452 1.474 1.452Zm4.15.054c1.486 0 2.63-1.166 2.63-2.805 0-1.66-1.122-2.827-2.63-2.827-1.495 0-2.64 1.166-2.64 2.827 0 1.64 1.145 2.805 2.64 2.805Zm-.01-.99c-.98 0-1.562-.78-1.562-1.815 0-1.056.594-1.837 1.573-1.837 1.012 0 1.584.792 1.584 1.848 0 1.034-.594 1.804-1.595 1.804Zm3.909.935h1.056v-2.838c0-1.155.583-1.859 1.353-1.859.671 0 1.166.451 1.166 1.43v3.267h1.133v-2.838c0-1.155.583-1.859 1.353-1.859.671 0 1.166.451 1.166 1.43v3.267h1.133v-3.377c0-1.749-1.232-2.266-2.09-2.266-.869 0-1.496.451-1.859 1.067a1.956 1.956 0 0 0-1.771-1.067 1.83 1.83 0 0 0-1.584.858v-.715h-1.056v5.5Z" fill="#727274"/>
</svg>