<svg width="43" height="43" viewBox="0 0 43 43" fill="none" xmlns="http://www.w3.org/2000/svg">
<path d="M26.1751 14.1609H27.261L30.3557 11.0662L30.5077 9.75228C26.9034 6.57102 21.912 5.47639 17.3072 6.85738C12.7024 8.23837 9.13715 11.8992 7.87842 16.5389C8.22318 16.3976 8.60509 16.3747 8.96428 16.4737L15.1537 15.453C15.1537 15.453 15.4686 14.9318 15.6314 14.9644C18.3846 11.9407 23.018 11.5883 26.1969 14.1609H26.1751Z" fill="#EA4335"/>
<path d="M34.7642 16.5389C34.0529 13.9195 32.5924 11.5646 30.5619 9.76318L26.2185 14.1066C28.0526 15.6052 29.0973 17.8628 29.0526 20.2309V21.0018C31.1875 21.0018 32.9182 22.7325 32.9182 24.8675C32.9182 27.0024 31.1875 28.7331 29.0526 28.7331H21.3213L20.5503 29.5149V34.1516L21.3213 34.9225H29.0526C33.4854 34.957 37.4179 32.0845 38.7331 27.8511C40.0484 23.6178 38.4361 19.0225 34.7642 16.5389Z" fill="#4285F4"/>
<path d="M13.5792 34.879H21.3105V28.6896H13.5792C13.0284 28.6895 12.484 28.571 11.983 28.3422L10.8972 28.6788L7.78074 31.7735L7.50928 32.8593C9.25689 34.179 11.3894 34.8885 13.5792 34.879Z" fill="#34A853"/>
<path d="M13.5791 14.8016C9.28461 14.8272 5.48046 17.5775 4.1099 21.6475C2.73935 25.7175 4.10496 30.2087 7.50914 32.8268L11.9937 28.3422C10.4269 27.6343 9.51589 25.9766 9.75828 24.2745C10.0007 22.5723 11.3382 21.2348 13.0404 20.9924C14.7425 20.75 16.4002 21.661 17.1081 23.2278L21.5927 18.7432C19.6846 16.2488 16.7196 14.7904 13.5791 14.8016Z" fill="#FBBC05"/>
</svg>
