<svg width="43" height="43" viewBox="0 0 43 43" fill="none" xmlns="http://www.w3.org/2000/svg"><path d="M26.175 14.16h1.086l3.095-3.094.152-1.314a13.91 13.91 0 00-22.63 6.787 1.684 1.684 0 011.086-.065l6.19-1.021s.315-.521.477-.489a7.72 7.72 0 0110.566-.803h-.022z" fill="var(--gray-4, #bfbfc0)"/><path d="M34.764 16.539a13.942 13.942 0 00-4.202-6.776l-4.344 4.344a7.72 7.72 0 012.835 6.124V21a3.866 3.866 0 010 7.732H21.32l-.77.782v4.637l.77.77h7.732a10.055 10.055 0 005.711-18.383z" fill="var(--gray-4, #bfbfc0)"/><path d="M13.58 34.879h7.73v-6.19h-7.73c-.552 0-1.096-.118-1.597-.347l-1.086.337-3.116 3.095-.272 1.085a10 10 0 006.07 2.02z" fill="var(--gray-4, #bfbfc0)"/><path d="M13.58 14.802a10.055 10.055 0 00-6.07 18.025l4.484-4.485a3.866 3.866 0 115.114-5.114l4.485-4.485a10.044 10.044 0 00-8.014-3.941z" fill="var(--gray-4, #bfbfc0)"/></svg>