<svg width="38" height="39" viewBox="0 0 38 39" fill="none" xmlns="http://www.w3.org/2000/svg"><path fill-rule="evenodd" clip-rule="evenodd" d="M18.942.529C8.483.529 0 9.235 0 19.969c0 8.587 5.462 15.863 12.9 18.486.929.12 1.277-.477 1.277-.954v-3.339c-5.229 1.193-6.391-2.624-6.391-2.624-.814-2.266-2.092-2.862-2.092-2.862-1.743-1.193.116-1.193.116-1.193 1.86.12 2.906 2.028 2.906 2.028 1.743 2.981 4.416 2.146 5.461 1.67.117-1.313.698-2.148 1.162-2.625-4.183-.477-8.599-2.146-8.599-9.66 0-2.147.697-3.817 1.976-5.248-.117-.358-.814-2.385.232-5.009 0 0 1.627-.477 5.23 2.027 1.51-.476 3.137-.596 4.764-.596 1.627 0 3.254.239 4.764.596 3.603-2.504 5.23-2.027 5.23-2.027 1.046 2.624.348 4.651.232 5.129a7.826 7.826 0 011.976 5.247c0 7.514-4.416 9.064-8.6 9.541.698.597 1.279 1.79 1.279 3.578v5.367c0 .477.348 1.074 1.278.955C32.654 35.831 38 28.556 38 19.969 37.884 9.235 29.4.53 18.942.53z" fill="var(--gray-4, #bfbfc0)"/></svg>