<svg width="38" height="38" fill="none" xmlns="http://www.w3.org/2000/svg">
  <path fill-rule="evenodd" clip-rule="evenodd" d="M18.942.515C8.483.515 0 9 0 19.457c0 8.367 5.462 15.456 12.9 18.012.929.117 1.277-.464 1.277-.93v-3.253c-5.229 1.162-6.391-2.557-6.391-2.557-.814-2.207-2.092-2.788-2.092-2.788-1.743-1.163.116-1.163.116-1.163 1.86.117 2.906 1.976 2.906 1.976 1.743 2.905 4.416 2.092 5.461 1.627.117-1.279.698-2.092 1.162-2.557-4.183-.465-8.599-2.091-8.599-9.413 0-2.091.697-3.718 1.976-5.113-.117-.348-.814-2.324.232-4.88 0 0 1.627-.465 5.23 1.975 1.51-.465 3.137-.581 4.764-.581 1.627 0 3.254.232 4.764.581 3.603-2.44 5.23-1.975 5.23-1.975 1.046 2.556.348 4.532.232 4.997a7.516 7.516 0 0 1 1.976 5.113c0 7.32-4.416 8.831-8.6 9.296.698.581 1.279 1.743 1.279 3.486v5.23c0 .465.348 1.046 1.278.93A18.962 18.962 0 0 0 38 19.456C37.884 9 29.4.515 18.942.515Z" fill="#000"/>
</svg>