<svg width="44" height="43" viewBox="0 0 44 43" fill="none" xmlns="http://www.w3.org/2000/svg"><path d="M20.842 17.267l.267-4.74a9.257 9.257 0 00-5.424 2.609l3.87 2.755.008-.004a.795.795 0 001.26-.61l.019-.01zM28.755 15.138a9.33 9.33 0 00-5.39-2.61l.267 4.732.003.002a.793.793 0 001.261.608l.014.006 3.845-2.738zM17.816 20.08l-3.534-3.174a9.339 9.339 0 00-1.315 5.891l4.53-1.313.003-.015a.798.798 0 00.311-1.369l.005-.02zM31.324 19.752a9.446 9.446 0 00-1.16-2.844l-3.514 3.16.002.009a.797.797 0 00.311 1.369l.004.02 4.553 1.316a9.444 9.444 0 00-.196-3.03zM22.959 20.326H21.51l-.902 1.127.323 1.41 1.304.63 1.3-.628.322-1.41-.9-1.13zM26.335 24.205a.788.788 0 00-.486.066.8.8 0 00-.385 1.033l-.006.007 1.819 4.412a9.311 9.311 0 003.75-4.732l-4.685-.796-.007.01zM19.044 24.83a.794.794 0 00-.917-.606l-.008-.01-4.644.792a9.35 9.35 0 003.739 4.7l1.8-4.368-.014-.017a.792.792 0 00.044-.49zM22.578 26.203a.794.794 0 00-1.042.342h-.004l-2.284 4.148c1.58.54 3.326.662 5.078.262.312-.071.617-.156.915-.256l-2.29-4.156h-.017a.79.79 0 00-.356-.34z" fill="var(--gray-4, #bfbfc0)"/><path fill-rule="evenodd" clip-rule="evenodd" d="M20.985.284a2.884 2.884 0 012.496 0l15.034 7.21a2.873 2.873 0 011.556 1.942l3.714 16.204a2.852 2.852 0 01-.556 2.423l-10.4 12.995a2.873 2.873 0 01-2.248 1.075l-16.686.004a2.884 2.884 0 01-2.247-1.078L1.243 28.067a2.883 2.883 0 01-.554-2.423L4.398 9.44a2.859 2.859 0 011.555-1.943L20.985.284zm.35 6.238c0-.554.404-1.004.9-1.004.498 0 .9.45.9 1.004l.002.091c0 .059.002.12 0 .166-.007.211-.04.39-.074.57-.017.094-.034.189-.049.29l-.005.047c-.074.61-.135 1.118-.097 1.592.031.21.14.31.245.406l.05.045c.002.066.013.284.02.404 2.862.255 5.518 1.57 7.47 3.624l.342-.245.047.003c.129.01.345.027.5-.063.392-.266.75-.632 1.18-1.07l.032-.032c.068-.073.13-.144.191-.214.122-.14.242-.279.403-.418.04-.034.095-.077.145-.117l.055-.043c.432-.346 1.032-.31 1.342.081.31.39.21.987-.22 1.332l-.066.054c-.046.038-.094.078-.133.107-.168.124-.327.209-.488.295a6.637 6.637 0 00-.26.143c-.538.334-.984.61-1.338.944-.145.155-.155.304-.164.446a3.414 3.414 0 01-.005.066l-.137.123-.182.164a11.724 11.724 0 011.686 3.914c.326 1.426.377 2.85.188 4.22l.364.105.025.038c.072.106.196.29.363.354.458.145.974.2 1.594.265l.019.002c.102.008.198.012.294.016.184.007.364.014.57.053l.164.038c.034.01.068.017.097.024.53.129.87.618.761 1.1-.11.483-.628.776-1.161.661h-.007l-.007-.002c-.006-.001-.011-.004-.017-.006l-.086-.017a2.518 2.518 0 01-.147-.033 3.694 3.694 0 01-.536-.2c-.088-.038-.176-.076-.271-.113l-.027-.01c-.584-.21-1.069-.384-1.542-.453-.21-.017-.332.068-.448.15l-.056.037c-.065-.013-.268-.049-.384-.067a11.75 11.75 0 01-5.187 6.553c.014.033.03.079.048.127.038.1.079.211.102.238l-.025.063c-.053.131-.107.268-.044.47.174.455.457.9.797 1.434.057.085.114.163.17.24.108.148.215.294.313.48a4.625 4.625 0 01.117.244c.232.497.062 1.07-.382 1.284-.448.217-1.005-.012-1.244-.512a9.654 9.654 0 00-.034-.068c-.028-.056-.057-.117-.078-.163-.084-.195-.132-.37-.18-.55-.026-.091-.05-.183-.081-.279l-.009-.025c-.2-.59-.366-1.08-.608-1.494-.12-.177-.261-.22-.398-.261l-.062-.02-.09-.16c-.035-.067-.074-.138-.102-.187a11.578 11.578 0 01-8.304-.021l-.203.37c-.152.041-.298.083-.388.19-.23.276-.363.67-.505 1.087-.06.177-.12.358-.192.537-.03.097-.056.19-.08.283a3.727 3.727 0 01-.18.545 3.41 3.41 0 01-.11.23v.002c-.001 0-.002 0-.003.002-.24.498-.795.726-1.242.51-.444-.215-.614-.788-.382-1.285a5.49 5.49 0 00.04-.087c.026-.055.052-.113.075-.156.099-.187.206-.334.315-.484.056-.077.112-.154.168-.238.34-.535.64-1.015.814-1.47.044-.151-.021-.358-.08-.511l.163-.394a11.75 11.75 0 01-5.188-6.507l-.393.068a2.685 2.685 0 01-.04-.023c-.113-.066-.299-.175-.477-.16-.473.068-.959.243-1.543.453l-.026.01a6.89 6.89 0 00-.266.11c-.17.074-.337.145-.541.2a3.405 3.405 0 01-.233.053.06.06 0 00-.008.002l-.009.003-.013.002c-.534.116-1.052-.178-1.162-.66-.11-.482.231-.972.762-1.1l.013-.005h.004l.004-.002c.022-.005.047-.01.072-.017.058-.014.12-.03.168-.038.205-.04.386-.047.569-.054.096-.004.193-.008.294-.016l.02-.002c.62-.065 1.135-.12 1.593-.264.13-.054.255-.219.35-.345l.037-.047.377-.11a11.734 11.734 0 011.836-8.152l-.289-.26a2.99 2.99 0 01-.006-.041c-.019-.127-.051-.348-.175-.48-.353-.333-.8-.61-1.338-.944a6.592 6.592 0 00-.257-.142 3.694 3.694 0 01-.489-.296 3.502 3.502 0 01-.192-.155l-.007-.005c-.432-.346-.531-.942-.222-1.333a.865.865 0 01.718-.318c.215.007.438.086.626.237l.054.043c.05.04.106.083.146.117.16.139.279.276.4.415.061.072.124.144.192.217l.016.016c.437.446.8.816 1.197 1.085.184.107.33.084.47.061l.065-.01c.052.039.226.164.325.232a11.563 11.563 0 017.506-3.624l.02-.382c.12-.117.255-.284.293-.467.039-.483-.023-1.002-.098-1.627l-.002-.013a6.848 6.848 0 00-.049-.288 3.786 3.786 0 01-.074-.571c-.002-.045 0-.101 0-.157l.002-.075-.001-.012-.001-.013z" fill="var(--gray-4, #bfbfc0)"/></svg>