<svg width="44" height="43" viewBox="0 0 44 43" fill="none" xmlns="http://www.w3.org/2000/svg">
<path d="M21.4701 0.195618C21.0879 0.215008 20.7133 0.310444 20.3685 0.476326L5.33614 7.7089C4.94707 7.896 4.6052 8.16824 4.33594 8.5054C4.06668 8.84256 3.87693 9.23598 3.7808 9.65643L0.0722203 25.9026C-0.0134163 26.2769 -0.0230002 26.6646 0.0440358 27.0427C0.111072 27.4208 0.253366 27.7816 0.462496 28.1038C0.513205 28.1825 0.567743 28.2588 0.625912 28.3322L11.0307 41.359C11.3 41.696 11.6419 41.9682 12.031 42.1552C12.4201 42.3422 12.8464 42.4393 13.2782 42.4392L29.9639 42.4353C30.3955 42.4356 30.8217 42.3389 31.2108 42.1522C31.5998 41.9655 31.9418 41.6937 32.2113 41.357L42.6123 28.3283C42.8818 27.9911 43.0716 27.5975 43.1678 27.1769C43.264 26.7563 43.2641 26.3194 43.1679 25.8987L39.4536 9.65256C39.3574 9.23211 39.1677 8.83869 38.8984 8.50153C38.6292 8.16437 38.2873 7.89213 37.8982 7.70503L22.864 0.476326C22.4302 0.26766 21.9509 0.171138 21.4701 0.195618Z" fill="#326CE5"/>
<path d="M21.6188 5.72449C21.1219 5.72454 20.719 6.17522 20.7191 6.73116C20.7191 6.73969 20.7208 6.74785 20.721 6.75633C20.7203 6.83187 20.7167 6.92287 20.7191 6.98864C20.7309 7.30929 20.8004 7.5547 20.8421 7.85012C20.9178 8.48242 20.9812 9.00655 20.9421 9.49371C20.904 9.67742 20.7697 9.84542 20.6499 9.9622L20.6287 10.3455C20.0888 10.3906 19.5452 10.4731 19.0023 10.5972C16.666 11.1313 14.6545 12.3431 13.1231 13.9792C13.0238 13.911 12.8499 13.7854 12.7982 13.7469C12.6376 13.7688 12.4752 13.8187 12.2637 13.6946C11.8611 13.4217 11.4944 13.045 11.0506 12.5912C10.8473 12.3741 10.7001 12.1674 10.4585 11.9581C10.4036 11.9106 10.3199 11.8463 10.2585 11.7974C10.0697 11.6458 9.84692 11.5667 9.63179 11.5593C9.35519 11.5498 9.08893 11.6587 8.91468 11.8788C8.60491 12.27 8.70408 12.868 9.13577 13.2145C9.14015 13.2181 9.14482 13.2208 9.14923 13.2242C9.20855 13.2726 9.28119 13.3347 9.33572 13.3752C9.59207 13.5658 9.82624 13.6634 10.0817 13.8147C10.6198 14.1493 11.0659 14.4268 11.4198 14.7613C11.5579 14.9096 11.5821 15.171 11.6005 15.284L11.8889 15.5434C10.3451 17.8829 9.6306 20.7725 10.0528 23.7169L9.67601 23.8272C9.57669 23.9564 9.43636 24.1596 9.28958 24.2202C8.82662 24.367 8.30559 24.421 7.67656 24.4874C7.38124 24.5121 7.12643 24.4973 6.81334 24.5571C6.74443 24.5702 6.64842 24.5954 6.57302 24.6132C6.5704 24.6138 6.56795 24.6145 6.56533 24.6151C6.56122 24.6161 6.55582 24.6181 6.55188 24.619C6.02155 24.748 5.68087 25.2389 5.79055 25.7225C5.90025 26.2062 6.41826 26.5004 6.95176 26.3846C6.95562 26.3837 6.96121 26.3835 6.96522 26.3826C6.97125 26.3812 6.97655 26.3783 6.98253 26.3768C7.0569 26.3604 7.1501 26.3421 7.21515 26.3246C7.52296 26.2416 7.74589 26.1196 8.02262 26.0129C8.61796 25.7979 9.11104 25.6182 9.59141 25.5482C9.79205 25.5324 10.0034 25.6729 10.1086 25.7322L10.5008 25.6644C11.4033 28.482 13.2947 30.7594 15.6897 32.1884L15.5263 32.5834C15.5852 32.7367 15.6502 32.9442 15.6063 33.0956C15.4317 33.5517 15.1325 34.033 14.7919 34.5696C14.627 34.8175 14.4582 35.0099 14.3093 35.2936C14.2737 35.3615 14.2284 35.4658 14.194 35.5376C13.9627 36.0358 14.1324 36.6096 14.5766 36.8249C15.0236 37.0416 15.5784 36.8131 15.8185 36.3139C15.8189 36.3132 15.8201 36.3126 15.8204 36.3119C15.8207 36.3114 15.8202 36.3105 15.8204 36.31C15.8546 36.2392 15.9031 36.1462 15.932 36.0796C16.0594 35.7855 16.1019 35.5335 16.1915 35.2491C16.4296 34.647 16.5604 34.0151 16.8881 33.6215C16.9778 33.5136 17.1241 33.4722 17.2758 33.4313L17.4796 33.0596C19.5675 33.8666 21.9046 34.0832 24.2393 33.5494C24.7718 33.4276 25.286 33.27 25.7831 33.0809C25.8403 33.1832 25.9468 33.3798 25.9753 33.4294C26.1295 33.4799 26.2977 33.5059 26.4348 33.7101C26.68 34.1319 26.8477 34.6309 27.0519 35.2336C27.1416 35.518 27.1859 35.7701 27.3134 36.0641C27.3425 36.1312 27.3907 36.2255 27.4249 36.2964C27.6645 36.7973 28.2211 37.0266 28.6688 36.8095C29.1129 36.594 29.2828 36.0202 29.0514 35.5221C29.017 35.4503 28.9697 35.346 28.9341 35.2782C28.7853 34.9944 28.6165 34.804 28.4515 34.5561C28.1109 34.0195 27.8284 33.5737 27.6537 33.1177C27.5807 32.8825 27.666 32.7362 27.7229 32.5834C27.6888 32.544 27.6159 32.3219 27.5729 32.2175C30.0619 30.7376 31.8978 28.3753 32.76 25.647C32.8764 25.6654 33.0787 25.7015 33.1445 25.7147C33.2798 25.6249 33.4042 25.5076 33.6482 25.527C34.1286 25.5969 34.6216 25.7766 35.217 25.9916C35.4937 26.0983 35.7166 26.2222 36.0244 26.3052C36.0895 26.3227 36.1827 26.3391 36.2571 26.3555C36.263 26.357 36.2683 26.36 36.2744 26.3613C36.2784 26.3622 36.284 26.3624 36.2878 26.3633C36.8214 26.4789 37.3395 26.1849 37.449 25.7012C37.5586 25.2176 37.2181 24.7266 36.6877 24.5977C36.6106 24.5801 36.5012 24.5501 36.4262 24.5358C36.1132 24.4761 35.8584 24.4908 35.563 24.4661C34.934 24.3997 34.413 24.3457 33.95 24.1989C33.7613 24.1252 33.627 23.899 33.5617 23.8059L33.1983 23.6995C33.3867 22.327 33.3359 20.8986 33.0099 19.4695C32.6808 18.027 32.0993 16.7077 31.3238 15.5454C31.417 15.4601 31.593 15.3031 31.643 15.2569C31.6576 15.0944 31.645 14.9239 31.8121 14.7439C32.166 14.4093 32.6121 14.1319 33.1502 13.7972C33.4057 13.6459 33.6418 13.5484 33.8981 13.3578C33.9561 13.3147 34.0352 13.2464 34.0961 13.1971C34.5277 12.8504 34.6271 12.2525 34.3172 11.8613C34.0073 11.4702 33.4069 11.4333 32.9753 11.78C32.9139 11.829 32.8305 11.8929 32.7753 11.9407C32.5338 12.15 32.3846 12.3567 32.1813 12.5738C31.7376 13.0276 31.3708 13.4062 30.9681 13.6792C30.7937 13.7814 30.5381 13.7461 30.4221 13.7392L30.0799 13.985C28.1285 11.9246 25.4717 10.6072 22.6109 10.3513C22.6029 10.2306 22.5924 10.0124 22.5897 9.94672C22.4726 9.83387 22.3311 9.73752 22.2956 9.49371C22.2564 9.00655 22.3218 8.48242 22.3975 7.85012C22.4392 7.5547 22.5087 7.30929 22.5205 6.98864C22.5232 6.91575 22.5189 6.80998 22.5186 6.73116C22.5185 6.17522 22.1157 5.72444 21.6188 5.72449H21.6188ZM20.4922 12.7519L20.225 17.5045L20.2058 17.5142C20.1878 17.9394 19.8403 18.2789 19.4137 18.2789C19.2389 18.2789 19.0776 18.2224 18.9465 18.126L18.9388 18.1298L15.0687 15.3673C16.2582 14.1895 17.7795 13.3192 19.5329 12.9183C19.8532 12.8451 20.1733 12.7908 20.4922 12.7519ZM22.7474 12.7519C24.7944 13.0054 26.6875 13.9387 28.1382 15.3692L24.2931 18.1143L24.2796 18.1085C23.9384 18.3595 23.4575 18.2973 23.1915 17.9614C23.0825 17.8238 23.0253 17.662 23.0184 17.4987L23.0146 17.4968L22.7474 12.7519ZM13.6653 17.1425L17.1989 20.3251L17.1951 20.3445C17.514 20.6237 17.5611 21.1082 17.295 21.4441C17.1861 21.5817 17.0402 21.674 16.8836 21.7171L16.8798 21.7326L12.3503 23.049C12.1197 20.9263 12.6166 18.8628 13.6653 17.1425ZM29.5474 17.1444C30.0724 18.0014 30.47 18.9584 30.7067 19.996C30.9405 21.0212 30.9992 22.0445 30.9028 23.0335L26.3502 21.7132L26.3464 21.6938C25.9387 21.5816 25.6882 21.1641 25.7831 20.7452C25.8219 20.5737 25.9124 20.4285 26.0349 20.3213L26.033 20.3116L29.5474 17.1444H29.5474ZM20.894 20.571H22.3417L23.2415 21.7035L22.9185 23.1167L21.6188 23.7459L20.3154 23.1148L19.9924 21.7016L20.894 20.571ZM25.5351 24.4467C25.5966 24.4436 25.6578 24.4492 25.7177 24.4603L25.7254 24.4506L30.4106 25.2482C29.7249 27.188 28.4129 28.8685 26.6597 29.9931L24.841 25.5695L24.8468 25.5618C24.6797 25.1709 24.8469 24.7125 25.2313 24.5261C25.3297 24.4784 25.4325 24.4519 25.5351 24.4467H25.5351ZM17.6661 24.4661C18.0236 24.4711 18.3443 24.721 18.4274 25.0875C18.4663 25.2591 18.4474 25.4291 18.3832 25.5792L18.3967 25.5966L16.5972 29.9757C14.9147 28.8886 13.5747 27.2608 12.8578 25.2637L17.5027 24.4699L17.5104 24.4796C17.5623 24.47 17.615 24.4653 17.6661 24.4661V24.4661ZM21.59 26.3846C21.7145 26.3799 21.8409 26.4057 21.9611 26.4639C22.1185 26.5403 22.2402 26.6605 22.3167 26.8047H22.334L24.6238 30.9707C24.3266 31.071 24.0211 31.1568 23.7086 31.2282C21.9575 31.6286 20.2119 31.5073 18.6312 30.9649L20.9152 26.8066H20.919C21.0561 26.5486 21.316 26.3947 21.59 26.3846Z" fill="white" stroke="white" stroke-width="0.219373"/>
<path d="M21.4701 0.195618C21.0879 0.215008 20.7133 0.310444 20.3685 0.476326L5.33614 7.7089C4.94707 7.896 4.6052 8.16824 4.33594 8.5054C4.06668 8.84256 3.87693 9.23598 3.7808 9.65643L0.0722203 25.9026C-0.0134163 26.2769 -0.0230002 26.6646 0.0440358 27.0427C0.111072 27.4208 0.253366 27.7816 0.462496 28.1038C0.513205 28.1825 0.567743 28.2588 0.625912 28.3322L11.0307 41.359C11.3 41.696 11.6419 41.9682 12.031 42.1552C12.4201 42.3422 12.8464 42.4393 13.2782 42.4392L29.9639 42.4353C30.3955 42.4356 30.8217 42.3389 31.2108 42.1522C31.5998 41.9655 31.9418 41.6937 32.2113 41.357L42.6123 28.3283C42.8818 27.9911 43.0716 27.5975 43.1678 27.1769C43.264 26.7563 43.2641 26.3194 43.1679 25.8987L39.4536 9.65256C39.3574 9.23211 39.1677 8.83869 38.8984 8.50153C38.6292 8.16437 38.2873 7.89213 37.8982 7.70503L22.864 0.476326C22.4302 0.26766 21.9509 0.171138 21.4701 0.195618Z" fill="#326CE5"/>
<path d="M21.6188 5.72449C21.1219 5.72454 20.719 6.17522 20.7191 6.73116C20.7191 6.73969 20.7208 6.74785 20.721 6.75633C20.7203 6.83187 20.7167 6.92287 20.7191 6.98864C20.7309 7.30929 20.8004 7.5547 20.8421 7.85012C20.9178 8.48242 20.9812 9.00655 20.9421 9.49371C20.904 9.67742 20.7697 9.84542 20.6499 9.9622L20.6287 10.3455C20.0888 10.3906 19.5452 10.4731 19.0023 10.5972C16.666 11.1313 14.6545 12.3431 13.1231 13.9792C13.0238 13.911 12.8499 13.7854 12.7982 13.7469C12.6376 13.7688 12.4752 13.8187 12.2637 13.6946C11.8611 13.4217 11.4944 13.045 11.0506 12.5912C10.8473 12.3741 10.7001 12.1674 10.4585 11.9581C10.4036 11.9106 10.3199 11.8463 10.2585 11.7974C10.0697 11.6458 9.84692 11.5667 9.63179 11.5593C9.35519 11.5498 9.08893 11.6587 8.91468 11.8788C8.60491 12.27 8.70408 12.868 9.13577 13.2145C9.14015 13.2181 9.14482 13.2208 9.14923 13.2242C9.20855 13.2726 9.28119 13.3347 9.33572 13.3752C9.59207 13.5658 9.82624 13.6634 10.0817 13.8147C10.6198 14.1493 11.0659 14.4268 11.4198 14.7613C11.5579 14.9096 11.5821 15.171 11.6005 15.284L11.8889 15.5434C10.3451 17.8829 9.6306 20.7725 10.0528 23.7169L9.67601 23.8272C9.57669 23.9564 9.43636 24.1596 9.28958 24.2202C8.82662 24.367 8.30559 24.421 7.67656 24.4874C7.38124 24.5121 7.12643 24.4973 6.81334 24.5571C6.74443 24.5702 6.64842 24.5954 6.57302 24.6132C6.5704 24.6138 6.56795 24.6145 6.56533 24.6151C6.56122 24.6161 6.55582 24.6181 6.55188 24.619C6.02155 24.748 5.68087 25.2389 5.79055 25.7225C5.90025 26.2062 6.41826 26.5004 6.95176 26.3846C6.95562 26.3837 6.96121 26.3835 6.96522 26.3826C6.97125 26.3812 6.97655 26.3783 6.98253 26.3768C7.0569 26.3604 7.1501 26.3421 7.21515 26.3246C7.52296 26.2416 7.74589 26.1196 8.02262 26.0129C8.61796 25.7979 9.11104 25.6182 9.59141 25.5482C9.79205 25.5324 10.0034 25.6729 10.1086 25.7322L10.5008 25.6644C11.4033 28.482 13.2947 30.7594 15.6897 32.1884L15.5263 32.5834C15.5852 32.7367 15.6502 32.9442 15.6063 33.0956C15.4317 33.5517 15.1325 34.033 14.7919 34.5696C14.627 34.8175 14.4582 35.0099 14.3093 35.2936C14.2737 35.3615 14.2284 35.4658 14.194 35.5376C13.9627 36.0358 14.1324 36.6096 14.5766 36.8249C15.0236 37.0416 15.5784 36.8131 15.8185 36.3139C15.8189 36.3132 15.8201 36.3126 15.8204 36.3119C15.8207 36.3114 15.8202 36.3105 15.8204 36.31C15.8546 36.2392 15.9031 36.1462 15.932 36.0796C16.0594 35.7855 16.1019 35.5335 16.1915 35.2491C16.4296 34.647 16.5604 34.0151 16.8881 33.6215C16.9778 33.5136 17.1241 33.4722 17.2758 33.4313L17.4796 33.0596C19.5675 33.8666 21.9046 34.0832 24.2393 33.5494C24.7718 33.4276 25.286 33.27 25.7831 33.0809C25.8403 33.1832 25.9468 33.3798 25.9753 33.4294C26.1295 33.4799 26.2977 33.5059 26.4348 33.7101C26.68 34.1319 26.8477 34.6309 27.0519 35.2336C27.1416 35.518 27.1859 35.7701 27.3134 36.0641C27.3425 36.1312 27.3907 36.2255 27.4249 36.2964C27.6645 36.7973 28.2211 37.0266 28.6688 36.8095C29.1129 36.594 29.2828 36.0202 29.0514 35.5221C29.017 35.4503 28.9697 35.346 28.9341 35.2782C28.7853 34.9944 28.6165 34.804 28.4515 34.5561C28.1109 34.0195 27.8284 33.5737 27.6537 33.1177C27.5807 32.8825 27.666 32.7362 27.7229 32.5834C27.6888 32.544 27.6159 32.3219 27.5729 32.2175C30.0619 30.7376 31.8978 28.3753 32.76 25.647C32.8764 25.6654 33.0787 25.7015 33.1445 25.7147C33.2798 25.6249 33.4042 25.5076 33.6482 25.527C34.1286 25.5969 34.6216 25.7766 35.217 25.9916C35.4937 26.0983 35.7166 26.2222 36.0244 26.3052C36.0895 26.3227 36.1827 26.3391 36.2571 26.3555C36.263 26.357 36.2683 26.36 36.2744 26.3613C36.2784 26.3622 36.284 26.3624 36.2878 26.3633C36.8214 26.4789 37.3395 26.1849 37.449 25.7012C37.5586 25.2176 37.2181 24.7266 36.6877 24.5977C36.6106 24.5801 36.5012 24.5501 36.4262 24.5358C36.1132 24.4761 35.8584 24.4908 35.563 24.4661C34.934 24.3997 34.413 24.3457 33.95 24.1989C33.7613 24.1252 33.627 23.899 33.5617 23.8059L33.1983 23.6995C33.3867 22.327 33.3359 20.8986 33.0099 19.4695C32.6808 18.027 32.0993 16.7077 31.3238 15.5454C31.417 15.4601 31.593 15.3031 31.643 15.2569C31.6576 15.0944 31.645 14.9239 31.8121 14.7439C32.166 14.4093 32.6121 14.1319 33.1502 13.7972C33.4057 13.6459 33.6418 13.5484 33.8981 13.3578C33.9561 13.3147 34.0352 13.2464 34.0961 13.1971C34.5277 12.8504 34.6271 12.2525 34.3172 11.8613C34.0073 11.4702 33.4069 11.4333 32.9753 11.78C32.9139 11.829 32.8305 11.8929 32.7753 11.9407C32.5338 12.15 32.3846 12.3567 32.1813 12.5738C31.7376 13.0276 31.3708 13.4062 30.9681 13.6792C30.7937 13.7814 30.5381 13.7461 30.4221 13.7392L30.0799 13.985C28.1285 11.9246 25.4717 10.6072 22.6109 10.3513C22.6029 10.2306 22.5924 10.0124 22.5897 9.94672C22.4726 9.83387 22.3311 9.73752 22.2956 9.49371C22.2564 9.00655 22.3218 8.48242 22.3975 7.85012C22.4392 7.5547 22.5087 7.30929 22.5205 6.98864C22.5232 6.91575 22.5189 6.80998 22.5186 6.73116C22.5185 6.17522 22.1157 5.72444 21.6188 5.72449H21.6188ZM20.4922 12.7519L20.225 17.5045L20.2058 17.5142C20.1878 17.9394 19.8403 18.2789 19.4137 18.2789C19.2389 18.2789 19.0776 18.2224 18.9465 18.126L18.9388 18.1298L15.0687 15.3673C16.2582 14.1895 17.7795 13.3192 19.5329 12.9183C19.8532 12.8451 20.1733 12.7908 20.4922 12.7519ZM22.7474 12.7519C24.7944 13.0054 26.6875 13.9387 28.1382 15.3692L24.2931 18.1143L24.2796 18.1085C23.9384 18.3595 23.4575 18.2973 23.1915 17.9614C23.0825 17.8238 23.0253 17.662 23.0184 17.4987L23.0146 17.4968L22.7474 12.7519ZM13.6653 17.1425L17.1989 20.3251L17.1951 20.3445C17.514 20.6237 17.5611 21.1082 17.295 21.4441C17.1861 21.5817 17.0402 21.674 16.8836 21.7171L16.8798 21.7326L12.3503 23.049C12.1197 20.9263 12.6166 18.8628 13.6653 17.1425ZM29.5474 17.1444C30.0724 18.0014 30.47 18.9584 30.7067 19.996C30.9405 21.0212 30.9992 22.0445 30.9028 23.0335L26.3502 21.7132L26.3464 21.6938C25.9387 21.5816 25.6882 21.1641 25.7831 20.7452C25.8219 20.5737 25.9124 20.4285 26.0349 20.3213L26.033 20.3116L29.5474 17.1444H29.5474ZM20.894 20.571H22.3417L23.2415 21.7035L22.9185 23.1167L21.6188 23.7459L20.3154 23.1148L19.9924 21.7016L20.894 20.571ZM25.5351 24.4467C25.5966 24.4436 25.6578 24.4492 25.7177 24.4603L25.7254 24.4506L30.4106 25.2482C29.7249 27.188 28.4129 28.8685 26.6597 29.9931L24.841 25.5695L24.8468 25.5618C24.6797 25.1709 24.8469 24.7125 25.2313 24.5261C25.3297 24.4784 25.4325 24.4519 25.5351 24.4467H25.5351ZM17.6661 24.4661C18.0236 24.4711 18.3443 24.721 18.4274 25.0875C18.4663 25.2591 18.4474 25.4291 18.3832 25.5792L18.3967 25.5966L16.5972 29.9757C14.9147 28.8886 13.5747 27.2608 12.8578 25.2637L17.5027 24.4699L17.5104 24.4796C17.5623 24.47 17.615 24.4653 17.6661 24.4661V24.4661ZM21.59 26.3846C21.7145 26.3799 21.8409 26.4057 21.9611 26.4639C22.1185 26.5403 22.2402 26.6605 22.3167 26.8047H22.334L24.6238 30.9707C24.3266 31.071 24.0211 31.1568 23.7086 31.2282C21.9575 31.6286 20.2119 31.5073 18.6312 30.9649L20.9152 26.8066H20.919C21.0561 26.5486 21.316 26.3947 21.59 26.3846Z" fill="white" stroke="white" stroke-width="0.219373"/>
</svg>
