<svg width="95" height="27" fill="none" xmlns="http://www.w3.org/2000/svg">
  <path d="m6.705 26.324-.706-.233s.087-3.56-1.198-3.808c-.847-.982.131-41.908 3.209-.14 0 0-1.057.53-1.256 1.424-.19.9-.05 2.757-.05 2.757Z" fill="url(#a)"/>
  <path d="M7.085 22.886s6.12-4.026 4.69-12.389C10.39 4.424 7.132 2.426 6.782 1.662c-.385-.54-.774-1.497-.774-1.497l.258 16.925c0 .005-.536 5.174.818 5.796Z" fill="url(#b)"/>
  <path d="M5.644 23.11S-.098 19.2.234 12.296C.564 5.396 4.62 2.002 5.41 1.385 5.92.84 5.94.63 5.98.096c.36.769.297 11.47.336 12.72.146 4.867-.268 9.375-.672 10.294Z" fill="url(#c)"/>
  <path d="M71.172 10.278c.327 0 1.578.058 2.158.058 1.08 0 1.835-.058 3.866-.058 1.704 0 3.136.457 4.159 1.337 1.236 1.07 1.894 2.558 1.894 4.367 0 2.577-1.179 4.065-2.362 4.901-1.178.875-2.707 1.371-4.894 1.371-1.159 0-3.15-.039-4.816-.058h-.024c-.078-.15.141-.749.277-.764.448-.048.57-.068.78-.155.35-.146.433-.321.472-.953.058-1.182.039-2.592.039-4.196 0-1.143.02-3.375-.02-4.08-.058-.593-.306-.744-.813-.86a9.643 9.643 0 0 0-1.08-.17c-.03-.113.267-.628.364-.74Zm3.857 10.605c.404.326 1.218.457 1.933.457.93 0 1.836-.17 2.727-.972.91-.822 1.53-2.081 1.53-4.08 0-1.925-.736-3.491-2.246-4.405-.852-.535-1.952-.744-3.209-.744-.365 0-.735.02-.95.117-.058.038-.174.19-.174.267-.04.345-.04 2.956-.04 4.503 0 1.585 0 3.797.04 4.064.024.22.14.623.39.793ZM84.88 10.278c.176 0 .687.058 2.007.058 1.237 0 2.245-.038 3.443-.038 1.49 0 3.54.534 3.54 2.747 0 1.089-.774 1.964-1.778 2.382-.058.02-.058.059 0 .078 1.432.36 2.689 1.24 2.689 2.918 0 1.638-1.023 2.67-2.513 3.32-.91.4-2.03.536-3.17.536-.872 0-3.204-.098-4.5-.078-.136-.059.122-.666.239-.764.312-.02.55-.039.876-.136.463-.117.522-.262.58-.948.039-.593.039-2.708.039-4.216 0-2.061.02-3.452 0-4.138-.02-.534-.214-.705-.58-.802-.292-.058-.774-.116-1.158-.17-.108-.102.19-.671.287-.749Zm7.885 8.563c0-1.678-1.237-2.63-3.502-2.63-.097 0-.813-.02-.988.019-.059.02-.117.058-.117.097 0 1.201-.02 3.126.039 3.89.039.326.273.783.56.914.312.17 1.008.209 1.49.209 1.34 0 2.517-.744 2.517-2.5Zm-4.393-7.63c-.078.02-.175.21-.175.307-.02.686-.039 2.48-.039 3.72 0 .039.058.097.097.097.254.02.872.039 1.393.039.735 0 1.159-.097 1.393-.21.618-.306.91-.972.91-1.696 0-1.658-1.159-2.29-2.882-2.29a4.292 4.292 0 0 0-.697.034ZM15.69 22.25c-.035-.054-.069-.205-.06-.385.006-.14.035-.228.06-.257.364-.059.535-.098.74-.151.34-.083.472-.268.491-.705.059-1.031.059-2.956.04-4.313V16.4c0-.146.004-.345-.181-.486-.268-.175-.604-.321-1.028-.448-.16-.048-.253-.13-.248-.233.005-.097.107-.219.317-.258.56-.058 2.03-.408 2.605-.67a.384.384 0 0 1 .078.272l-.015.19c-.015.189-.034.408-.034.627 0 .063.068.126.141.126a.14.14 0 0 0 .102-.044c1.101-.856 2.08-1.162 2.586-1.162.833 0 1.476.394 1.977 1.21.03.045.068.069.112.069s.083-.02.107-.059c1.008-.763 2.011-1.22 2.679-1.22 1.582 0 2.527 1.182 2.527 3.16 0 .57-.005 1.29-.01 1.965-.005.588-.01 1.143-.01 1.527 0 .092.127.35.312.403.234.112.565.17.989.243l.014.005c.034.112-.034.555-.097.647-.107 0-.248-.01-.429-.02-.33-.014-.779-.038-1.305-.038-1.052 0-1.602.019-2.128.053-.039-.131-.053-.554-.005-.642.307-.058.458-.097.643-.15.336-.112.434-.263.453-.705.01-.317.068-3.093-.039-3.75-.097-.68-.614-1.482-1.743-1.482-.419 0-1.096.175-1.739.66a.259.259 0 0 0-.063.166v.015c.078.355.078.773.078 1.4 0 .36 0 .74-.005 1.114-.005.763-.01 1.487.005 2.032 0 .374.224.462.409.535.097.02.175.039.253.058.151.04.312.073.54.112.035.073.035.292-.009.482a.388.388 0 0 1-.068.165 56.019 56.019 0 0 0-2.05-.04c-.263 0-.692.01-1.072.02-.306.01-.598.015-.76.015a.75.75 0 0 1-.058-.33c0-.161.03-.278.059-.312.083-.014.16-.03.234-.044.204-.034.38-.068.545-.107.287-.087.394-.248.414-.607.053-.851.097-3.292-.02-3.905-.204-.982-.764-1.483-1.665-1.483-.526 0-1.193.253-1.738.661-.093.069-.161.239-.161.394v1.012c-.005 1.23-.01 2.757.02 3.418.019.204.087.447.472.535.082.024.229.048.399.078.097.014.204.034.312.053.039.107.014.515-.054.647-.17 0-.375-.01-.614-.02-.36-.014-.813-.034-1.324-.034-.604 0-1.027.02-1.363.034-.23-.02-.424-.01-.619-.005ZM35.187 22.42c-2.907 0-3.94-2.125-3.94-4.114 0-1.39.57-2.475 1.695-3.229.798-.49 1.753-.773 2.615-.773 2.215 0 3.769 1.59 3.769 3.866 0 1.546-.619 2.771-1.792 3.535-.565.345-1.539.715-2.347.715Zm-.312-7.309c-.35 0-.682.093-.925.258-.672.409-1.013 1.22-1.013 2.417 0 2.236 1.125 3.802 2.732 3.802.472 0 .862-.136 1.183-.418.492-.404.755-1.225.755-2.373 0-2.203-1.1-3.686-2.732-3.686ZM65.276 22.42c-2.907 0-3.94-2.125-3.94-4.114 0-1.39.57-2.475 1.695-3.229.799-.49 1.753-.773 2.615-.773 2.216 0 3.769 1.59 3.769 3.866 0 1.55-.619 2.771-1.792 3.535-.565.345-1.539.715-2.347.715Zm-.312-7.309c-.35 0-.681.093-.925.258-.672.409-1.013 1.22-1.013 2.417 0 2.236 1.125 3.802 2.732 3.802.472 0 .862-.136 1.183-.418.492-.404.755-1.225.755-2.373 0-2.203-1.096-3.686-2.732-3.686ZM55.244 26.995c-1.042 0-1.797-.219-2.434-.715-.624-.481-.906-1.196-.906-1.687 0-.14.034-.506.34-.856.18-.204.605-.593 1.578-1.259.03-.01.05-.039.05-.078s-.025-.073-.064-.078c-.804-.306-1.042-.807-1.115-1.08 0-.009-.005-.023-.01-.043-.024-.107-.044-.209.102-.311.112-.078.292-.185.482-.297.283-.165.6-.355.78-.505a.125.125 0 0 0 .034-.107.126.126 0 0 0-.064-.093c-1.188-.398-1.782-1.278-1.782-2.616 0-.865.4-1.643 1.096-2.144.477-.374 1.675-.826 2.449-.826h.044c.798.019 1.246.184 1.87.413.336.126.657.175 1.105.175.662 0 .95-.21 1.198-.447.015.029.049.126.063.34.015.223-.044.55-.214.783-.136.184-.448.32-.745.32-.03 0-.059 0-.088-.004-.302-.03-.448-.073-.448-.073l-.073.024c-.024.034-.01.073.01.122a.1.1 0 0 1 .01.029c.039.155.107.603.107.73 0 1.404-.555 2.017-1.154 2.47a3.926 3.926 0 0 1-1.997.768c-.014 0-.087.004-.229.019-.092.01-.209.02-.224.02h-.014c-.132.038-.472.199-.472.5 0 .248.155.56.89.613.152.01.307.024.478.034.969.068 2.181.15 2.756.345.784.287 1.27.987 1.27 1.828 0 1.26-.895 2.446-2.4 3.166a5.14 5.14 0 0 1-2.279.52Zm-.117-4.425c-.336 0-.579.098-.725.18-.711.453-1.037.905-1.037 1.43 0 .49.19.88.603 1.23.497.423 1.17.627 2.05.627 1.739 0 2.518-.933 2.518-1.852 0-.642-.321-1.075-.988-1.318-.517-.195-1.374-.297-2.42-.297Zm.117-7.531c-.896 0-1.475.705-1.475 1.799 0 1.103.497 2.387 1.899 2.387.239 0 .677-.107.896-.345.326-.297.54-.914.54-1.566-.004-1.425-.7-2.275-1.86-2.275ZM50.521 21.544c-.424-.058-.735-.116-1.1-.287-.059-.039-.137-.209-.137-.267-.039-.593-.039-2.31-.039-3.433 0-.914-.156-1.716-.54-2.29-.463-.647-1.12-1.03-1.972-1.03-.755 0-1.758.515-2.591 1.22-.02.019-.146.14-.146-.049.005-.19.034-.569.048-.812.02-.238-.126-.355-.126-.355-.54.267-2.065.627-2.63.686-.414.077-.516.471-.078.607h.005c.458.136.77.287.998.438.176.131.156.326.156.476.02 1.28.02 3.244-.039 4.313-.02.419-.136.574-.443.647l.03-.01a5.132 5.132 0 0 1-.716.132c-.098.097-.098.646 0 .763.194 0 1.178-.058 1.991-.058 1.12 0 1.705.058 1.992.058.117-.136.156-.647.078-.763a4.064 4.064 0 0 1-.794-.117c-.312-.078-.385-.229-.404-.574-.039-.894-.039-2.805-.039-4.099 0-.364.097-.535.214-.627.385-.345 1.023-.574 1.588-.574.54 0 .91.17 1.178.399.365.306.502.744.54 1.07.079.724.06 2.173.06 3.433 0 .685-.06.86-.313.933-.116.058-.423.117-.793.15-.117.113-.078.648 0 .764.501 0 1.08-.058 1.933-.058 1.061 0 1.738.058 2.011.058.117-.112.156-.608.078-.744Z" fill="#484748"/>
  <defs>
    <linearGradient id="a" x1="2.047" y1="13.472" x2="10.138" y2="16.221" gradientUnits="userSpaceOnUse">
      <stop offset=".231" stop-color="#999875"/>
      <stop offset=".563" stop-color="#9B9977"/>
      <stop offset=".683" stop-color="#A09F7E"/>
      <stop offset=".768" stop-color="#A9A889"/>
      <stop offset=".837" stop-color="#B7B69A"/>
      <stop offset=".896" stop-color="#C9C7B0"/>
      <stop offset=".948" stop-color="#DEDDCB"/>
      <stop offset=".994" stop-color="#F8F6EB"/>
      <stop offset="1" stop-color="#FBF9EF"/>
    </linearGradient>
    <linearGradient id="b" x1="5.014" y1=".327" x2="8.587" y2="22.645" gradientUnits="userSpaceOnUse">
      <stop stop-color="#48A547"/>
      <stop offset="1" stop-color="#3F9143"/>
    </linearGradient>
    <linearGradient id="c" x1="-.371" y1="13.006" x2="9.23" y2="9.788" gradientUnits="userSpaceOnUse">
      <stop stop-color="#41A247"/>
      <stop offset=".352" stop-color="#4BA74B"/>
      <stop offset=".956" stop-color="#67B554"/>
      <stop offset="1" stop-color="#69B655"/>
    </linearGradient>
  </defs>
</svg>