<svg width="92" height="20" fill="none" xmlns="http://www.w3.org/2000/svg">
  <path d="M.539 15.031h2.97V3.081l4.617 10.418c.533 1.273 1.299 1.697 2.76 1.697 1.462 0 2.182-.447 2.715-1.697L18.218 3.08v11.951h2.97V3.104c0-1.155-.464-1.72-1.415-2.027C17.499.37 15.99.983 15.295 2.538l-4.501 10.278L6.409 2.538C5.759.983 4.204.37 1.93 1.077 1.003 1.36.539 1.925.539 3.08v11.951ZM23.672 5.296h2.97v6.576c-.024.354.116 1.203 1.74 1.226.835.024 6.427 0 6.473 0v-7.85h2.993c.023 0 0 10.702 0 10.75.023 2.64-3.225 3.205-4.71 3.252h-9.397v-2.027h9.42c1.926-.212 1.694-1.178 1.694-1.508v-.802H28.52c-2.947-.023-4.826-1.344-4.85-2.829 0-.14.07-6.718 0-6.788Z" fill="#00678F"/>
  <path d="M40.168 15.031h8.561c.998 0 1.972-.212 2.761-.589 1.3-.613 1.926-1.414 1.926-2.475V9.751c0-.872-.72-1.697-2.111-2.239-.743-.283-1.67-.448-2.553-.448h-3.62c-1.206 0-1.786-.377-1.925-1.179-.023-.094-.023-.165-.023-.282V4.235c0-.07 0-.165.023-.259.14-.613.464-.801 1.508-.896.093 0 .21-.023.279-.023h8.515V1.03h-8.376c-1.207 0-1.833.07-2.413.259-1.787.566-2.552 1.461-2.552 3.017v1.768c0 1.367 1.508 2.522 4.06 2.805.279.024.58.047.858.047h3.086c.116 0 .232 0 .325.024.952.07 1.346.26 1.624.613a.759.759 0 0 1 .232.542v1.768c0 .212-.139.495-.44.707-.256.236-.697.377-1.253.424-.116 0-.21.024-.325.024H40.12v2.003M71.977 11.52c0 2.074 1.508 3.229 4.594 3.465.279.023.58.047.859.047h7.772v-2.027h-7.819c-1.74 0-2.413-.448-2.413-1.509V1.054H72V11.52M58.52 11.448c0 .095.023.19.046.307.163.825.952 1.296 2.135 1.296h2.715l-2.483-2.286h3.457l2.158 1.98c.394-.212.673-.542.765-.966.024-.095.024-.19.024-.283V4.589c0-.07 0-.165-.024-.283-.162-.778-.95-1.226-2.088-1.226h-4.5c-1.323 0-2.182.59-2.182 1.51v6.858h-.023Zm-3.225.165V4.425c0-1.839 1.253-2.946 3.759-3.276.255-.048.556-.048.812-.048h5.66c.28 0 .558.024.836.048 2.506.353 3.759 1.461 3.759 3.276v7.19c0 1.484-.534 2.286-1.763 2.805l2.923 2.687h-3.457l-2.367-2.169-2.39.165H59.89a5.88 5.88 0 0 1-1.74-.26c-1.926-.541-2.854-1.555-2.854-3.229Z" fill="#E48D1A"/>
  <path fill-rule="evenodd" clip-rule="evenodd" d="M88.334 12.768v-.73h.488c.255 0 .556.047.556.353 0 .354-.278.377-.58.377h-.464Zm1.044 1.462h.488l-.72-1.108c.395-.047.673-.236.673-.707 0-.519-.325-.73-.951-.73h-.974v2.545h.417v-1.108h.395l.672 1.108Zm1.114-1.296c0 1.013-.766 1.767-1.694 1.767-.95 0-1.693-.754-1.693-1.768 0-1.013.742-1.767 1.693-1.767a1.743 1.743 0 0 1 1.694 1.768Zm-3.898 0a2.19 2.19 0 0 0 2.204 2.239 2.19 2.19 0 0 0 2.205-2.24 2.19 2.19 0 0 0-2.205-2.239c-1.183.024-2.204.92-2.204 2.24Z" fill="#E48D1A"/>
</svg>