<svg width="64" height="23" viewBox="0 0 64 23" fill="none" xmlns="http://www.w3.org/2000/svg"><path d="M8.01 5.734C3.614 5.734 0 9.347 0 13.745s3.613 8.01 8.01 8.01c4.399 0 8.011-3.612 8.011-8.01s-3.612-8.01-8.01-8.01zm0 12.252c-2.198 0-4.083-1.885-4.083-4.084S5.655 9.818 8.01 9.818c2.199 0 4.084 1.885 4.084 4.084 0 2.2-1.885 4.084-4.084 4.084zM22.147 16.572c0-.628.786-.942 1.257-.47 2.042 2.041 5.34 5.654 5.34 5.654s.158.157.315.157h3.769c.629 0 .786-.785.472-1.1l-5.97-6.125-.313-.315c-.629-.785-.629-1.1.157-2.042l4.712-5.34c.314-.314.157-1.1-.628-1.1h-3.613c-.157 0-.314.157-.314.157s-2.67 2.828-4.241 4.556c-.471.47-1.257.157-1.257-.472v-9.11c0-.471-.314-.628-.628-.628h-2.513c-.471 0-.628.314-.628.628v20.263c0 .47.314.628.628.628h2.67c.471 0 .628-.314.628-.628v-.157l.157-4.556zM43.98 21.128l-.314-2.67c0-.315-.314-.629-.786-.629h-.628c-2.199 0-3.927-1.728-3.927-3.77v-3.455c0-.472.314-.786.786-.786h3.612c.315 0 .629-.157.629-.628V6.677c0-.471-.314-.786-.629-.786h-3.612c-.472 0-.786-.314-.786-.785V1.022c0-.314-.157-.628-.628-.628h-2.67c-.314 0-.629.157-.629.628v13.194c.157 4.398 3.613 7.854 8.011 7.854.314 0 .786 0 1.1-.157.314 0 .47-.314.47-.785zM63.3 17.829c-2.199 0-2.67-.785-2.67-3.927V6.52c0-.315-.157-.629-.628-.629h-2.67c-.315 0-.629.314-.629.629v.314c-1.1-.629-2.513-1.1-3.927-1.1-4.398 0-8.01 3.613-8.01 8.011s3.612 8.01 8.01 8.01c2.042 0 3.77-.785 5.184-1.884.785 1.1 1.885 1.885 3.927 1.885.314 0 2.042 0 2.042-.786v-2.827c-.157 0-.315-.314-.629-.314zm-10.524.157c-2.199 0-4.084-1.885-4.084-4.084s1.728-4.084 4.084-4.084 4.084 1.885 4.084 4.084c-.157 2.2-1.885 4.084-4.084 4.084z" fill="var(--gray-4, #bfbfc0)"/></svg>