<svg width="64" height="23" viewBox="0 0 64 23" fill="none" xmlns="http://www.w3.org/2000/svg">
<path d="M8.01076 5.73425C3.6127 5.73425 0 9.34695 0 13.745C0 18.1431 3.6127 21.7558 8.01076 21.7558C12.4088 21.7558 16.0215 18.1431 16.0215 13.745C16.0215 9.34695 12.4088 5.73425 8.01076 5.73425ZM8.01076 17.986C5.81173 17.986 3.92684 16.1011 3.92684 13.9021C3.92684 11.7031 5.65466 9.81817 8.01076 9.81817C10.2098 9.81817 12.0947 11.7031 12.0947 13.9021C12.0947 16.1011 10.2098 17.986 8.01076 17.986Z" fill="#0B2875"/>
<path d="M22.1474 16.5724C22.1474 15.9441 22.9328 15.63 23.404 16.1012C25.4459 18.1431 28.7445 21.7558 28.7445 21.7558C28.7445 21.7558 28.9016 21.9129 29.0586 21.9129C29.2157 21.9129 29.2157 21.9129 29.3728 21.9129H32.8284C33.4567 21.9129 33.6138 21.1275 33.2996 20.8134L27.3308 14.6875L27.0167 14.3734C26.3884 13.588 26.3884 13.2739 27.1738 12.3314L31.886 6.9909C32.2001 6.67675 32.043 5.89138 31.2577 5.89138H27.9591C27.8021 5.89138 27.802 5.89138 27.645 5.89138C27.4879 5.89138 27.3308 6.04846 27.3308 6.04846C27.3308 6.04846 24.6606 8.87578 23.0898 10.6036C22.6186 11.0748 21.8332 10.7607 21.8332 10.1324V1.0221C21.8332 0.550875 21.5191 0.393799 21.205 0.393799H18.6918C18.2206 0.393799 18.0635 0.707949 18.0635 1.0221V21.2846C18.0635 21.7558 18.3776 21.9129 18.6918 21.9129H21.362C21.8332 21.9129 21.9903 21.5988 21.9903 21.2846V21.1275L22.1474 16.5724Z" fill="#0B2875"/>
<path d="M43.9799 21.1275L43.6658 18.4573C43.6658 18.1431 43.3516 17.829 42.8804 17.829C42.7233 17.829 42.4092 17.829 42.2521 17.829C40.0531 17.829 38.3253 16.1012 38.3253 14.0592V13.9021V10.6036C38.3253 10.1324 38.6394 9.81822 39.1107 9.81822H42.7234C43.0375 9.81822 43.3516 9.66115 43.3516 9.18993V6.67675C43.3516 6.20553 43.0375 5.89138 42.7234 5.89138H39.1107C38.6394 5.89138 38.3253 5.57723 38.3253 5.10601V1.0221C38.3253 0.707949 38.1682 0.393799 37.697 0.393799H35.0267C34.7126 0.393799 34.3984 0.550875 34.3984 1.0221C34.3984 1.0221 34.3984 14.0592 34.3984 14.2163C34.5555 18.6144 38.0111 22.07 42.4092 22.07C42.7233 22.07 43.1946 22.07 43.5087 21.9129C43.8229 21.9129 43.9799 21.5988 43.9799 21.1275Z" fill="#0B2875"/>
<path d="M63.3003 17.8289C61.1013 17.8289 60.6301 17.0436 60.6301 13.9021V6.51962C60.6301 6.20547 60.473 5.89132 60.0018 5.89132H57.3315C57.0174 5.89132 56.7032 6.20547 56.7032 6.51962V6.83377C55.6037 6.20548 54.19 5.73425 52.7764 5.73425C48.3783 5.73425 44.7656 9.34695 44.7656 13.745C44.7656 18.1431 48.3783 21.7558 52.7764 21.7558C54.8183 21.7558 56.5462 20.9704 57.9598 19.8709C58.7452 20.9704 59.8447 21.7558 61.8867 21.7558C62.2008 21.7558 63.9286 21.7558 63.9286 20.9704V18.1431C63.7716 18.1431 63.6145 17.8289 63.3003 17.8289ZM52.7764 17.986C50.5774 17.986 48.6925 16.1011 48.6925 13.9021C48.6925 11.7031 50.4203 9.81817 52.7764 9.81817C55.1325 9.81817 56.8603 11.7031 56.8603 13.9021C56.7032 16.1011 54.9754 17.986 52.7764 17.986Z" fill="#0B2875"/>
</svg>
