<svg width="41" height="41" viewBox="0 0 41 41" fill="none" xmlns="http://www.w3.org/2000/svg"><path d="M40.522.279H.154v40.367h40.368V.28z" fill="var(--gray-4, #bfbfc0)"/><path d="M11.462 16.771c-.785-.471-1.414-.628-3.613-.628H4.551V29.65h2.513v-5.026h1.414c1.413 0 1.885-.157 2.513-.471 1.414-.629 2.199-2.2 2.199-3.927.157-1.414-.471-2.67-1.728-3.456zm-1.257 5.027c-.314.628-.628.628-1.727.628H7.22v-4.084h1.57c1.1 0 1.729.785 1.729 2.042 0 .628-.157.942-.315 1.414zm-5.654 9.11h.628v5.497h-.628v-5.497zm6.754 1.413c-.471 0-.785.158-1.1.629-.314.471-.47.785-.47 1.57 0 1.257.628 2.042 1.57 2.042.471 0 .942-.157 1.257-.47l-.157-.472c-.315.314-.472.314-.943.314-.314 0-.628-.157-.942-.471-.157-.157-.157-.471-.157-.943v-.157h2.356v-.157c0-.942-.157-1.256-.472-1.727-.157 0-.628-.157-.942-.157zm-.942 1.728c0-.785.314-1.256.785-1.256.314 0 .471.157.628.314.157.157.157.471.157.942h-1.57zm5.811-1.1c0 .158.157.315.157.472v2.984h-.628v-2.67c0-.471 0-.471-.157-.628 0-.157-.157-.157-.471-.157-.314 0-.786.314-.943.628v2.827h-.628v-3.141c0-.628-.157-.785-.157-.785l.628-.157s.157.314.157.628c.314-.471.786-.629 1.1-.629.314 0 .785.158.942.629zm-2.042-16.02c0-.943.629-1.571 1.571-1.571.785 0 1.414.785 1.414 1.57 0 .943-.629 1.571-1.571 1.571-.785 0-1.414-.628-1.414-1.57zm.157 2.984l2.513-.471v10.21H14.29v-9.74zm3.456 12.566h.942l-.157.47h-.785v2.514c0 .471.157.628.471.628h.157v.471c-.157.158-.314.158-.471.158-.157 0-.314 0-.471-.157-.314-.158-.314-.315-.314-.786v-2.67h-.472v-.471h.472v-1.571h.628v1.414zm-8.796-1.571H8.32v1.885c-.158-.314-.629-.471-.943-.471-.314 0-.471 0-.628.314-.471.314-.786.942-.786 1.884 0 1.257.472 2.042 1.571 2.042.471 0 .628-.157.943-.47v.47h.628c-.157-.157-.157-.628-.157-1.256v-4.398zm-.471 4.398s0 .157-.157.314c-.158.157-.472.314-.629.314a.864.864 0 01-.785-.471c-.157-.157-.157-.628-.157-1.1 0-.628 0-.785.157-1.099.157-.314.471-.471.628-.471.471 0 .628.157.943.471v2.042zm17.749-2.984l-1.257 4.083c-.314.786-.47 1.257-1.256 1.414l-.157-.471c.314-.157.47-.314.628-.785 0-.315-.157-.472-.157-.472 0-.314-.314-1.1-.314-1.413l-.786-2.514.629-.157.785 2.514c.157.314.157.942.157.942s.157-.471.157-.785l.786-2.67h.785v.313zm.471 3.298c0-.157 0-.157-.157-.157h-.157v.628h.157v-.314l.157.314h.157l-.157-.314c-.157 0 0 0 0-.157zm-.314.157v-.157h.157s.157 0 .157.157h-.314zm0-.628c-.314 0-.628.314-.628.628s.314.628.628.628.628-.314.628-.628-.314-.628-.628-.628zm0 1.1c-.157 0-.471-.158-.471-.472 0-.314.157-.471.471-.471.157 0 .471.157.471.471 0 .314-.157.471-.471.471zm5.969-9.11h-1.257c-.314 0-.471-.158-.471-.158 0-.314.314-.471.942-.785h.315c2.042 0 3.455-1.257 3.455-2.985 0-.628-.157-1.1-.628-1.57h.628c.628 0 1.257-.158 1.728-.786l-1.1-1.728c-.628.472-1.256.786-1.884.786-.315 0-.629 0-1.1-.157-.628-.157-1.1-.314-1.728-.314-2.356 0-3.927 1.256-3.927 3.298 0 1.414.629 2.356 2.042 2.827-1.57.472-1.727 1.1-1.727 1.728 0 .628.314 1.1.785 1.257.471.157 1.1.314 2.199.314h1.1c.942 0 1.727.314 1.727 1.256 0 .472-.314.786-.628.943-.314.314-.942.314-1.57.314-1.1 0-1.729-.471-1.729-1.257 0-.314 0-.47.158-.628h-2.2c-.157.157-.157.471-.157.943 0 .628.315 1.256.786 1.727.785.786 2.199 1.1 3.613 1.1 1.413 0 2.827-.314 3.77-1.257.47-.628.785-1.256.785-2.042 0-.942-.315-1.57-.786-2.042-.942-.628-1.727-.785-3.141-.785zm-2.356-4.242c0-.942.47-1.414 1.413-1.414.943 0 1.414.472 1.414 1.414 0 .943-.471 1.414-1.57 1.414-.786 0-1.257-.471-1.257-1.414zm-7.069-1.256c-.47 0-1.1.314-1.727.942v7.068h-2.514v-7.225c0-.785-.157-1.728-.314-2.356l2.2-.628c.156.47.313.785.313 1.256.315-.314.629-.471 1.1-.785.471-.314 1.1-.471 1.728-.471 1.1 0 1.885.628 2.199 1.413.157.314.157.785.157 1.414v7.225h-2.356v-6.44c0-.942-.157-1.413-.786-1.413zm-1.256 11.152v2.513c0 .471.157.628.471.628h.157v.471c-.157.157-.314.157-.471.157-.157 0-.314 0-.471-.157-.314-.157-.314-.314-.314-.785v-2.67h-.472v-.471h.472v-1.571h.628v1.57h.942l-.157.472h-.785v-.157zm-2.356-.314l.628-.157v4.083h-.628V32.48z" fill="#fff"/></svg>