<svg width="41" height="41" viewBox="0 0 41 41" fill="none" xmlns="http://www.w3.org/2000/svg">
<path d="M40.5218 0.278564H0.153809V40.6465H40.5218V0.278564Z" fill="#B8232F"/>
<path d="M11.462 16.7712C10.6766 16.3 10.0483 16.1429 7.84932 16.1429H4.55078V29.6513H7.06395V24.6249H8.47762C9.89129 24.6249 10.3625 24.4678 10.9908 24.1537C12.4045 23.5254 13.1898 21.9546 13.1898 20.2268C13.3469 18.8132 12.7186 17.5566 11.462 16.7712ZM10.2054 21.7976C9.89127 22.4259 9.57714 22.4259 8.47762 22.4259H7.22103V18.3419H8.79177C9.89128 18.3419 10.5196 19.1273 10.5196 20.3839C10.5196 21.0122 10.3625 21.3264 10.2054 21.7976ZM4.55078 30.9078H5.17907V36.4054H4.55078V30.9078ZM11.3049 32.3215C10.8337 32.3215 10.5196 32.4786 10.2054 32.9498C9.89127 33.421 9.7342 33.7352 9.7342 34.5205C9.7342 35.7771 10.3625 36.5625 11.3049 36.5625C11.7762 36.5625 12.2474 36.4054 12.5615 36.0913L12.4045 35.6201C12.0903 35.9342 11.9332 35.9342 11.462 35.9342C11.1479 35.9342 10.8337 35.7771 10.5196 35.463C10.3625 35.3059 10.3625 34.9918 10.3625 34.5205V34.3635H12.7186V34.2064C12.7186 33.264 12.5615 32.9498 12.2474 32.4786C12.0903 32.4786 11.6191 32.3215 11.3049 32.3215ZM10.3625 34.0493C10.3625 33.264 10.6767 32.7927 11.1479 32.7927C11.462 32.7927 11.6191 32.9498 11.7762 33.1069C11.9332 33.264 11.9332 33.5781 11.9332 34.0493H10.3625ZM16.1742 32.9498C16.1742 33.1069 16.3313 33.264 16.3313 33.421V36.4054H15.703V33.7352C15.703 33.264 15.703 33.264 15.5459 33.1069C15.5459 32.9498 15.3889 32.9498 15.0747 32.9498C14.7606 32.9498 14.2893 33.264 14.1323 33.5781V36.4054H13.504V33.264C13.504 32.6357 13.3469 32.4786 13.3469 32.4786L13.9752 32.3215C13.9752 32.3215 14.1323 32.6357 14.1323 32.9498C14.4464 32.4786 14.9176 32.3215 15.2318 32.3215C15.5459 32.3215 16.0172 32.4786 16.1742 32.9498ZM14.1323 16.9283C14.1323 15.9858 14.7606 15.3575 15.703 15.3575C16.4884 15.3575 17.1167 16.1429 17.1167 16.9283C17.1167 17.8707 16.4884 18.499 15.5459 18.499C14.7606 18.499 14.1323 17.8707 14.1323 16.9283ZM14.2893 19.9127L16.8025 19.4415V29.6513H14.2893V19.9127ZM17.745 32.4786H18.6874L18.5303 32.9498H17.745V35.463C17.745 35.9342 17.902 36.0913 18.2162 36.0913C18.3733 36.0913 18.3733 36.0913 18.3733 36.0913V36.5625C18.2162 36.7196 18.0591 36.7196 17.902 36.7196C17.745 36.7196 17.5879 36.7196 17.4308 36.5625C17.1167 36.4054 17.1167 36.2484 17.1167 35.7771V33.1069H16.6455V32.6357H17.1167V31.0649H17.745V32.4786ZM8.94883 30.9078H8.32054V32.1644C8.32054 32.4786 8.32054 32.7927 8.32054 32.7927C8.16347 32.4786 7.69224 32.3215 7.37809 32.3215C7.06394 32.3215 6.90688 32.3215 6.7498 32.6357C6.27858 32.9498 5.96444 33.5781 5.96444 34.5205C5.96444 35.7771 6.43566 36.5625 7.53517 36.5625C8.00639 36.5625 8.16348 36.4054 8.47762 36.0913C8.47762 36.2484 8.47762 36.5625 8.47762 36.5625H9.10591C8.94884 36.4054 8.94883 35.9342 8.94883 35.3059V30.9078ZM8.47762 35.3059C8.47762 35.3059 8.47762 35.463 8.32054 35.6201C8.16347 35.7771 7.84933 35.9342 7.69226 35.9342C7.37811 35.9342 7.06396 35.7771 6.90689 35.463C6.74981 35.3059 6.7498 34.8347 6.7498 34.3635C6.7498 33.7352 6.74981 33.5781 6.90689 33.264C7.06396 32.9498 7.3781 32.7927 7.53517 32.7927C8.00639 32.7927 8.16348 32.9498 8.47762 33.264V35.3059ZM26.2269 32.3215L24.9704 36.4054C24.6562 37.1908 24.4991 37.662 23.7138 37.8191L23.5567 37.3479C23.8708 37.1908 24.0279 37.0337 24.185 36.5625C24.185 36.2484 24.0279 36.0913 24.0279 36.0913C24.0279 35.7771 23.7138 34.9918 23.7138 34.6776L22.9284 32.1644L23.5567 32.0074L24.3421 34.5205C24.4991 34.8347 24.4991 35.463 24.4991 35.463C24.4991 35.463 24.6562 34.9918 24.6562 34.6776L25.4416 32.0074H26.2269V32.3215ZM26.6982 35.6201C26.6982 35.463 26.6982 35.463 26.5411 35.463H26.384V36.0913H26.5411V35.7771L26.6982 36.0913H26.8552L26.6982 35.7771C26.5411 35.7771 26.6982 35.7771 26.6982 35.6201ZM26.384 35.7771V35.6201H26.5411C26.5411 35.6201 26.6982 35.6201 26.6982 35.7771C26.5411 35.7771 26.5411 35.7771 26.384 35.7771ZM26.384 35.1488C26.0699 35.1488 25.7557 35.463 25.7557 35.7771C25.7557 36.0913 26.0699 36.4054 26.384 36.4054C26.6982 36.4054 27.0123 36.0913 27.0123 35.7771C27.0123 35.463 26.6982 35.1488 26.384 35.1488ZM26.384 36.2484C26.2269 36.2484 25.9128 36.0913 25.9128 35.7771C25.9128 35.463 26.0699 35.3059 26.384 35.3059C26.5411 35.3059 26.8552 35.463 26.8552 35.7771C26.8552 36.0913 26.6982 36.2484 26.384 36.2484ZM32.3528 27.1381H31.0962C30.7821 27.1381 30.625 26.981 30.625 26.981C30.625 26.6669 30.9392 26.5098 31.5675 26.1956C31.7245 26.1956 31.8816 26.1956 31.8816 26.1956C33.9236 26.1956 35.3372 24.939 35.3372 23.2112C35.3372 22.5829 35.1802 22.1117 34.7089 21.6405C34.866 21.6405 35.1801 21.6405 35.3372 21.6405C35.9655 21.6405 36.5938 21.4834 37.065 20.8551L35.9655 19.1273C35.3372 19.5985 34.7089 19.9127 34.0806 19.9127C33.7665 19.9127 33.4523 19.9127 32.9811 19.7556C32.3528 19.5985 31.8816 19.4415 31.2533 19.4415C28.8972 19.4415 27.3265 20.6981 27.3265 22.74C27.3265 24.1537 27.9547 25.0961 29.3684 25.5673C27.7977 26.0386 27.6406 26.6669 27.6406 27.2952C27.6406 27.9234 27.9548 28.3947 28.426 28.5517C28.8972 28.7088 29.5255 28.8659 30.625 28.8659H31.7245C32.667 28.8659 33.4523 29.18 33.4523 30.1225C33.4523 30.5937 33.1382 30.9078 32.8241 31.0649C32.5099 31.3791 31.8816 31.3791 31.2533 31.3791C30.1538 31.3791 29.5255 30.9078 29.5255 30.1225C29.5255 29.8083 29.5255 29.6513 29.6826 29.4942H27.4835C27.3265 29.6513 27.3265 29.9654 27.3265 30.4366C27.3265 31.0649 27.6406 31.6932 28.1118 32.1644C28.8972 32.9498 30.3109 33.264 31.7245 33.264C33.1382 33.264 34.5519 32.9498 35.4943 32.0074C35.9655 31.3791 36.2797 30.7508 36.2797 29.9654C36.2797 29.023 35.9655 28.3947 35.4943 27.9234C34.5519 27.2951 33.7665 27.1381 32.3528 27.1381ZM29.9967 22.8971C29.9967 21.9546 30.4679 21.4834 31.4104 21.4834C32.3528 21.4834 32.8241 21.9546 32.8241 22.8971C32.8241 23.8395 32.3528 24.3107 31.2533 24.3107C30.4679 24.3107 29.9967 23.8395 29.9967 22.8971ZM22.9284 21.6405C22.4572 21.6405 21.8289 21.9546 21.2006 22.5829V29.6513H18.6874V22.4259C18.6874 21.6405 18.5303 20.6981 18.3733 20.0698L20.5723 19.4415C20.7294 19.9127 20.8864 20.2268 20.8864 20.6981C21.2006 20.3839 21.5147 20.2268 21.986 19.9127C22.4572 19.5985 23.0855 19.4415 23.7138 19.4415C24.8133 19.4415 25.5986 20.0698 25.9128 20.8551C26.0699 21.1693 26.0699 21.6405 26.0699 22.2688V29.4942H23.7138V23.0542C23.7138 22.1117 23.5567 21.6405 22.9284 21.6405ZM21.6718 32.7927V35.3059C21.6718 35.7771 21.8289 35.9342 22.143 35.9342C22.3001 35.9342 22.3001 35.9342 22.3001 35.9342V36.4054C22.143 36.5625 21.986 36.5625 21.8289 36.5625C21.6718 36.5625 21.5147 36.5625 21.3577 36.4054C21.0435 36.2484 21.0435 36.0913 21.0435 35.6201V32.9498H20.5723V32.4786H21.0435V30.9078H21.6718V32.4786H22.6143L22.4572 32.9498H21.6718V32.7927ZM19.3157 32.4786L19.944 32.3215V36.4054H19.3157V32.4786Z" fill="white"/>
</svg>
