<svg width="43" height="39" fill="none" xmlns="http://www.w3.org/2000/svg">
  <path d="m37.518.528.509.529v7.75c0 4.226 0 7.75-.17 7.75 0 0-.679-.177-1.358-.53-.679-.352-1.358-.528-1.528-.704-.34-.176-.34-.528-.34-5.988V3.346H19.015l-15.619.177v19.726h16.977l-.17.352c0 .176-.17 1.057-.34 1.762-.679 3.17.17 7.045 2.037 9.687.34.528.51.88.51.88 0 .176-13.412.176-13.751 0-.51-.176-.34-1.233.17-1.761.679-.88 1.527-1.057 4.074-1.233 3.395-.176 3.565-.528 3.565-4.05v-2.114h-7.47c-4.753 0-7.639 0-7.978-.177C0 26.243 0 26.595 0 13.21V1.057L.51.528 1.018 0H37.008l.51.528Z" fill="#000"/>
  <path d="M42.27 27.476c0-1.938 0-2.29-.509-3.346-1.358-3.7-4.244-6.341-7.809-7.222-1.018-.176-3.055-.352-3.904-.176-2.547.528-4.075 1.41-5.772 3.17-2.207 2.29-3.226 4.756-3.226 7.75 0 4.932 3.396 9.511 7.98 10.568 3.055.704 6.11.176 8.657-1.762 1.528-1.233 2.547-2.29 3.395-4.05 1.019-1.586 1.189-2.466 1.189-4.932Zm-13.75 6.869c-.34.176-.51 0-.849-.352-.34-.353-.51-.705-.51-.881 0-.176.51-.88 1.359-1.585.679-.705 1.358-1.41 1.358-1.585 0 0-.68-.705-1.358-1.585-.68-.705-1.358-1.41-1.358-1.586 0-.176.17-.528.51-.704.339-.176.678-.529.848-.529.34 0 4.414 4.051 4.414 4.404-.34.352-3.905 4.227-4.414 4.403Zm6.79-7.397c.68.704 1.189 1.409 1.189 1.585 0 .528-.85 1.409-1.358 1.409-.34 0-4.244-4.051-4.414-4.404 0-.176.849-1.056 2.037-2.29 1.358-1.408 2.207-2.113 2.546-2.113.34 0 1.189.88 1.189 1.233 0 .176-.51.88-1.358 1.585-.68.705-1.358 1.41-1.358 1.585.339 0 1.018.705 1.527 1.41Z" fill="#000"/>
</svg>