<svg id="Layer_1" data-name="Layer 1" xmlns="http://www.w3.org/2000/svg" viewBox="0 0 118 118"><defs><style>.cls-1{fill:var(--boundary-secondary, #ffecec);}.cls-2{fill:#000;}</style></defs><path class="cls-1" d="M3,0H118a0,0,0,0,1,0,0V115a3,3,0,0,1-3,3H3a3,3,0,0,1-3-3V3A3,3,0,0,1,3,0Z"/><path class="cls-2" d="M41.56,71.15a1.21,1.21,0,0,1-.88-.37,1.25,1.25,0,0,1,0-1.77L52.87,56.82,40.68,44.62a1.25,1.25,0,1,1,1.77-1.76L55.52,55.94a1.23,1.23,0,0,1,0,1.76L42.45,70.78A1.25,1.25,0,0,1,41.56,71.15Z"/><path class="cls-2" d="M76.44,75.51H59A1.25,1.25,0,1,1,59,73H76.44a1.25,1.25,0,0,1,0,2.5Z"/></svg>