<svg id="Layer_1" data-name="Layer 1" xmlns="http://www.w3.org/2000/svg" viewBox="0 0 118 118"><defs><style>.cls-1{fill:var(--boundary-secondary, #ffecec);}.cls-2{fill:#000;}</style></defs><path class="cls-1" d="M3,0H118a0,0,0,0,1,0,0V115a3,3,0,0,1-3,3H3a3,3,0,0,1-3-3V3A3,3,0,0,1,3,0Z"/><circle class="cls-2" cx="84.5" cy="75.5" r="1.25"/><path class="cls-2" d="M85.75,43.5a1.34,1.34,0,0,0-.09-.45V36h0a1.13,1.13,0,0,0,.09-.45,1.12,1.12,0,0,0-.1-.48,1.22,1.22,0,0,0-.31-.43l-.15-.13a1.43,1.43,0,0,0-.21-.12l-.24-.07a.65.65,0,0,0-.14,0l-.1,0h-48a1.25,1.25,0,0,0-1.25,1.25v48a1.12,1.12,0,0,0,.1.48,1.22,1.22,0,0,0,.67.67,1.12,1.12,0,0,0,.48.1h8a1.25,1.25,0,0,0,0-2.5H37.75V36.75H59.11V59.5a1.25,1.25,0,0,0,1.25,1.25H84.23l.12,0,.06,0h0l.08,0a1.25,1.25,0,0,0,1.25-1.25,1.34,1.34,0,0,0-.09-.45V52a1.17,1.17,0,0,0,0-.9V44A1.34,1.34,0,0,0,85.75,43.5ZM61.61,36.75H83.16v21.5H61.61Z"/><circle class="cls-2" cx="84.5" cy="67.5" r="1.25"/><path class="cls-2" d="M85.65,83a1.39,1.39,0,0,0-.11-.21,1.45,1.45,0,0,0-.35-.35L85,82.35a1.13,1.13,0,0,0-.24-.08,1.29,1.29,0,0,0-.48,0,1.13,1.13,0,0,0-.24.08l-.21.11a1,1,0,0,0-.19.16,1.25,1.25,0,0,0,.88,2.13,1.12,1.12,0,0,0,.48-.1,1.09,1.09,0,0,0,.4-.27,1.22,1.22,0,0,0,.37-.88,1.94,1.94,0,0,0,0-.24A1.13,1.13,0,0,0,85.65,83Z"/><circle class="cls-2" cx="60.5" cy="83.5" r="1.25"/><circle class="cls-2" cx="52.5" cy="83.5" r="1.25"/><circle class="cls-2" cx="68.5" cy="83.5" r="1.25"/><circle class="cls-2" cx="76.5" cy="83.5" r="1.25"/></svg>