<svg id="Layer_1" data-name="Layer 1" xmlns="http://www.w3.org/2000/svg" viewBox="0 0 118 118"><defs><style>.cls-1{fill:var(--boundary-secondary, #ffecec);}.cls-2{fill:#000;}</style></defs><rect class="cls-1" width="118" height="118" rx="3"/><path class="cls-2" d="M92.25,76.24,82.15,66.15A15.86,15.86,0,1,0,54.22,55.86a15.59,15.59,0,0,0,.64,4.39l-4,11.92-9.83-29.5a1.25,1.25,0,0,0-2.38,0L33.45,58.34H27a1.25,1.25,0,0,0,0,2.5h7.35A1.25,1.25,0,0,0,35.54,60l4.32-13L49.7,76.52a1.24,1.24,0,0,0,1.18.85,1.25,1.25,0,0,0,1.19-.85l4.26-12.8a15.82,15.82,0,0,0,24,4.19L90.48,78ZM70.09,42.49A13.33,13.33,0,0,1,83.22,58.34H57a12.64,12.64,0,0,1-.25-2.48A13.38,13.38,0,0,1,70.09,42.49ZM57.7,60.84H82.49a13.36,13.36,0,0,1-24.79,0Z"/></svg>